<?xml version="1.0" standalone="no"?>
<!DOCTYPE svg PUBLIC "-//W3C//DTD SVG 20010904//EN"
 "http://www.w3.org/TR/2001/REC-SVG-20010904/DTD/svg10.dtd">
<svg version="1.0" xmlns="http://www.w3.org/2000/svg"
 width="152.000000pt" height="152.000000pt" viewBox="0 0 152.000000 152.000000"
 preserveAspectRatio="xMidYMid meet">
<metadata>
Created by potrace 1.11, written by Peter Selinger 2001-2013
</metadata>
<g transform="translate(0.000000,152.000000) scale(0.100000,-0.100000)"
fill="#000000" stroke="none">
<path d="M0 760 l0 -760 760 0 760 0 0 760 0 760 -760 0 -760 0 0 -760z m778
463 l3 -103 94 0 c72 0 97 -4 109 -16 19 -19 21 -87 3 -102 -7 -6 -56 -13
-108 -14 l-94 -3 -3 -285 c-2 -157 0 -304 3 -327 9 -64 24 -73 115 -73 88 0
110 -12 110 -59 0 -51 -18 -62 -111 -68 -150 -10 -232 30 -259 125 -6 22 -10
170 -10 365 0 305 -1 327 -17 327 -52 1 -156 20 -168 30 -18 15 -20 71 -3 88
8 8 45 12 100 12 l88 0 0 89 c0 59 4 92 13 99 14 12 59 20 102 18 l30 -1 3
-102z"/>
</g>
</svg>
