<svg xmlns="http://www.w3.org/2000/svg" xmlns:xlink="http://www.w3.org/1999/xlink" viewBox="1609.124 3572 23.227 23.174">
  <defs>
    <style>
      .cls-1 {
        fill: url(#radial-gradient);
      }

      .cls-2 {
        fill: #fff;
      }
    </style>
    <radialGradient id="radial-gradient" cx="11.713" cy="11.646" r="21.718" gradientTransform="translate(0.009 0.009)" gradientUnits="userSpaceOnUse">
      <stop offset="0" stop-color="#9dd5f6"/>
      <stop offset="0.071" stop-color="#98d3f5"/>
      <stop offset="0.157" stop-color="#89cef3"/>
      <stop offset="0.252" stop-color="#70c6ef"/>
      <stop offset="0.351" stop-color="#4ebbea"/>
      <stop offset="0.455" stop-color="#23ade3"/>
      <stop offset="0.5" stop-color="#0da6e0"/>
      <stop offset="1" stop-color="#2e77bc"/>
    </radialGradient>
  </defs>
  <g id="American_Express_logo" transform="translate(1601.486 3564.402)">
    <path id="Path_91" data-name="Path 91" class="cls-1" d="M30.729,7.6H7.639V30.772h23.09V23.124a.876.876,0,0,0,.137-.51.793.793,0,0,0-.137-.508" transform="translate(-0.001 0)"/>
    <path id="Path_92" data-name="Path 92" class="cls-2" d="M9.719,106.7l-.444-1.082L8.834,106.7m10.672-.431a.6.6,0,0,1-.321.056H18.4v-.6h.8a.666.666,0,0,1,.308.049.249.249,0,0,1,.136.24A.278.278,0,0,1,19.505,106.271Zm5.624.431-.449-1.082-.447,1.082Zm-10.484,1.172H13.98l0-2.127-.941,2.127h-.57l-.944-2.128v2.128H10.2l-.249-.606H8.6l-.252.606h-.7l1.162-2.715h.964l1.1,2.571v-2.571h1.059L12.784,107l.78-1.842h1.081v2.715Zm2.652,0H15.129v-2.715H17.3v.565H15.778v.489h1.483v.557H15.778v.542H17.3Zm3.057-1.984a.764.764,0,0,1-.457.724.752.752,0,0,1,.321.229.781.781,0,0,1,.107.5v.533H19.67l0-.342a.815.815,0,0,0-.1-.529.635.635,0,0,0-.473-.116h-.7v.988h-.649v-2.715H19.24a1.529,1.529,0,0,1,.786.13A.633.633,0,0,1,20.354,105.89Zm1.039,1.984H20.73v-2.715h.662Zm7.682,0h-.92l-1.23-2.038v2.038H25.6l-.253-.606H24l-.245.606H23a1.15,1.15,0,0,1-1.288-1.337,1.445,1.445,0,0,1,.35-1.062,1.317,1.317,0,0,1,.986-.317h.628v.582h-.615a.625.625,0,0,0-.5.161.9.9,0,0,0-.187.615.942.942,0,0,0,.178.638.626.626,0,0,0,.452.14H23.3l.915-2.135h.972l1.1,2.568v-2.568h.988l1.141,1.891v-1.891h.665v2.715Zm-21.437.533H8.747l.25-.6h.56l.249.6h2.182v-.461l.195.463h1.133l.195-.47v.468h5.422l0-.99h.1c.073,0,.095.009.095.131v.859h2.8v-.23a2.222,2.222,0,0,0,1.041.23h1.18l.252-.6h.56l.247.6h2.274v-.573l.344.573h1.822V104.62h-1.8v.447l-.252-.447h-1.85v.447l-.232-.447h-2.5a2.244,2.244,0,0,0-1.083.221v-.221H20.209v.221a1.069,1.069,0,0,0-.733-.221h-6.3l-.423.978-.434-.978H10.334v.447l-.218-.447H8.424l-.786,1.8v1.986Z" transform="translate(0 -89.076)"/>
    <path id="Path_93" data-name="Path 93" class="cls-2" d="M82.2,162.779H81.022a.449.449,0,0,0-.263.049.211.211,0,0,0-.095.2.2.2,0,0,0,.142.2.739.739,0,0,0,.25.031l.352.009a1.026,1.026,0,0,1,.736.219.349.349,0,0,1,.06.067m0,1.018a1.011,1.011,0,0,1-.881.347H80.07v-.582h1.248a.369.369,0,0,0,.263-.067.239.239,0,0,0,.077-.177.223.223,0,0,0-.079-.18.33.33,0,0,0-.229-.06c-.609-.021-1.37.019-1.37-.841,0-.394.25-.809.931-.809H82.2v-.54H81a1.353,1.353,0,0,0-.812.222v-.222H78.414a1.23,1.23,0,0,0-.775.222v-.222H74.467v.222a1.688,1.688,0,0,0-.875-.222H71.5v.222a1.48,1.48,0,0,0-.915-.222H68.242l-.536.58-.5-.58h-3.5v3.789h3.433l.552-.589.52.589,2.116,0v-.891h.208a2.2,2.2,0,0,0,.9-.133v1.023h1.745v-.988h.084c.107,0,.118,0,.118.112v.876h5.3a1.512,1.512,0,0,0,.883-.242v.242h1.682a2.253,2.253,0,0,0,.952-.175Zm-2.589-1.085a.756.756,0,0,1,.194.575c0,.584-.365.857-1.02.857H77.526v-.582h1.259a.381.381,0,0,0,.265-.067.241.241,0,0,0,.077-.177.233.233,0,0,0-.079-.18.341.341,0,0,0-.231-.06c-.607-.021-1.367.019-1.367-.841,0-.394.247-.809.928-.809h1.3v.578H78.488a.439.439,0,0,0-.26.049.228.228,0,0,0,.045.4.746.746,0,0,0,.253.031l.349.009A1.047,1.047,0,0,1,79.616,163.485Zm-5.856-.168a.621.621,0,0,1-.32.056h-.788v-.61h.8a.639.639,0,0,1,.31.049.258.258,0,0,1,.134.244A.293.293,0,0,1,73.759,163.317Zm.392.338a.706.706,0,0,1,.318.228.791.791,0,0,1,.108.5v.538h-.652v-.34c0-.163.016-.405-.1-.532a.63.63,0,0,0-.476-.121h-.694v.992H72V162.2h1.5a1.607,1.607,0,0,1,.781.128.636.636,0,0,1,.334.6A.761.761,0,0,1,74.151,163.655Zm.82-1.454h2.166v.562h-1.52v.494H77.1v.554H75.618v.54l1.52,0v.564H74.971Zm-4.379,1.253h-.839v-.692H70.6c.234,0,.4.1.4.333S70.842,163.455,70.593,163.455Zm-1.485,1.216-1-1.106,1-1.071Zm-2.573-.319h-1.6v-.54h1.425v-.554H64.939v-.494h1.627l.71.791Zm5.16-1.255c0,.754-.563.91-1.13.91h-.81v.911H68.492l-.8-.9-.83.9H64.292V162.2H66.9l.8.89.826-.89H70.6C71.115,162.2,71.694,162.344,71.694,163.1Z" transform="translate(-51.476 -141.446)"/>
  </g>
</svg>
