<svg xmlns="http://www.w3.org/2000/svg" viewBox="-2045.597 2338.28 53.6 22.008">
  <path id="Apple_Pay_logo" d="M9.852,2.837A3.293,3.293,0,0,1,7.214,4.083a3.733,3.733,0,0,1,.942-2.733A3.936,3.936,0,0,1,10.774,0a3.975,3.975,0,0,1-.921,2.837m.911,1.445c-1.455-.084-2.7.827-3.392.827S5.612,4.324,4.46,4.345A4.3,4.3,0,0,0,.806,6.565c-1.57,2.7-.408,6.7,1.11,8.9.743,1.089,1.633,2.282,2.806,2.241,1.11-.042,1.55-.722,2.89-.722s1.738.722,2.911.7c1.215-.021,1.979-1.089,2.722-2.178A9.55,9.55,0,0,0,14.459,13a3.945,3.945,0,0,1-2.366-3.591,4.028,4.028,0,0,1,1.916-3.371,4.149,4.149,0,0,0-3.246-1.759m8.407-3.036V17.568H21.7v-5.58h3.507a5.181,5.181,0,0,0,5.455-5.382A5.12,5.12,0,0,0,25.3,1.246H19.171ZM21.7,3.382h2.921c2.2,0,3.455,1.173,3.455,3.235s-1.256,3.246-3.466,3.246H21.7Zm13.59,14.312a4.192,4.192,0,0,0,3.738-2.084h.052v1.958H41.43V9.444c0-2.356-1.885-3.874-4.785-3.874-2.691,0-4.68,1.539-4.753,3.654h2.282a2.224,2.224,0,0,1,2.4-1.665c1.55,0,2.419.722,2.419,2.052v.9l-3.162.188c-2.942.178-4.533,1.382-4.533,3.476C31.295,16.291,32.938,17.694,35.294,17.694Zm.681-1.937c-1.351,0-2.209-.649-2.209-1.644,0-1.026.827-1.623,2.408-1.717l2.816-.178v.921A2.754,2.754,0,0,1,35.975,15.757Zm8.585,6.251c2.471,0,3.633-.942,4.649-3.8l4.45-12.48H51.083L48.1,15.37h-.052L45.063,5.727H42.414L46.706,17.61l-.23.722a2.014,2.014,0,0,1-2.136,1.7c-.2,0-.586-.021-.743-.042v1.958A6.979,6.979,0,0,0,44.56,22.008Z" transform="translate(-2045.656 2338.28)"/>
</svg>
