<svg xmlns="http://www.w3.org/2000/svg" viewBox="-2089.364 3872.832 22.064 18.012">
  <defs>
    <style>
      .cls-1 {
        fill: #2acc62;
      }
    </style>
  </defs>
  <path id="Path_184" data-name="Path 184" class="cls-1" d="M19.969,5.85a7.123,7.123,0,0,0-5.046-2.095H3.189l2.38-2.38A.791.791,0,1,0,4.451.257L0,4.708,4.451,9.159A.791.791,0,1,0,5.57,8.04L3.189,5.66H14.923a5.315,5.315,0,0,1,3.713,1.523A5.214,5.214,0,0,1,20.16,10.9a5.315,5.315,0,0,1-1.523,3.713,5.214,5.214,0,0,1-3.713,1.523H3.737a.952.952,0,0,0,0,1.9H14.923A7.136,7.136,0,0,0,19.969,5.85Z" transform="translate(-2089.364 3872.807)"/>
</svg>
