<svg xmlns="http://www.w3.org/2000/svg" viewBox="-537.5 1993.5 127 72">
  <path stroke="#eee" fill="none" d="M120.9,0A3.99,3.99,0,0,1,117,3a4.079,4.079,0,0,1-3.9-3h-7.7a3.99,3.99,0,0,1-3.9,3,4.079,4.079,0,0,1-3.9-3H90a3.99,3.99,0,0,1-3.9,3,4.079,4.079,0,0,1-3.9-3H74.5a3.99,3.99,0,0,1-3.9,3,4.079,4.079,0,0,1-3.9-3H59a3.99,3.99,0,0,1-3.9,3,4.079,4.079,0,0,1-3.9-3H43.5a3.99,3.99,0,0,1-3.9,3A3.655,3.655,0,0,1,36,0H28.3a3.99,3.99,0,0,1-3.9,3,3.875,3.875,0,0,1-3.8-3H12.9A3.99,3.99,0,0,1,9,3,4.079,4.079,0,0,1,5.1,0H0V71H126V0Z" transform="translate(-537 1994)"/>
</svg>
