<svg xmlns="http://www.w3.org/2000/svg" viewBox="-2047 2456.698 36.21 25.603">
  <path id="Path_216" data-name="Path 216" d="M32.431,0H3.658A3.592,3.592,0,0,0,0,3.658V21.946A3.668,3.668,0,0,0,3.658,25.6H32.553a3.668,3.668,0,0,0,3.658-3.658V3.658A3.774,3.774,0,0,0,32.431,0Zm2.438,21.946a2.446,2.446,0,0,1-2.438,2.438H3.658a2.446,2.446,0,0,1-2.438-2.438v-10h33.65Zm-7.8-12.923a.576.576,0,0,1,.61-.61h3.536a.61.61,0,0,1,0,1.219H27.676A.576.576,0,0,1,27.066,9.022Zm7.8-2.8H1.219V3.658A2.446,2.446,0,0,1,3.658,1.219H32.553a2.446,2.446,0,0,1,2.438,2.438v2.56ZM5.486,19.385h8.534a.61.61,0,1,0,0-1.219H5.486a.576.576,0,0,0-.61.61A.783.783,0,0,0,5.486,19.385Zm0,2.195h4.633a.61.61,0,1,0,0-1.219H5.486a.783.783,0,0,0-.61.61A.653.653,0,0,0,5.486,21.58Zm24.628.732a2.195,2.195,0,1,0-2.195-2.195A2.112,2.112,0,0,0,30.114,22.311Z" transform="translate(-2047 2456.698)"/>
</svg>
