<svg xmlns="http://www.w3.org/2000/svg" viewBox="1618.6 -1920.042 33.4 26.474">
  <path fill="#fff" d="M8.582,0V12.406H0v.9H6.468L4.6,19.868a.454.454,0,0,0,.873.247l1.939-6.805h3.553a.384.384,0,0,0,.042.012.57.57,0,0,1,.1.054l.072.054a.367.367,0,0,1,.072.1.314.314,0,0,1,.03.151.883.883,0,0,1-.048.265v.006h0c-.12.367-.373,1.144-.675,2.1-.789,2.445-1.933,6.065-2.276,7.143H0v.9H8.943l.1-.313s.012-.03.03-.09c.03-.1.09-.283.169-.524l1.494,1.494a6.416,6.416,0,0,0,4.354,1.819h6.083a3.024,3.024,0,0,0,.554-.054,4.512,4.512,0,0,0,1.078-.337,4.172,4.172,0,0,0,1.53-1.138,3.28,3.28,0,0,0,.524-.891,3.409,3.409,0,0,0,.163-.626H33.4V0ZM24.065,23.559a2.3,2.3,0,0,1-.476.867A3.625,3.625,0,0,1,21.711,25.5a2.441,2.441,0,0,1-.542.066H15.086a5.493,5.493,0,0,1-3.716-1.554L9.985,22.626l-.44-.44c.271-.849.614-1.945.97-3.059.331-1.042.668-2.1.946-2.975.211-.662.391-1.229.518-1.608h8.9a4.322,4.322,0,0,1-.108.614,2.967,2.967,0,0,1-.283.7,2.712,2.712,0,0,1-.759.843,3.936,3.936,0,0,1-1.463.62,5.569,5.569,0,0,1-1.186.126h-.108l-1.078-1.078a.451.451,0,0,0-.638.638l.151.151,4.577,4.577a5.394,5.394,0,0,0,2.806,1.5,8.2,8.2,0,0,0,1.325.157A1.726,1.726,0,0,1,24.065,23.559Zm8.425-1.036H25.053v-.03H24.6a7.124,7.124,0,0,1-2.144-.283,4.524,4.524,0,0,1-.958-.428,4.425,4.425,0,0,1-.885-.693L17.826,18.3c.126-.012.265-.036.4-.06a5.645,5.645,0,0,0,1.162-.337,4.452,4.452,0,0,0,.885-.494,3.556,3.556,0,0,0,1.09-1.289,4.493,4.493,0,0,0,.434-2.03v-.452H12.177a1.26,1.26,0,0,0-.048-.307,1.2,1.2,0,0,0-.259-.476,1.677,1.677,0,0,0-.253-.223,1.454,1.454,0,0,0-.337-.169,1,1,0,0,0-.169-.048l-.048-.012H9.479V.9h7.685v9.3a.452.452,0,0,0,.9,0V.9H23.24v10.81a.452.452,0,1,0,.9,0V.9h8.347Zm-18.91.3h-.512a.452.452,0,0,0,0,.9h.512a.452.452,0,1,0,0-.9Zm1.686,0h-.512a.452.452,0,1,0,0,.9h.512a.452.452,0,0,0,0-.9Zm1.807,0h-.512a.452.452,0,0,0,0,.9h.512a.452.452,0,1,0,0-.9Z" transform="translate(1618.6 -1920.042)"/>
</svg>
