<svg xmlns="http://www.w3.org/2000/svg" xmlns:xlink="http://www.w3.org/1999/xlink" viewBox="-765.576 1203.564 35.576 28.199">
  <defs>
    <style>
      .cls-1 {
        fill: none;
      }

      .cls-2 {
        clip-path: url(#clip-path);
      }

      .cls-3 {
        fill: #f8d199;
      }

      .cls-4 {
        fill: #fff;
      }

      .cls-5 {
        fill: #3a3a6f;
      }
    </style>
    <clipPath id="clip-path">
      <rect class="cls-1" width="35.576" height="28.199"/>
    </clipPath>
  </defs>
  <g id="Repeat_Grid_156" data-name="Repeat Grid 156" class="cls-2" transform="translate(-765.576 1203.564)">
    <g id="Group_600" data-name="Group 600">
      <path id="Path_202" data-name="Path 202" class="cls-3" d="M176.274,33.483V9.8H151V22.764h1.918l.731,1.321H164.1v1.328l-1.982,2.444-2.778.8,3.964,4.17,3.31,1.187Z" transform="translate(-141.314 -9.171)"/>
      <rect id="Rectangle_249" data-name="Rectangle 249" class="cls-4" width="6.543" height="14.235" transform="translate(18.795 0.609)"/>
      <path id="Path_203" data-name="Path 203" class="cls-5" d="M9.141,0V13.214H0v.962H6.889L4.894,21.162a.483.483,0,1,0,.93.263L7.89,14.177h3.785a.409.409,0,0,0,.045.013.607.607,0,0,1,.109.058l.077.058a.391.391,0,0,1,.077.1.334.334,0,0,1,.032.16.94.94,0,0,1-.051.282v.006h0c-.128.391-.4,1.219-.718,2.232-.84,2.6-2.059,6.46-2.425,7.608H0v.962H9.526l.109-.334s.013-.032.032-.1c.032-.109.1-.3.18-.558l1.591,1.591A6.834,6.834,0,0,0,16.075,28.2h6.479a3.221,3.221,0,0,0,.59-.058,4.806,4.806,0,0,0,1.148-.359,4.444,4.444,0,0,0,1.629-1.212,3.493,3.493,0,0,0,.558-.949,3.631,3.631,0,0,0,.173-.667h8.923V0ZM25.633,25.094a2.453,2.453,0,0,1-.507.924,3.861,3.861,0,0,1-2,1.142,2.6,2.6,0,0,1-.577.071H16.069a5.851,5.851,0,0,1-3.958-1.655L10.636,24.1l-.468-.468c.289-.9.654-2.072,1.033-3.259.353-1.11.712-2.232,1.007-3.169.225-.706.417-1.309.552-1.713h9.475a4.6,4.6,0,0,1-.115.654,3.161,3.161,0,0,1-.3.744,2.888,2.888,0,0,1-.808.9,4.193,4.193,0,0,1-1.559.661,5.932,5.932,0,0,1-1.264.135H18.07l-1.148-1.148a.481.481,0,0,0-.68.68l.16.16,4.875,4.875a5.745,5.745,0,0,0,2.989,1.6,8.734,8.734,0,0,0,1.411.167A1.838,1.838,0,0,1,25.633,25.094Zm8.974-1.1H26.685v-.032H26.2a7.588,7.588,0,0,1-2.284-.3A4.818,4.818,0,0,1,22.9,23.2a4.713,4.713,0,0,1-.943-.738l-2.97-2.97c.135-.013.282-.038.43-.064a6.013,6.013,0,0,0,1.238-.359,4.742,4.742,0,0,0,.943-.526,3.788,3.788,0,0,0,1.161-1.373,4.786,4.786,0,0,0,.462-2.162v-.481H12.971a1.342,1.342,0,0,0-.051-.327,1.281,1.281,0,0,0-.276-.507,1.787,1.787,0,0,0-.269-.237,1.549,1.549,0,0,0-.359-.18,1.07,1.07,0,0,0-.18-.051l-.051-.013H10.1V.962h8.185v9.911a.481.481,0,0,0,.962,0V.962h5.51V12.477a.481.481,0,1,0,.962,0V.962h8.891Zm-20.142.321H13.92a.481.481,0,1,0,0,.962h.545a.481.481,0,1,0,0-.962Zm1.8,0h-.545a.481.481,0,0,0,0,.962h.545a.481.481,0,1,0,0-.962Zm1.924,0h-.545a.481.481,0,0,0,0,.962h.545a.481.481,0,0,0,0-.962Z"/>
    </g>
  </g>
</svg>
