<svg xmlns="http://www.w3.org/2000/svg" viewBox="-2050 1460 90 44">
  <defs>
    <style>
      .cls-1 {
        fill: #fff;
      }

      .cls-2 {
        fill: #3f3f42;
      }

      .cls-10, .cls-11, .cls-12, .cls-13, .cls-14, .cls-15, .cls-16, .cls-17, .cls-18, .cls-19, .cls-2, .cls-20, .cls-21, .cls-22, .cls-23, .cls-24, .cls-25, .cls-26, .cls-27, .cls-28, .cls-29, .cls-3, .cls-30, .cls-31, .cls-32, .cls-33, .cls-34, .cls-35, .cls-36, .cls-4, .cls-5, .cls-6, .cls-7, .cls-8, .cls-9 {
        fill-rule: evenodd;
      }

      .cls-3 {
        fill: #dc0032;
      }

      .cls-4 {
        fill: #db0032;
      }

      .cls-5 {
        fill: #da0032;
      }

      .cls-6 {
        fill: #d90032;
      }

      .cls-7 {
        fill: #d80032;
      }

      .cls-8 {
        fill: #d70032;
      }

      .cls-9 {
        fill: #d60032;
      }

      .cls-10 {
        fill: #d50032;
      }

      .cls-11 {
        fill: #d40032;
      }

      .cls-12 {
        fill: #d30032;
      }

      .cls-13 {
        fill: #d20032;
      }

      .cls-14 {
        fill: #d10032;
      }

      .cls-15 {
        fill: #d00032;
      }

      .cls-16 {
        fill: #cf0032;
      }

      .cls-17 {
        fill: #ce0032;
      }

      .cls-18 {
        fill: #cd0032;
      }

      .cls-19 {
        fill: #cc0032;
      }

      .cls-20 {
        fill: #cb0032;
      }

      .cls-21 {
        fill: #ca0032;
      }

      .cls-22 {
        fill: #c90032;
      }

      .cls-23 {
        fill: #c80033;
      }

      .cls-24 {
        fill: #c70033;
      }

      .cls-25 {
        fill: #c60033;
      }

      .cls-26 {
        fill: #c50033;
      }

      .cls-27 {
        fill: #c40033;
      }

      .cls-28 {
        fill: #c30033;
      }

      .cls-29 {
        fill: #c20033;
      }

      .cls-30 {
        fill: #c10033;
      }

      .cls-31 {
        fill: #c00033;
      }

      .cls-32 {
        fill: #bf0033;
      }

      .cls-33 {
        fill: #be0033;
      }

      .cls-34 {
        fill: #bd0033;
      }

      .cls-35 {
        fill: #bc0033;
      }

      .cls-36 {
        fill: #b03;
      }
    </style>
  </defs>
  <g id="Group_505" data-name="Group 505" transform="translate(-2170 446)">
    <rect id="Rectangle_127" data-name="Rectangle 127" class="cls-1" width="90" height="44" rx="4" transform="translate(120 1014)"/>
    <g id="DPD_logo__2015_" data-name="DPD_logo_(2015)" transform="translate(135.557 1023.55)">
      <path id="path7" class="cls-2" d="M33.225,18.077a14.153,14.153,0,0,1-3.548.41c-3.017,0-5-1.569-5-4.441a4.276,4.276,0,0,1,4.562-4.49,4.1,4.1,0,0,1,1.641.266V5.863h2.341Zm-2.341-6.228a3.527,3.527,0,0,0-1.448-.266,2.2,2.2,0,0,0-2.365,2.39,2.389,2.389,0,0,0,2.679,2.534,4.9,4.9,0,0,0,1.135-.1Zm21.58,6.228a14.215,14.215,0,0,1-3.572.41c-2.993,0-5-1.569-5-4.441a4.276,4.276,0,0,1,4.562-4.49,4.03,4.03,0,0,1,1.641.266V5.863h2.366ZM50.1,11.849a3.406,3.406,0,0,0-1.424-.266,2.207,2.207,0,0,0-2.39,2.39,2.408,2.408,0,0,0,2.7,2.534,4.708,4.708,0,0,0,1.11-.1Zm-13.18,0a3.789,3.789,0,0,1,1.4-.217,2.2,2.2,0,0,1,2.438,2.293,2.376,2.376,0,0,1-2.583,2.559v2h.121c3.041,0,4.852-1.666,4.852-4.635,0-2.7-1.931-4.3-4.779-4.3a10.617,10.617,0,0,0-3.814.724V21.746h2.366Zm0,0" transform="translate(3.465 0.823)"/>
      <path id="path9" class="cls-3" d="M17.611,4.487h0Z" transform="translate(2.472 0.63)"/>
      <path id="path11" class="cls-3" d="M17.1,4.212l.386.434.217-.121Z" transform="translate(2.401 0.591)"/>
      <path id="path13" class="cls-3" d="M16.595,3.937l.748.869.266-.145-.29-.338-.724-.386Z" transform="translate(2.33 0.553)"/>
      <path id="path15" class="cls-3" d="M16.065,3.662l1.135,1.3.265-.145-.652-.772Z" transform="translate(2.256 0.514)"/>
      <path id="path17" class="cls-3" d="M15.557,3.387l1.5,1.738.266-.145L16.282,3.773ZM18.43,6.452l-.169.1.169.193v-.29Z" transform="translate(2.184 0.475)"/>
      <path id="path19" class="cls-3" d="M15.049,3.111l1.859,2.172.266-.145L15.774,3.5ZM18.4,6.539l-.266.169.362.434V6.684l-.1-.145Z" transform="translate(2.113 0.437)"/>
      <path id="path21" class="cls-3" d="M14.52,2.836l2.245,2.607.29-.145L15.269,3.223l-.748-.386ZM18.262,6.7,18,6.867l.579.676V7.085L18.262,6.7Z" transform="translate(2.039 0.398)"/>
      <path id="path23" class="cls-3" d="M14.012,2.561,16.643,5.6l.266-.145-2.172-2.51-.724-.386Zm4.1,4.321-.266.145.8.941V7.509l-.531-.628Z" transform="translate(1.967 0.36)"/>
      <path id="path25" class="cls-3" d="M13.5,2.286,16.5,5.762l.266-.145L14.228,2.672,13.5,2.286ZM17.97,7.041l-.266.145,1.014,1.183V7.91l-.748-.869Z" transform="translate(1.896 0.321)"/>
      <path id="path27" class="cls-3" d="M12.975,2.011l3.379,3.91.266-.145L13.723,2.4l-.748-.386ZM17.827,7.2l-.265.145L18.792,8.77V8.311Z" transform="translate(1.822 0.282)"/>
      <path id="path29" class="cls-3" d="M12.467,1.736,16.208,6.1l.266-.169L13.191,2.122ZM17.681,7.36l-.266.145,1.448,1.69V8.736L17.681,7.36Z" transform="translate(1.75 0.244)"/>
      <path id="path31" class="cls-3" d="M11.938,1.46l4.128,4.8.266-.169L12.686,1.847Zm5.624,6.059-.29.145L18.938,9.6V9.136Z" transform="translate(1.676 0.205)"/>
      <path id="path33" class="cls-3" d="M11.43,1.185l4.49,5.238.29-.169L12.178,1.572Zm5.986,6.493-.266.145,1.859,2.2V9.537L17.416,7.678Z" transform="translate(1.605 0.166)"/>
      <path id="path35" class="cls-3" d="M10.922.91,15.8,6.583l.266-.169L11.646,1.3,10.922.91ZM17.27,7.838,17,7.983l2.076,2.438V9.962L17.27,7.838Z" transform="translate(1.533 0.128)"/>
      <path id="path37" class="cls-3" d="M10.393.614l5.262,6.131.266-.169L11.141,1.024ZM17.127,8l-.266.145,2.293,2.679v-.459Z" transform="translate(1.459 0.086)"/>
      <path id="path39" class="cls-3" d="M9.885.339,15.509,6.9l.266-.145L10.633.749Zm7.1,7.821-.266.145,2.51,2.945v-.483L16.981,8.159Z" transform="translate(1.388 0.048)"/>
      <path id="path41" class="cls-3" d="M9.377.085l5.986,6.976.266-.145L10.1.471,9.377.085Zm7.459,8.231-.266.145L19.3,11.647v-.459Z" transform="translate(1.316 0.012)"/>
      <path id="path43" class="cls-3" d="M9.038,0h0l6.155,7.193.266-.145L9.569.169,9.424.1A.708.708,0,0,0,9.038,0Zm7.628,8.448-.266.145,2.945,3.428v-.459L16.666,8.448Z" transform="translate(1.269)"/>
      <path id="path45" class="cls-3" d="M9.074,0a1.212,1.212,0,0,0-.29.048l6.228,7.266.29-.145L9.146,0H9.074Zm7.435,8.569-.266.145,3.138,3.693v-.483L16.508,8.569Z" transform="translate(1.233)"/>
      <path id="path47" class="cls-3" d="M8.883.021a.8.8,0,0,0-.145.072L8.594.166l6.252,7.266.266-.145L8.883.021Zm7.435,8.666-.266.169,3.355,3.91v-.459Z" transform="translate(1.207 0.003)"/>
      <path id="path49" class="cls-3" d="M8.669.106,8.4.251l6.252,7.29L14.92,7.4,8.669.106ZM16.127,8.8l-.266.169,3.572,4.152v-.459L16.127,8.8Z" transform="translate(1.18 0.015)"/>
      <path id="path51" class="cls-3" d="M8.478.212,8.213.356l6.252,7.29L14.73,7.5,8.478.212ZM15.937,8.9l-.266.169,3.79,4.417v-.459L15.937,8.9Z" transform="translate(1.153 0.03)"/>
      <path id="path53" class="cls-3" d="M8.288.317,8.022.462l6.252,7.29.266-.145L8.288.317Zm7.459,8.69-.266.169,4.007,4.659v-.459Z" transform="translate(1.126 0.045)"/>
      <path id="path55" class="cls-3" d="M8.1.423,7.832.568l6.252,7.29.265-.145L8.1.423Zm7.459,8.69-.266.169,4.224,4.9v-.459l-3.959-4.61Z" transform="translate(1.1 0.059)"/>
      <path id="path57" class="cls-3" d="M7.907.529,7.641.674l6.252,7.29.265-.145Zm7.483,8.69-.266.169,4.417,5.166v-.459Z" transform="translate(1.073 0.074)"/>
      <path id="path59" class="cls-3" d="M7.716.614,7.451.783l6.276,7.29.266-.145ZM15.2,9.352l-.266.145L19.568,14.9v-.459Z" transform="translate(1.046 0.086)"/>
      <path id="path61" class="cls-3" d="M7.526.72,7.26.864l6.276,7.314.266-.145L7.526.72Zm7.483,8.738-.266.145,4.852,5.672v-.483L15.008,9.458Z" transform="translate(1.019 0.101)"/>
      <path id="path63" class="cls-3" d="M7.335.825,7.07.97l6.276,7.338.266-.169Zm7.483,8.738-.266.145,5.069,5.914v-.459Z" transform="translate(0.993 0.116)"/>
      <path id="path65" class="cls-3" d="M7.145.931l-.266.145,6.276,7.338.266-.169Zm7.483,8.738-.266.145,5.286,6.155v-.459L14.627,9.669Z" transform="translate(0.966 0.131)"/>
      <path id="path67" class="cls-3" d="M6.954,1.037l-.266.145L12.965,8.52l.266-.169L6.954,1.037Zm7.483,8.738-.265.145,5.5,6.421v-.483L14.437,9.775Z" transform="translate(0.939 0.146)"/>
      <path id="path69" class="cls-3" d="M6.764,1.143,6.5,1.288l6.276,7.338.266-.169L6.764,1.143Zm7.507,8.738-.266.145,5.7,6.662v-.459L14.271,9.881Z" transform="translate(0.912 0.16)"/>
      <path id="path71" class="cls-3" d="M6.576,1.228l-.29.145,6.324,7.362.266-.169-6.3-7.338ZM14.083,9.99l-.266.145,5.914,6.9V16.58Z" transform="translate(0.883 0.172)"/>
      <path id="path73" class="cls-3" d="M6.386,1.333l-.29.145,6.348,7.386a.188.188,0,0,1,.1-.1l.145-.1-6.3-7.338ZM13.893,10.1l-.266.145,6.083,7.1a.7.7,0,0,0,.048-.217v-.193L13.893,10.1Z" transform="translate(0.856 0.187)"/>
      <path id="path75" class="cls-3" d="M6.2,1.439l-.29.145L12.4,9.139v-.1a.51.51,0,0,1,.1-.241ZM13.7,10.2l-.193.121c-.024,0-.048.024-.072.024l6.179,7.217a.816.816,0,0,0,.145-.29Z" transform="translate(0.829 0.202)"/>
      <path id="path77" class="cls-3" d="M6,1.545l-.29.145,6.71,7.821V9.028L6,1.545Zm7.048,8.666,6.421,7.507a1.843,1.843,0,0,0,.217-.217l-6.179-7.193a.412.412,0,0,1-.338,0Z" transform="translate(0.802 0.217)"/>
      <path id="path79" class="cls-3" d="M5.814,1.651l-.29.145L19.283,17.824l.193-.1.072-.072-6.324-7.362H13.2l-.555-.338c-.048-.024-.072-.072-.121-.121h0a.877.877,0,0,1-.072-.169V9.4L5.814,1.651Z" transform="translate(0.776 0.232)"/>
      <path id="path81" class="cls-3" d="M5.624,1.757l-.29.145L19.093,17.929l.266-.145Z" transform="translate(0.749 0.247)"/>
      <path id="path83" class="cls-3" d="M5.433,1.841l-.29.145L18.926,18.038l.266-.145Z" transform="translate(0.722 0.259)"/>
      <path id="path85" class="cls-3" d="M5.243,1.947l-.29.145L18.736,18.144,19,18Z" transform="translate(0.695 0.273)"/>
      <path id="path87" class="cls-3" d="M5.052,2.053l-.29.145L18.545,18.25l.266-.145Z" transform="translate(0.669 0.288)"/>
      <path id="path89" class="cls-3" d="M4.837,2.159,4.572,2.3,18.355,18.38l.266-.169Z" transform="translate(0.642 0.303)"/>
      <path id="path91" class="cls-3" d="M4.647,2.265l-.266.145L18.164,18.486l.266-.169Z" transform="translate(0.615 0.318)"/>
      <path id="path93" class="cls-3" d="M4.456,2.371l-.266.145L18,18.592l.266-.169Z" transform="translate(0.588 0.333)"/>
      <path id="path95" class="cls-3" d="M4.266,2.455,4,2.6,17.808,18.7l.266-.169Z" transform="translate(0.562 0.345)"/>
      <path id="path97" class="cls-3" d="M4.075,2.561l-.266.145,13.807,16.1.266-.145Z" transform="translate(0.535 0.36)"/>
      <path id="path99" class="cls-3" d="M3.885,2.667l-.266.145,6.71,7.821.217.145a.358.358,0,0,1,.193.29v.024l6.686,7.821.266-.145Z" transform="translate(0.508 0.374)"/>
      <path id="path101" class="cls-3" d="M3.694,2.773l-.266.145,6.3,7.362.8.434Zm7.048,8.207c0,.024.024.048.024.072v.41l6.469,7.555.266-.145L10.743,10.98Z" transform="translate(0.481 0.389)"/>
      <path id="path103" class="cls-3" d="M3.5,2.879l-.266.145L9.128,9.9l.8.434L3.5,2.879Zm7.29,8.473v.459l6.276,7.314.266-.145Z" transform="translate(0.455 0.404)"/>
      <path id="path105" class="cls-3" d="M3.313,2.984l-.266.145,5.5,6.4.772.434ZM10.82,11.7v.483l6.059,7.048.266-.145Z" transform="translate(0.428 0.419)"/>
      <path id="path107" class="cls-3" d="M3.123,3.069l-.266.145L7.951,9.152l.772.459Zm7.724,9v.459l5.841,6.807.266-.145Z" transform="translate(0.401 0.431)"/>
      <path id="path109" class="cls-3" d="M2.932,3.175l-.266.145L7.35,8.775l.772.459L2.932,3.175Zm7.941,9.245v.459L16.5,19.444l.266-.145Z" transform="translate(0.374 0.446)"/>
      <path id="path111" class="cls-3" d="M2.742,3.281l-.266.145,4.272,5,.772.434ZM10.9,12.767v.483l5.407,6.324.266-.169L10.9,12.767Z" transform="translate(0.348 0.461)"/>
      <path id="path113" class="cls-3" d="M2.552,3.387l-.266.145L6.148,8.045l.772.434L2.552,3.387Zm8.376,9.752V13.6l5.214,6.083.266-.169-5.479-6.372Z" transform="translate(0.321 0.475)"/>
      <path id="path115" class="cls-3" d="M2.361,3.492,2.1,3.637,5.547,7.668l.8.434L2.361,3.492Zm8.593,9.993v.459l5,5.841.266-.169-5.262-6.131Z" transform="translate(0.294 0.49)"/>
      <path id="path117" class="cls-4" d="M2.171,3.6,1.9,3.743,4.946,7.291l.8.459L2.171,3.6Zm6.324,7.821.628.724v-.266a.2.2,0,0,0-.1-.145Zm2.486,2.414v.483l4.779,5.576.266-.169Z" transform="translate(0.267 0.505)"/>
      <path id="path119" class="cls-3" d="M1.98,3.683l-.266.145,2.631,3.09.8.459Zm5.914,7.362,1.255,1.448v-.459L8.69,11.5l-.8-.459Zm3.114,3.162v.459L15.57,20l.266-.145-4.828-5.648Z" transform="translate(0.241 0.517)"/>
      <path id="path121" class="cls-3" d="M1.79,3.789l-.266.145L3.769,6.565,4.541,7,1.79,3.789Zm5.5,6.9,1.883,2.172v-.459L8.09,11.127l-.8-.434Zm3.741,3.862v.459l4.345,5.093.266-.145-4.61-5.407Z" transform="translate(0.214 0.532)"/>
      <path id="path123" class="cls-3" d="M1.6,3.895l-.266.145L3.168,6.188l.772.434L1.6,3.895Zm5.117,6.421,2.486,2.9v-.459l-1.714-2-.772-.434Zm4.345,4.61v.459l4.152,4.828.266-.145Z" transform="translate(0.187 0.547)"/>
      <path id="path125" class="cls-3" d="M1.409,4l-.266.145L2.567,5.811l.772.434L1.409,4ZM6.115,9.938l3.114,3.621V13.1L6.888,10.4Zm4.972,5.335v.459l3.935,4.586.265-.145-4.2-4.9Z" transform="translate(0.16 0.562)"/>
      <path id="path127" class="cls-3" d="M1.218,4.106l-.266.145L1.966,5.434l.772.459Zm4.3,5.455,3.741,4.369v-.459L6.287,10.02Zm5.6,6.059v.459l3.717,4.345.265-.145Z" transform="translate(0.134 0.577)"/>
      <path id="path129" class="cls-3" d="M1.028,4.212l-.266.145.6.7.8.459-1.134-1.3Zm3.886,5,4.369,5.069v-.459l-3.6-4.176Zm6.228,6.783v.459l3.5,4.079.266-.145-3.766-4.393Z" transform="translate(0.107 0.591)"/>
      <path id="path131" class="cls-3" d="M.84,4.3l-.29.145.217.266.8.434L.84,4.3ZM4.316,8.835l5,5.817v-.483l-4.2-4.9-.8-.434Zm6.855,7.507V16.8l3.283,3.862.266-.169-3.548-4.152Z" transform="translate(0.077 0.603)"/>
      <path id="path133" class="cls-3" d="M.635,4.4l-.169.1.483.266L.635,4.4ZM3.7,8.458,9.324,15v-.459L4.5,8.916l-.8-.459Zm7.483,8.231v.483l3.09,3.6.266-.169Z" transform="translate(0.065 0.618)"/>
      <path id="path135" class="cls-3" d="M2.773,7.641,9,14.907v-.459L3.545,8.1Zm8.086,8.979v.459l2.872,3.355L14,20.265Z" transform="translate(0.389 1.073)"/>
      <path id="path137" class="cls-3" d="M2.222,7.345l6.855,7.99v-.483L2.995,7.779Zm8.714,9.679v.459L13.592,20.6l.266-.169Z" transform="translate(0.312 1.031)"/>
      <path id="path139" class="cls-3" d="M1.672,7.027l7.483,8.714v-.459L2.445,7.462l-.772-.434Zm9.341,10.4v.483l2.438,2.848.266-.145-2.7-3.186Z" transform="translate(0.235 0.987)"/>
      <path id="path141" class="cls-4" d="M1.122,6.71l8.11,9.438v-.459L1.894,7.168Zm9.969,11.152v.459l2.221,2.607.266-.145Z" transform="translate(0.157 0.942)"/>
      <path id="path143" class="cls-5" d="M.571,6.392,9.31,16.579V16.12L1.344,6.851Zm10.6,11.876v.459L13.2,21.092l.266-.145Z" transform="translate(0.08 0.897)"/>
      <path id="path145" class="cls-6" d="M.021,6.1,9.387,16.982v-.459L.818,6.53.021,6.1ZM11.245,18.672v.483l1.81,2.1.266-.145-2.076-2.438Z" transform="translate(0.003 0.856)"/>
      <path id="path147" class="cls-7" d="M0,6.075v.338L9.39,17.347v-.459L.193,6.171ZM11.248,19.061v.29a.184.184,0,0,1-.048.121l1.641,1.907.266-.145-1.859-2.172Z" transform="translate(0 0.853)"/>
      <path id="path149" class="cls-8" d="M0,6.286v.483L9.39,17.7v-.459ZM11.224,19.393a.32.32,0,0,1-.169.217l-.024.024,1.593,1.835.266-.145-1.666-1.931Z" transform="translate(0 0.883)"/>
      <path id="path151" class="cls-9" d="M0,6.625v.459L9.39,18.018V17.56ZM11.079,19.539c0,.024,0,.024-.024.024l-.241.145,1.593,1.835.266-.145-1.593-1.859Z" transform="translate(0 0.93)"/>
      <path id="path153" class="cls-10" d="M0,6.943V7.4L9.39,18.336v-.459ZM10.886,19.615l-.29.169,1.617,1.859.266-.169Z" transform="translate(0 0.975)"/>
      <path id="path155" class="cls-11" d="M0,7.281V7.74L9.39,18.674v-.459ZM10.669,19.688l-.169.1a.306.306,0,0,1-.145.024L12,21.716l.266-.169-1.593-1.859Z" transform="translate(0 1.022)"/>
      <path id="path157" class="cls-12" d="M0,7.6v.459L9.39,18.992v-.459ZM9.921,19.644l1.859,2.148.266-.169-1.617-1.859c-.024,0-.072.024-.1.024h-.024a.349.349,0,0,1-.169-.048l-.217-.1Z" transform="translate(0 1.067)"/>
      <path id="path159" class="cls-13" d="M0,7.916V8.4L11.562,21.868l.266-.169L10.09,19.672l-.531-.29a.335.335,0,0,1-.169-.29v-.241Z" transform="translate(0 1.111)"/>
      <path id="path161" class="cls-14" d="M0,8.255v.459L11.345,21.941l.266-.145Z" transform="translate(0 1.159)"/>
      <path id="path163" class="cls-15" d="M0,8.572v.459L11.128,22.017l.266-.145Z" transform="translate(0 1.204)"/>
      <path id="path165" class="cls-16" d="M0,8.89v.483L10.935,22.094l.266-.145Z" transform="translate(0 1.248)"/>
      <path id="path167" class="cls-17" d="M0,9.229v.459L10.717,22.167l.265-.145Z" transform="translate(0 1.296)"/>
      <path id="path169" class="cls-18" d="M0,9.546V10L10.476,22.219l.217-.072.072-.048Z" transform="translate(0 1.34)"/>
      <path id="path171" class="cls-19" d="M0,9.864v.483L10.162,22.174h.145a.668.668,0,0,0,.217-.024Z" transform="translate(0 1.385)"/>
      <path id="path173" class="cls-20" d="M0,10.2v.459l9.607,11.2.338.193a.573.573,0,0,0,.29.072Z" transform="translate(0 1.432)"/>
      <path id="path175" class="cls-21" d="M0,10.52v.459L8.979,21.454l.8.459Z" transform="translate(0 1.477)"/>
      <path id="path177" class="cls-22" d="M0,10.858v.459l8.352,9.728.8.459Z" transform="translate(0 1.524)"/>
      <path id="path179" class="cls-23" d="M0,11.176v.459l7.724,9L8.5,21.1Z" transform="translate(0 1.569)"/>
      <path id="path181" class="cls-24" d="M0,11.493v.459l7.1,8.279.772.459Z" transform="translate(0 1.614)"/>
      <path id="path183" class="cls-25" d="M0,11.832v.459L6.445,19.8l.8.459Z" transform="translate(0 1.661)"/>
      <path id="path185" class="cls-26" d="M0,12.15v.459l5.817,6.783.8.459Z" transform="translate(0 1.706)"/>
      <path id="path187" class="cls-27" d="M0,12.467v.459l5.19,6.059.8.459L0,12.467Z" transform="translate(0 1.75)"/>
      <path id="path189" class="cls-28" d="M0,12.806v.459l4.562,5.31.8.459Z" transform="translate(0 1.798)"/>
      <path id="path191" class="cls-29" d="M0,13.123v.459l3.935,4.586.8.459Z" transform="translate(0 1.842)"/>
      <path id="path193" class="cls-30" d="M0,13.441v.483l3.307,3.838.772.459Z" transform="translate(0 1.887)"/>
      <path id="path195" class="cls-31" d="M0,13.779v.459l2.655,3.114.8.459Z" transform="translate(0 1.935)"/>
      <path id="path197" class="cls-32" d="M0,14.1v.459l2.028,2.39.8.434Z" transform="translate(0 1.979)"/>
      <path id="path199" class="cls-33" d="M0,14.414V14.9l1.4,1.617.8.459Z" transform="translate(0 2.024)"/>
      <path id="path201" class="cls-34" d="M0,14.753v.459l.772.893.8.459Z" transform="translate(0 2.071)"/>
      <path id="path203" class="cls-35" d="M0,15.071v.121a.857.857,0,0,0,.362.652l.579.314L0,15.071Z" transform="translate(0 2.116)"/>
      <path id="path205" class="cls-36" d="M.127,15.557c.048.048.072.1.121.121Z" transform="translate(0.018 2.184)"/>
    </g>
  </g>
</svg>
