<svg width="96" height="24" viewBox="0 0 96 24" fill="none" xmlns="http://www.w3.org/2000/svg">
<path d="M58.2131 6.80889C56.6756 6.80889 55.4681 7.1385 54.2597 7.79723C54.2597 4.28251 54.2597 1.09789 54.3702 0L47.0107 1.31747V1.97669L47.7795 2.08624C48.7668 2.30582 49.0979 2.85452 49.3155 4.17297C49.5371 6.80889 49.4261 20.8678 49.3155 23.1746C51.2927 23.6142 53.3799 23.9438 55.4671 23.9438C61.2887 23.9438 64.8029 20.3191 64.8029 14.6076C64.8029 10.1045 61.9474 6.80889 58.2131 6.80889ZM55.6867 22.7349C55.2471 22.7349 54.6974 22.7349 54.3688 22.6259C54.2582 21.0883 54.1492 14.6076 54.2582 8.89659C54.9175 8.67653 55.3561 8.56698 55.9063 8.56698C58.3241 8.56698 59.6421 11.4225 59.6421 14.9362C59.6416 19.3307 57.9935 22.7349 55.6867 22.7349ZM19.3312 0.439157H0V1.4275L1.09838 1.53705C2.52539 1.75663 3.07556 2.63494 3.29416 4.72167C3.62475 8.67555 3.51423 15.8155 3.29416 19.2192C3.07458 21.3064 2.52588 22.2953 1.09838 22.4038L0 22.6244V23.5027H12.4113V22.6244L11.0933 22.4038C9.66583 22.2948 9.11615 21.3064 8.89706 19.2192C8.78654 17.7907 8.677 15.4839 8.677 12.6289L11.3129 12.7385C12.961 12.7385 13.7288 14.0564 14.0589 15.9231H15.0477V8.12733H14.0589C13.7283 9.99448 12.961 11.312 11.3129 11.312L8.67749 11.4225C8.67749 7.68769 8.78703 4.17346 8.89755 2.08673H12.7414C15.7079 2.08673 17.2454 3.95339 18.3433 7.24902L19.4417 6.91941L19.3312 0.439157Z" fill="#191919"/>
<path d="M25.5916 6.5892C31.0835 6.5892 33.8295 10.324 33.8295 15.2662C33.8295 19.9889 30.7539 23.9442 25.262 23.9442C19.7706 23.9442 17.0247 20.2089 17.0247 15.2662C17.0247 10.5436 20.0997 6.5892 25.5916 6.5892ZM25.262 7.68807C22.8457 7.68807 22.1865 10.9832 22.1865 15.2662C22.1865 19.4397 23.2848 22.8444 25.4821 22.8444C28.0065 22.8444 28.6667 19.5492 28.6667 15.2662C28.6667 11.0928 27.5693 7.68807 25.262 7.68807ZM66.2302 15.3762C66.2302 10.8732 69.0857 6.5892 74.6877 6.5892C79.2993 6.5892 81.497 9.99438 81.497 14.4974H71.282C71.1715 18.5614 73.1487 21.5269 77.1035 21.5269C78.8611 21.5269 79.7394 21.0887 80.8388 20.3194L81.277 20.8681C80.1786 22.4057 77.7622 23.9442 74.6877 23.9442C69.7445 23.9437 66.2302 20.429 66.2302 15.3762ZM71.282 13.2895L76.4443 13.179C76.4443 10.9827 76.1147 7.68758 74.248 7.68758C72.3814 7.68807 71.391 10.7627 71.282 13.2895ZM94.569 7.4685C93.2511 6.91882 91.4939 6.5892 89.5173 6.5892C85.4543 6.5892 82.9265 9.00505 82.9265 11.861C82.9265 14.717 84.7917 15.9249 87.431 16.8038C90.176 17.7911 90.9457 18.5609 90.9457 19.8788C90.9457 21.1968 89.9569 22.4047 88.1993 22.4047C86.1131 22.4047 84.5745 21.1973 83.3666 17.9016L82.5974 18.1222L82.7079 22.9549C84.0258 23.5036 86.4417 23.9437 88.5294 23.9437C92.8134 23.9437 95.5598 21.746 95.5598 18.3418C95.5598 16.035 94.3509 14.7175 91.4954 13.6182C88.4194 12.4107 87.322 11.642 87.322 10.2135C87.322 8.78597 88.3123 7.79713 89.6302 7.79713C91.6059 7.79713 92.9239 9.00554 93.9142 11.9711L94.6825 11.7515L94.569 7.4685ZM48.1079 7.02885C46.2413 5.93145 42.9456 6.47966 41.1885 10.434L41.2976 6.58969L33.9395 8.0172V8.67642L34.7083 8.78596C35.6976 8.89649 36.1358 9.44519 36.2463 10.8732C36.4659 13.5091 36.3559 18.1227 36.2463 20.429C36.1358 21.746 35.6976 22.4047 34.7083 22.5152L33.9395 22.6258V23.5041H44.1536V22.6258L42.8356 22.5152C41.7377 22.4047 41.4081 21.746 41.2976 20.429C41.078 18.3418 41.078 14.1683 41.1885 11.5319C41.7372 10.7627 44.1536 10.1044 46.3503 11.5319L48.1079 7.02885Z" fill="#191919"/>
</svg>
