<svg xmlns="http://www.w3.org/2000/svg" viewBox="-2046.293 2397.939 53.057 21.439">
  <defs>
    <style>
      .cls-1 {
        fill: #78c257;
      }

      .cls-2 {
        fill: #757575;
      }
    </style>
  </defs>
  <g id="android-pay-logo" transform="translate(-2046.293 2397.939)">
    <g id="Group_183" data-name="Group 183" transform="translate(0 0)">
      <path id="Path_60" data-name="Path 60" class="cls-1" d="M2.615,8.251h0v5.5h0a1.308,1.308,0,0,1-2.615,0H0v-5.5H0a1.308,1.308,0,0,1,2.615,0Zm15.4,0a1.308,1.308,0,0,0-2.615,0h0v5.5h0a1.308,1.308,0,0,0,2.615,0h0v-5.5ZM3.1,6.715c0-.059-.007-.117-.007-.182A4.88,4.88,0,0,1,3.24,5.369a5.392,5.392,0,0,1,2.8-3.4L5.14.294A.206.206,0,0,1,5.224.008a.206.206,0,0,1,.286.085l.917,1.7a6.615,6.615,0,0,1,5.159-.007L12.5.092a.208.208,0,0,1,.286-.085.208.208,0,0,1,.085.286l-.9,1.666a5.345,5.345,0,0,1,2.863,3.591,3.68,3.68,0,0,1,.078.527v.631H3.1Zm8.048-2.654a.56.56,0,1,0,.56-.56A.559.559,0,0,0,11.151,4.061Zm-5.394,0a.56.56,0,1,0,.56-.56A.568.568,0,0,0,5.758,4.061Zm-2.6,3.11H3.09V15.8A1.312,1.312,0,0,0,4.4,17.106H5.524v3.006h0a1.308,1.308,0,1,0,2.615,0h0V17.106H9.9v3.006h0a1.308,1.308,0,1,0,2.615,0h0V17.106h1.1A1.312,1.312,0,0,0,14.925,15.8V7.171H3.155Z" transform="translate(0 0.02)"/>
      <path id="Path_61" data-name="Path 61" class="cls-2" d="M330.817,105.265a3.661,3.661,0,0,1-3.116-1.633.57.57,0,0,1-.1-.332V99.7a.641.641,0,0,1,.111-.332,3.745,3.745,0,1,1,3.1,5.895Zm-3.214,4.261v-4.151a4.656,4.656,0,0,0,3.325,1.353,5.216,5.216,0,0,0,0-10.429,4.7,4.7,0,0,0-3.325,1.34V96.5h-1.5v13.025Zm14.691-4.268a3.751,3.751,0,0,1,0-7.5,3.606,3.606,0,0,1,3.116,1.633.623.623,0,0,1,.1.332v3.559a.6.6,0,0,1-.111.338,3.74,3.74,0,0,1-3.1,1.64Zm4.717,1.262V96.5h-1.5v1.145a4.645,4.645,0,0,0-3.325-1.34,5.209,5.209,0,0,0,0,10.416,4.7,4.7,0,0,0,3.325-1.34v1.145h1.5Zm10.93-10.032h-1.692l-3.676,8.809h.748l-3.669-8.8h-1.744l4.157,9.649-.332.748a1.887,1.887,0,0,1-1.744,1.191h-.553V109.6h.534a3.451,3.451,0,0,0,3.305-2.323l4.665-10.794Z" transform="translate(-304.884 -90.033)"/>
    </g>
  </g>
</svg>
