<svg xmlns="http://www.w3.org/2000/svg" viewBox="-2043.3 2508.937 30.439 40.617">
  <g id="Group_662" data-name="Group 662" transform="translate(-2043.3 2508.937)">
    <g id="Group_295" data-name="Group 295">
      <g id="Group_294" data-name="Group 294">
        <path id="Path_133" data-name="Path 133" d="M29.844,9.535a.6.6,0,0,0-.595.595V39.379a.037.037,0,0,1-.04.04H1.23a.037.037,0,0,1-.04-.04V1.222a.037.037,0,0,1,.04-.04H22.252V6.949a1.231,1.231,0,0,0,1.23,1.23h6.362a.588.588,0,0,0,.547-.365.6.6,0,0,0-.127-.651L23.275.175,23.259.159h0a.593.593,0,0,0-.4-.159H1.23A1.236,1.236,0,0,0,0,1.23V39.387a1.236,1.236,0,0,0,1.23,1.23h27.98a1.231,1.231,0,0,0,1.23-1.23V10.13A.594.594,0,0,0,29.844,9.535Zm-6.394-7.5L28.416,7H23.49a.037.037,0,0,1-.04-.04Z"/>
      </g>
    </g>
    <g id="Group_297" data-name="Group 297" transform="translate(3.816 15.501)">
      <g id="Group_296" data-name="Group 296">
        <path id="Path_134" data-name="Path 134" d="M70.907,195.995a.6.6,0,0,0-.595-.595H48.695a.6.6,0,0,0-.595.595v7.758a.6.6,0,0,0,.595.595H70.312a.6.6,0,0,0,.595-.595v-7.758Zm-11.36,7.163H49.29v-2.626H59.547Zm0-3.816H49.29v-2.626H59.547Zm5.085,3.816h-3.9v-2.626h3.9Zm0-3.816h-3.9v-2.626h3.9Zm5.085,3.816h-3.9v-2.626h3.9Zm0-3.816h-3.9v-2.626h3.9Z" transform="translate(-48.1 -195.4)"/>
      </g>
    </g>
    <g id="Group_299" data-name="Group 299" transform="translate(19.23 28.614)">
      <g id="Group_298" data-name="Group 298">
        <path id="Path_135" data-name="Path 135" d="M246.176,360.7a3.776,3.776,0,1,0,3.776,3.776A3.78,3.78,0,0,0,246.176,360.7Zm0,6.362a2.586,2.586,0,1,1,2.586-2.586A2.587,2.587,0,0,1,246.176,367.062Z" transform="translate(-242.4 -360.7)"/>
      </g>
    </g>
    <g id="Group_301" data-name="Group 301" transform="translate(21.776 31.161)">
      <g id="Group_300" data-name="Group 300">
        <path id="Path_136" data-name="Path 136" d="M275.73,392.8a1.23,1.23,0,1,0,1.23,1.23A1.231,1.231,0,0,0,275.73,392.8Z" transform="translate(-274.5 -392.8)"/>
      </g>
    </g>
    <g id="Group_303" data-name="Group 303" transform="translate(11.598 30.526)">
      <g id="Group_302" data-name="Group 302">
        <path id="Path_137" data-name="Path 137" d="M151.88,384.8h-5.085a.595.595,0,0,0,0,1.19h5.085a.595.595,0,1,0,0-1.19Z" transform="translate(-146.2 -384.8)"/>
      </g>
    </g>
    <g id="Group_305" data-name="Group 305" transform="translate(12.867 33.065)">
      <g id="Group_304" data-name="Group 304">
        <path id="Path_138" data-name="Path 138" d="M166.611,416.8h-3.816a.595.595,0,0,0,0,1.19h3.816a.595.595,0,0,0,0-1.19Z" transform="translate(-162.2 -416.8)"/>
      </g>
    </g>
    <g id="Group_307" data-name="Group 307" transform="translate(9.202 4.45)">
      <g id="Group_306" data-name="Group 306">
        <path id="Path_139" data-name="Path 139" d="M117.864,56.1h-1.269a.595.595,0,0,0,0,1.19h1.269a.595.595,0,1,0,0-1.19Z" transform="translate(-116 -56.1)"/>
      </g>
    </g>
    <g id="Group_309" data-name="Group 309" transform="translate(4.109 4.45)">
      <g id="Group_308" data-name="Group 308">
        <path id="Path_140" data-name="Path 140" d="M54.941,56.1H52.395a.595.595,0,0,0,0,1.19h2.546a.595.595,0,0,0,0-1.19Z" transform="translate(-51.8 -56.1)"/>
      </g>
    </g>
    <g id="Group_311" data-name="Group 311" transform="translate(4.109 6.997)">
      <g id="Group_310" data-name="Group 310">
        <path id="Path_141" data-name="Path 141" d="M60.661,88.2H52.395a.595.595,0,0,0,0,1.19h8.266a.595.595,0,1,0,0-1.19Z" transform="translate(-51.8 -88.2)"/>
      </g>
    </g>
    <g id="Group_313" data-name="Group 313" transform="translate(11.106 9.535)">
      <g id="Group_312" data-name="Group 312">
        <path id="Path_142" data-name="Path 142" d="M141.864,120.2h-1.269a.595.595,0,0,0,0,1.19h1.269a.595.595,0,1,0,0-1.19Z" transform="translate(-140 -120.2)"/>
      </g>
    </g>
    <g id="Group_315" data-name="Group 315" transform="translate(4.109 9.535)">
      <g id="Group_314" data-name="Group 314">
        <path id="Path_143" data-name="Path 143" d="M56.845,120.2h-4.45a.595.595,0,0,0,0,1.19h4.45a.595.595,0,0,0,0-1.19Z" transform="translate(-51.8 -120.2)"/>
      </g>
    </g>
  </g>
</svg>
