<?xml version="1.0" encoding="utf-8"?>
<!-- Generator: Adobe Illustrator 18.0.0, SVG Export Plug-In . SVG Version: 6.00 Build 0)  -->
<!DOCTYPE svg PUBLIC "-//W3C//DTD SVG 1.1//EN" "http://www.w3.org/Graphics/SVG/1.1/DTD/svg11.dtd">
<svg version="1.1" xmlns="http://www.w3.org/2000/svg" xmlns:xlink="http://www.w3.org/1999/xlink" x="0px" y="0px"
	 viewBox="0 0 782 176.8" enable-background="new 0 0 782 176.8" xml:space="preserve">
<g id="BG" display="none">
	<rect x="-174.5" y="-172.1" display="inline" fill="#041E41" width="1131" height="521"/>
</g>
<g id="white_logo">
	<g>
		<g>
			<path fill="#FFFFFF" d="M503.9,122.8c0,1.2,0.9,2.1,2.1,2.1h6.5c1.2,0,2.1-1,2.1-2.1c0,0,0-32.1,0-42.8
				c0-17.6-11.2-22.8-23.7-22.8c-8.6,0-14.5,1-17,1.7c-1.2,0.3-1.7,1.2-1.7,2.1v3.4c0,1.4,1.1,2.2,2.4,2.1c3-0.1,9.1-0.2,16.3-0.2
				c10.4,0,13,5.2,13,15.6c0,1.5-0.8,2.2-2.2,2.2c-2.3,0-9.4,0-9.4,0c-21.6,0-26.7,9-26.7,21c0,13.1,8.1,20.3,20.7,20.3
				C496.4,125.5,502.4,123.4,503.9,122.8z M488.1,117c-6.8,0-12-2.8-12-11.9c0-9.1,7.6-12.4,15.9-12.4h11.9v23.1
				C502.4,116,496,117,488.1,117z"/>
			<path fill="#FFFFFF" d="M353.4,122.8c0,1.2,0.9,2.1,2.1,2.1h6.5c1.2,0,2.1-1,2.1-2.1c0,0,0-32.1,0-42.8
				c0-17.6-11.2-22.8-23.7-22.8c-8.6,0-14.5,1-17,1.7c-1.2,0.3-1.7,1.2-1.7,2.1v3.4c0,1.4,1.1,2.2,2.4,2.1c3-0.1,9.1-0.2,16.3-0.2
				c10.4,0,13,5.2,13,15.6c0,1.5-0.8,2.2-2.2,2.2c-2.3,0-9.4,0-9.4,0c-21.6,0-26.7,9-26.7,21c0,13.1,8.1,20.3,20.7,20.3
				C345.9,125.5,351.9,123.4,353.4,122.8z M337.6,117c-6.8,0-12-2.8-12-11.9c0-9.1,7.6-12.4,15.9-12.4h11.9v23.1
				C351.9,116,345.5,117,337.6,117z"/>
			<path fill="#FFFFFF" d="M120.4,57.3C102.7,57.3,93,68,93,91.6c0,23.2,6.6,33.6,31.4,33.6c7.7,0,12.7-0.7,16-1.4
				c1.8-0.4,2.7-1.1,2.7-2.6v-2.9c0-1.6-0.9-2.5-2.6-2.4c-4.2,0.2-10.5,0.3-14.5,0.3c-16.7,0-21-4.2-21.7-20.3h40.3
				c1.2,0,2.2-1,2.2-2.2v-6.9C146.8,68.7,138.3,57.3,120.4,57.3z M106.5,86.7c-1.2,0-2.1-1.1-2-2.2c1.1-11.5,5.8-17.9,15.7-17.9
				c11.3,0,15.8,8,15.8,20.1H106.5z"/>
			<path fill="#FFFFFF" d="M177.1,57.2c6.4,0,11.3,0.6,15.4,1.4c1.8,0.4,2.7,0.9,2.7,2.6v3c0,1.4-0.9,2.3-2.6,2.3
				c-4.2-0.1-12.3-0.2-16.6-0.2c-8.6,0-11.3,2.5-11.3,6.5c0,5,3.2,7.6,16.5,14.2c11.6,5.8,17.8,12,17.8,21.1
				c0,11.9-8.5,17.3-23.1,17.3c-8.6,0-14.8-0.7-18.5-1.7c-1.6-0.5-1.9-1.2-1.9-3c0,0,0-1.8,0-2.4c0-1.4,1-2.3,2.7-2.2
				c5.1,0.2,13.2,0.5,18.1,0.4c8.1-0.1,11.8-3.4,11.8-8.2c0-4.3-1.9-7.7-12.8-13c-15.2-7.5-21.6-12.1-21.6-22.8
				C153.8,62.5,160.5,57.2,177.1,57.2z"/>
			<path fill="#FFFFFF" d="M728.2,58.1c-1.4,0-32,0-32,0c-17.4,0-27,8.1-27,20.6c0,5.2,1.4,9.5,4.4,12.9c-0.4,0.3-3.7,3.2-3.7,7.6
				c0,5.6,1.9,8.8,8,11.1c-2.9,1.4-9.3,6.4-9.3,16c0,8.6,7.1,19.8,27.6,19.8s28.1-9.6,28.1-19.8c0-8.7-7.8-14.3-15.6-16.4
				c-10.4-2.8-16.7-4.5-23.3-6.2c-4-1.1-6.3-2.4-6.3-4.5c0-1.4,1.1-2.4,1.5-2.7c4,1.7,9.1,2.6,15.6,2.6c19.2,0,27-7.8,27-20.3
				c0-4.6-1.3-8.5-3.8-11.8c1.9-0.4,8.2-1.7,9.2-1.9c1.2-0.3,1.7-1.1,1.7-2.1v-2.7C730.3,59.1,729.5,58.1,728.2,58.1z M705.9,118
				c5.2,1.4,7.9,4.7,8.2,8.3c0.6,6.3-4.8,11.7-17.8,11.7c-13,0-17.3-6.1-18.1-11.1c-1.4-8.2,4.3-13.6,6-14.7
				C690.7,113.9,701.1,116.7,705.9,118z M696.2,90.8c-12.7,0-16.4-4.4-16.4-12c0-7.6,4-12.4,16.4-12.4c12.4,0,16.4,4.8,16.4,12.4
				C712.6,86.4,708.9,90.8,696.2,90.8z"/>
			<path fill="#FFFFFF" d="M591.4,58.1h-6.2c-1.2,0-2.1,0.9-2.1,2.1v62.6c0,1.2,1,2.1,2.1,2.1h6.2c1.2,0,2.1-1,2.1-2.1V60.2
				C593.6,59,592.6,58.1,591.4,58.1z"/>
			<path fill="#FFFFFF" d="M635.7,57.5c-9.2,0-18.2,3.9-18.2,3.9v-1.2c0-1.2-0.9-2.1-2.1-2.1h-6.2c-1.2,0-2.1,0.9-2.1,2.1v62.6
				c0,1.2,0.9,2.1,2.1,2.1h6.2c1.2,0,2.1-0.9,2.1-2.1V69.5c2.2-0.8,7.4-3,15.2-3c9.5,0,14.9,5.1,14.9,13.6v42.6
				c0,1.2,0.9,2.1,2.1,2.1h6.4c1.2,0,2.1-1,2.1-2.1V80C658.3,66.4,649.3,57.5,635.7,57.5z"/>
			<path fill="#FFFFFF" d="M435.1,57.5c-8.6,0-15.3,3.9-18.2,6.1c-3.5-3.9-8.8-6.1-16.1-6.1c-6.3,0-11.8,2.7-14.2,4v-1.4
				c0-1.2-0.9-2.1-2.1-2.1h-6.2c-1.2,0-2.1,0.9-2.1,2.1v62.6c0,1.2,1,2.1,2.1,2.1h6.2c1.2,0,2.1-0.9,2.1-2.1V69.4
				c1.8-0.9,6.5-2.9,12.1-2.9c8.8,0,12.3,4.4,12.3,12.5v43.7c0,1.2,0.9,2.1,2.1,2.1h6.4c1.2,0,2.1-1,2.1-2.1V78.9
				c0-3.4-0.5-6.5-1.4-9.2c2.4-1.4,6.7-3.2,12.6-3.2c8.8,0,12.9,4.4,12.9,12.5v43.7c0,1.2,0.9,2.1,2.1,2.1h6.4c1.2,0,2.1-1,2.1-2.1
				V78.9C456.7,65.4,449.1,57.5,435.1,57.5z"/>
			<path fill="#FFFFFF" d="M524.8,120.7c-0.7-4.1,0.6-8.7,3.2-12l33-41.6h-31.6c-1.2,0-2.1-0.9-2.1-2.1v-4.7c0-1.2,0.9-2.1,2.1-2.1
				h37c3.1,0,4.8,1,5.5,4.3c0.9,4-0.5,8.1-3,11.3l-33.5,42.2h32.6c1.2,0,2.1,0.9,2.1,2.1v4.7c0,1.2-0.9,2.1-2.1,2.1h-37.4
				C527.5,124.8,525.5,124.2,524.8,120.7z"/>
			<path fill="#FFFFFF" d="M269.3,122.8c0,1.2,0.9,2.1,2.1,2.1h6.5c1.2,0,2.1-1,2.1-2.1c0,0,0-32.1,0-42.8
				c0-17.6-11.2-22.8-23.7-22.8c-8.6,0-14.5,1-17,1.7c-1.2,0.3-1.7,1.2-1.7,2.1v3.4c0,1.4,1.1,2.2,2.4,2.1c3-0.1,9.1-0.2,16.3-0.2
				c10.4,0,13,5.2,13,15.6c0,1.5-0.8,2.2-2.2,2.2c-2.3,0-9.4,0-9.4,0c-21.6,0-26.7,9-26.7,21c0,13.1,8.1,20.3,20.7,20.3
				C261.8,125.5,267.8,123.4,269.3,122.8z M253.5,117c-6.8,0-12-2.8-12-11.9c0-9.1,7.6-12.4,15.9-12.4h11.9v23.1
				C267.8,116,261.3,117,253.5,117z"/>
			<path fill="#FFFFFF" d="M85.7,116.8h-4.5c-5.2,0-8-1.8-8-7.1V67.1h11.5c1.2,0,2.1-1,2.1-2.1v-4.7c0-1.2-1-2.1-2.1-2.1
				c0,0-6,0-11.5,0V45.2c0-2-1.5-2.8-3.4-2l-5.1,2.4c-1.2,0.6-2,1.8-2,3.1v9.3h-9.6c-1.3,0-2.1,1-2.1,2.1v2.7c0,0.9,0.5,1.8,1.7,2.1
				c1.2,0.3,9.8,2.1,9.8,2.1h0.2v42.5c0,8.5,3.9,15.2,14.1,15.2c3.9,0,6.8-0.2,8.7-0.4c1.5-0.1,2.2-1,2.2-2.3v-3.4
				C87.8,117.4,86.8,116.8,85.7,116.8z"/>
			<path fill="#FFFFFF" d="M220.2,40.8c0-2-1.5-2.8-3.4-2l-5.1,2.4c-1.2,0.6-2,1.8-2,3.1c0,16.9,0,63.5,0,70.3
				c0,6.8,3.5,10.7,10.5,10.7c2.4,0,3.3-0.5,3.3-1.8c0-0.8,0-2.2,0-2.9c0-0.5-0.4-1-0.9-1.3c-1-0.6-2.4-1.9-2.4-4.7
				C220.2,110.5,220.2,58.6,220.2,40.8z"/>
			<path fill="#FFFFFF" d="M583.1,39.3v7.4c0,1.2,1,2.1,2.1,2.1h6.2c1.2,0,2.1-0.9,2.1-2.1v-11c0-2-1.5-2.8-3.4-2l-5.1,2.4
				C583.9,36.7,583.1,38,583.1,39.3z"/>
		</g>
		<path fill="#FFFFFF" d="M759,0H23C10.3,0,0,10.3,0,23v130.8c0,12.7,10.3,23,23,23h736c12.7,0,23-10.3,23-23V23
			C782,10.3,771.7,0,759,0z M772.3,153.8c0,7.3-6,13.3-13.3,13.3H23c-7.3,0-13.3-6-13.3-13.3V23c0-7.3,6-13.3,13.3-13.3h736
			c7.3,0,13.3,6,13.3,13.3V153.8z"/>
	</g>
</g>
</svg>
