<svg xmlns="http://www.w3.org/2000/svg" viewBox="1699.972 3575 23.995 18.668">
  <defs>
    <style>
      .cls-1 {
        fill: #0099df;
      }

      .cls-2 {
        fill: #6c6bbd;
      }

      .cls-3 {
        fill: #eb001b;
      }

      .cls-4 {
        fill: #231f20;
      }
    </style>
  </defs>
  <g id="Group_216" data-name="Group 216" transform="translate(1699.972 3575)">
    <g id="Group_211" data-name="Group 211" transform="translate(23.144 11.725)">
      <path id="Path_94" data-name="Path 94" class="cls-1" d="M-4.582-2.109V-2.4h-.075l-.087.2-.086-.2h-.075v.288h.053v-.217l.081.187h.055l.081-.188v.217Zm-.476,0v-.239h.1V-2.4h-.245v.049h.1v.239Z" transform="translate(5.207 2.397)"/>
    </g>
    <path id="Path_95" data-name="Path 95" class="cls-2" d="M3578.355,2159.235h-6.49v-11.664h6.49Z" transform="translate(-3563.114 -2145.985)"/>
    <g id="Group_212" data-name="Group 212" transform="translate(0 0)">
      <path id="Path_96" data-name="Path 96" class="cls-3" d="M-67.224-54.391a7.405,7.405,0,0,1,2.833-5.832,7.385,7.385,0,0,0-4.584-1.586,7.417,7.417,0,0,0-7.417,7.418,7.417,7.417,0,0,0,7.417,7.418,7.385,7.385,0,0,0,4.584-1.586,7.405,7.405,0,0,1-2.833-5.832" transform="translate(76.392 61.809)"/>
    </g>
    <g id="Group_213" data-name="Group 213" transform="translate(11.994 0)">
      <path id="Path_97" data-name="Path 97" class="cls-1" d="M-88-54.391a7.417,7.417,0,0,1-7.417,7.418A7.387,7.387,0,0,1-100-48.56a7.4,7.4,0,0,0,2.833-5.832A7.4,7.4,0,0,0-100-60.223a7.387,7.387,0,0,1,4.584-1.586A7.417,7.417,0,0,1-88-54.391" transform="translate(100.001 61.809)"/>
    </g>
    <g id="Group_214" data-name="Group 214" transform="translate(3.917 15.996)">
      <path id="Path_98" data-name="Path 98" class="cls-4" d="M-99.09-4.018a.914.914,0,0,1,.305.054l-.132.4a.694.694,0,0,0-.268-.05c-.28,0-.42.181-.42.506V-2h-.429V-3.969h.424v.239a.581.581,0,0,1,.519-.289m-1.584.441h-.7v.89c0,.2.07.33.284.33a.79.79,0,0,0,.379-.111l.124.366a1,1,0,0,1-.535.153c-.507,0-.684-.272-.684-.73v-.9h-.4v-.391h.4v-.6h.432v.6h.7Zm-5.484.42a.508.508,0,0,1,.523-.478.489.489,0,0,1,.5.478Zm1.467.173a.945.945,0,0,0-.936-1.034.962.962,0,0,0-.98,1.034A.971.971,0,0,0-105.6-1.95a1.2,1.2,0,0,0,.807-.276l-.21-.317a.936.936,0,0,1-.573.206.547.547,0,0,1-.589-.482h1.462c0-.054.008-.107.008-.165m1.883-.482a1.263,1.263,0,0,0-.614-.169c-.235,0-.375.087-.375.231s.148.169.333.193l.2.029c.429.062.688.243.688.589,0,.375-.33.643-.9.643a1.421,1.421,0,0,1-.853-.256l.2-.334a1.05,1.05,0,0,0,.656.206c.292,0,.449-.086.449-.239,0-.111-.111-.173-.346-.206l-.2-.029c-.441-.062-.68-.26-.68-.581,0-.391.322-.631.82-.631a1.472,1.472,0,0,1,.8.206Zm5.284-.145a.649.649,0,0,0-.246.046.59.59,0,0,0-.2.13.6.6,0,0,0-.13.2.677.677,0,0,0-.047.257.676.676,0,0,0,.047.257.6.6,0,0,0,.13.2.59.59,0,0,0,.2.13.64.64,0,0,0,.246.046.638.638,0,0,0,.246-.046.589.589,0,0,0,.2-.13.6.6,0,0,0,.132-.2.676.676,0,0,0,.047-.257.677.677,0,0,0-.047-.257.6.6,0,0,0-.132-.2.589.589,0,0,0-.2-.13.647.647,0,0,0-.246-.046m0-.407a1.109,1.109,0,0,1,.424.08,1.03,1.03,0,0,1,.338.219,1,1,0,0,1,.223.329,1.048,1.048,0,0,1,.081.413,1.048,1.048,0,0,1-.081.413,1,1,0,0,1-.223.33,1.038,1.038,0,0,1-.338.219,1.118,1.118,0,0,1-.424.079,1.118,1.118,0,0,1-.424-.079,1.027,1.027,0,0,1-.336-.219,1.016,1.016,0,0,1-.222-.33,1.048,1.048,0,0,1-.081-.413,1.048,1.048,0,0,1,.081-.413,1.014,1.014,0,0,1,.222-.329,1.019,1.019,0,0,1,.336-.219,1.109,1.109,0,0,1,.424-.08m-11.137,1.034a.591.591,0,0,1,.6-.631.59.59,0,0,1,.593.631.59.59,0,0,1-.593.63.591.591,0,0,1-.6-.63m1.594,0v-.985h-.428v.239a.747.747,0,0,0-.622-.289.986.986,0,0,0-.985,1.034.987.987,0,0,0,.985,1.034.747.747,0,0,0,.622-.289V-2h.428ZM-109.48-2V-3.235a.733.733,0,0,0-.774-.783.762.762,0,0,0-.692.35.724.724,0,0,0-.651-.35.652.652,0,0,0-.577.292v-.243h-.428V-2h.432V-3.091a.461.461,0,0,1,.482-.523c.284,0,.429.185.429.519V-2h.432V-3.091a.465.465,0,0,1,.482-.523c.293,0,.433.185.433.519V-2Z" transform="translate(112.603 4.566)"/>
    </g>
    <g id="Group_215" data-name="Group 215" transform="translate(20.357 18.277)">
      <path id="Path_99" data-name="Path 99" class="cls-4" d="M-1.224-1.013v.049h.045a.044.044,0,0,0,.024-.006.021.021,0,0,0,.009-.018.02.02,0,0,0-.009-.018.04.04,0,0,0-.024-.006Zm.045-.034a.083.083,0,0,1,.054.016.052.052,0,0,1,.019.042.049.049,0,0,1-.015.037.075.075,0,0,1-.043.018l.059.068h-.046l-.055-.068h-.018v.068h-.039v-.182ZM-1.191-.8a.143.143,0,0,0,.059-.012.155.155,0,0,0,.048-.033A.152.152,0,0,0-1.051-.9a.155.155,0,0,0,.012-.059.155.155,0,0,0-.012-.059.157.157,0,0,0-.033-.049A.146.146,0,0,0-1.132-1.1a.143.143,0,0,0-.059-.012.149.149,0,0,0-.06.012.145.145,0,0,0-.049.032.148.148,0,0,0-.032.049.147.147,0,0,0-.012.059A.147.147,0,0,0-1.332-.9.143.143,0,0,0-1.3-.848a.154.154,0,0,0,.049.033.149.149,0,0,0,.06.012m0-.348a.192.192,0,0,1,.077.016.194.194,0,0,1,.064.042.192.192,0,0,1,.042.062.187.187,0,0,1,.016.076.187.187,0,0,1-.016.076.2.2,0,0,1-.042.062.2.2,0,0,1-.064.042.192.192,0,0,1-.077.016.2.2,0,0,1-.079-.016.2.2,0,0,1-.064-.042A.2.2,0,0,1-1.376-.88a.187.187,0,0,1-.016-.076.187.187,0,0,1,.016-.076.192.192,0,0,1,.042-.062.19.19,0,0,1,.064-.042.2.2,0,0,1,.079-.016" transform="translate(1.391 1.151)"/>
    </g>
  </g>
</svg>
