<svg xmlns="http://www.w3.org/2000/svg" viewBox="0 0 137.8 34.05"><path d="M23.53 26.23c0 .19-.07.356-.213.5-.142.14-.308.212-.498.212h-1.707c-.19 0-.356-.07-.498-.213-.142-.143-.213-.31-.213-.5V13.65c0-2.535-1.078-3.803-3.235-3.803-1.114 0-2.5.32-4.158.96.212.782.32 1.706.32 2.772V26.23c0 .19-.06.355-.18.498-.118.142-.272.213-.46.213h-1.885c-.403 0-.604-.236-.604-.71V13.577c0-1.47-.207-2.458-.62-2.968-.416-.51-1.12-.765-2.116-.765-1.043 0-2.488.462-4.336 1.386v15c0 .19-.06.355-.178.498-.12.142-.272.213-.462.213H.604C.2 26.943 0 26.706 0 26.23V8.105c0-.19.065-.355.195-.498.13-.142.29-.213.48-.213h1.777c.19 0 .35.07.48.213.13.142.195.308.195.498v.675c1.777-1.115 3.507-1.672 5.19-1.672 1.54 0 2.724.486 3.553 1.457 2.062-.97 4.028-1.457 5.9-1.457 3.84 0 5.758 2.18 5.758 6.54V26.23zM41.123 26.23c0 .19-.07.356-.213.5-.142.14-.308.212-.498.212h-1.635c-.19 0-.355-.07-.498-.213s-.214-.31-.214-.5v-.78c-1.99 1.16-3.815 1.74-5.474 1.74-1.706 0-3.098-.443-4.177-1.332-1.078-.89-1.617-2.364-1.617-4.425v-.427c0-1.966.658-3.418 1.973-4.354 1.316-.936 3.514-1.404 6.594-1.404h2.63v-1.422c0-1.493-.284-2.535-.853-3.128-.568-.592-1.55-.888-2.95-.888-1.73 0-3.542.095-5.437.284h-.178c-.427 0-.64-.19-.64-.57V8.283c0-.38.25-.604.746-.675 1.802-.308 3.638-.462 5.51-.462 4.62 0 6.93 2.227 6.93 6.682V26.23zm-3.128-3.02v-5.722h-2.63c-2.11 0-3.542.255-4.3.764-.76.51-1.137 1.416-1.137 2.72v.426c0 1.208.266 2.05.8 2.524.533.474 1.356.71 2.47.71 1.444 0 3.043-.474 4.797-1.422zM61.276 9.1c0 .378-.213.603-.64.674l-1.28.25c.806.852 1.21 2.073 1.21 3.66v.284c0 4.052-2.63 6.078-7.892 6.078-1.612 0-2.986-.236-4.123-.71-.592.284-.888.687-.888 1.208 0 .57.367.948 1.102 1.137l5.296 1.352c.853.213 1.546.403 2.08.57.532.165 1.136.396 1.812.692.675.297 1.196.61 1.564.942.367.332.687.76.96 1.28.272.52.41 1.1.41 1.74v.285c0 3.674-2.702 5.51-8.105 5.51-2.748 0-4.797-.492-6.148-1.475-1.35-.984-2.026-2.376-2.026-4.176v-.32c0-1.873.746-3.378 2.24-4.515l-.25-.107c-1.09-.474-1.635-1.398-1.635-2.772v-.035c0-1.16.486-2.013 1.458-2.558-1.09-1.02-1.635-2.393-1.635-4.123v-.285c0-1.824.61-3.33 1.83-4.514 1.22-1.184 3.24-1.776 6.06-1.776h7.785c.213 0 .403.077.57.23.164.155.248.34.248.552V9.1zm-3.52 19.44v-.283c0-.664-.307-1.185-.923-1.564-.617-.38-1.754-.782-3.412-1.208l-4.015-1.03c-.592.497-1.03 1.012-1.315 1.545s-.427 1.226-.427 2.08v.32c0 1.065.385 1.87 1.155 2.416.77.545 2.09.817 3.963.817 1.92 0 3.23-.25 3.93-.746.697-.498 1.047-1.28 1.047-2.346zm-.283-14.572v-.284c0-1.185-.355-2.115-1.066-2.79-.71-.675-1.955-1.013-3.732-1.013-1.825 0-3.08.345-3.768 1.032-.688.688-1.03 1.612-1.03 2.772v.284c0 2.417 1.6 3.625 4.797 3.625 1.8 0 3.05-.314 3.75-.942.7-.626 1.05-1.52 1.05-2.682zM79.082 26.23c0 .19-.07.356-.213.5-.144.14-.31.212-.5.212h-1.705c-.19 0-.355-.07-.498-.213-.14-.143-.213-.31-.213-.5V14.538c0-1.753-.302-2.973-.907-3.66-.604-.688-1.606-1.032-3.004-1.032-1.35 0-2.95.462-4.798 1.386v15c0 .19-.07.355-.213.498-.142.142-.308.213-.498.213h-1.742c-.19 0-.35-.07-.48-.212s-.195-.308-.195-.498V8.104c0-.19.065-.355.195-.498.13-.142.29-.213.48-.213h1.777c.188 0 .35.07.48.213.13.142.194.308.194.498v.675c1.943-1.09 3.826-1.636 5.65-1.636 4.124 0 6.186 2.465 6.186 7.393V26.23zM98.133 17.38c0 .522-.225.783-.675.783H85.55v.498c0 2.063.403 3.544 1.21 4.444.804.9 2.048 1.35 3.73 1.35 2.512 0 4.62-.13 6.328-.39h.178c.38 0 .57.165.57.497v1.21c0 .45-.238.722-.712.816-2.086.403-4.206.604-6.362.604-1.09 0-2.09-.142-3.003-.427-.914-.284-1.76-.734-2.543-1.35-.782-.617-1.4-1.5-1.848-2.65-.45-1.148-.676-2.516-.676-4.104v-3.2c0-2.582.687-4.614 2.062-6.096 1.374-1.48 3.317-2.22 5.83-2.22 2.534 0 4.47.74 5.81 2.22 1.338 1.48 2.008 3.513 2.008 6.096v1.92zm-3.163-1.6v-.32c0-1.965-.38-3.387-1.138-4.264-.758-.876-1.93-1.315-3.518-1.315-3.176 0-4.763 1.86-4.763 5.58v.32h9.42zM111.923 26.408c0 .332-.213.533-.64.604-.78.118-1.552.178-2.31.178-1.73 0-2.967-.326-3.713-.978-.746-.65-1.12-1.913-1.12-3.785V10.023l-3.448-.39c-.45-.048-.675-.26-.675-.64v-.96c0-.428.225-.64.675-.64h3.448V3.91c0-.402.213-.64.64-.71l1.848-.285h.107c.355 0 .533.2.533.604v3.873h3.84c.19 0 .355.07.497.213.142.142.213.308.213.498v1.208c0 .19-.07.356-.213.498-.142.142-.308.213-.498.213h-3.84v12.404c0 .948.13 1.558.392 1.83.26.273.77.41 1.528.41h1.99c.498 0 .746.165.746.497v1.244zM117.966 3.554c0 .19-.07.355-.213.498-.143.142-.31.213-.498.213h-1.813c-.19 0-.355-.07-.498-.213-.142-.142-.213-.308-.213-.498V.71c0-.188.072-.355.214-.497.143-.142.308-.213.498-.213h1.813c.19 0 .355.07.498.213.142.142.213.308.213.498v2.844zm-.07 22.677c0 .19-.072.356-.214.5-.142.14-.308.212-.498.212h-1.706c-.19 0-.355-.07-.498-.213-.142-.143-.213-.31-.213-.5V8.105c0-.19.07-.355.213-.498.143-.142.308-.213.498-.213h1.706c.19 0 .356.07.498.213.142.142.213.308.213.498V26.23zM134.386 26.017c0 .427-.237.688-.71.782-1.423.26-2.904.39-4.444.39-2.393 0-4.254-.776-5.58-2.328-1.327-1.552-1.99-3.655-1.99-6.31v-2.77c0-2.654.662-4.758 1.99-6.31 1.326-1.552 3.187-2.328 5.58-2.328 1.54 0 3.02.13 4.443.39.284.05.474.125.57.232.093.107.14.29.14.55v1.28c0 .356-.2.534-.603.534h-.142c-1.47-.165-2.94-.25-4.408-.25-2.962 0-4.443 1.968-4.443 5.9v2.773c0 3.934 1.48 5.9 4.442 5.9 1.47 0 2.938-.083 4.408-.25h.142c.402 0 .604.18.604.534v1.28zM136.098 4.952c.1-.02.246-.03.384-.03.214 0 .352.036.448.118.078.064.122.163.122.274 0 .19-.13.317-.292.37v.006c.12.04.19.142.228.292.05.202.087.34.12.397h-.207c-.024-.042-.06-.166-.103-.346-.046-.2-.13-.274-.31-.28h-.19v.625h-.2V4.95zm.2.658h.205c.214 0 .35-.11.35-.274 0-.187-.146-.268-.357-.27-.097 0-.165.01-.198.017v.527z" fill="#FFF"/><path d="M136.57 6.88c-.677 0-1.228-.552-1.228-1.23s.55-1.23 1.23-1.23 1.228.552 1.228 1.23-.55 1.23-1.23 1.23zm0-2.315c-.597 0-1.084.487-1.084 1.085s.487 1.085 1.085 1.085 1.086-.487 1.086-1.085-.487-1.085-1.085-1.085z" fill="#FFF"/></svg>