<svg xmlns="http://www.w3.org/2000/svg" viewBox="788.253 -679.872 27.563 114.872">
  <g fill="#c4c4c4" transform="translate(-260.633 -1117)">
    <path d="M1.753.23A.062.062,0,0,1,1.7.287H1.034v1.9c0,.029,0,.029-.029.029a.1.1,0,0,1-.057.029H.776c-.029,0-.029,0-.029-.029L.718,2.184V.259H.057C0,.259,0,.23,0,.2V.057A.028.028,0,0,1,.029.029.1.1,0,0,1,.086,0H1.7a.062.062,0,0,1,.057.057Z" transform="translate(1054.756 441.208) rotate(-90)"/>
    <path d="M2.069,2.155c0,.029,0,.029-.029.029a.1.1,0,0,1-.057.029H1.839c-.029,0-.029,0-.057-.029l-.029-.029V.374h0l-.488.891c-.029.029-.029.057-.057.057s-.057.029-.086.029H.977a.106.106,0,0,1-.086-.029L.833,1.264.345.374h0V2.155c0,.029,0,.029-.029.029a.1.1,0,0,1-.057.029H.086c-.029,0-.029,0-.057-.029L0,2.155V.086C0,.057,0,.029.029.029.057,0,.057,0,.086,0h.23A.149.149,0,0,1,.431.057L.977,1.092a.028.028,0,0,0,.029.029c.029,0,.029,0,.029-.029L1.58.057A.149.149,0,0,1,1.7,0h.23c.029,0,.057,0,.057.029.029.029.029.029.029.057V2.155Z" transform="translate(1054.785 439.197) rotate(-90)"/>
    <path d="M6.35,0C2.011,0,0,2.586,0,8.189,0,13.705,1.781,16.2,6.81,16.2a12.931,12.931,0,0,0,3.362-.345c.431-.086.661-.259.661-.632v-.69c0-.374-.2-.575-.661-.575-1.034.029-2.011.057-3.017.057-3.3,0-4.568-1.408-4.568-5.861,0-4.051,1.121-6.005,4.166-6.005,1.235,0,2.73.029,3.477.029.345,0,.6-.172.6-.517v-.8A.489.489,0,0,0,10.4.374,18.07,18.07,0,0,0,6.35,0Z" transform="translate(1054.583 454.569) rotate(-90)"/>
    <path d="M9.079,15.63a.515.515,0,0,0,.517.517h1.552a.515.515,0,0,0,.517-.517V5.43C11.665,1.235,8.993,0,6.005,0a18.471,18.471,0,0,0-4.08.4.483.483,0,0,0-.4.488v.8a.53.53,0,0,0,.575.517c.718,0,2.184-.029,3.908-.029,2.471,0,3.1,1.235,3.1,3.735a.457.457,0,0,1-.517.517H6.35C1.207,6.436,0,8.591,0,11.464,0,14.6,1.954,16.32,4.942,16.32A12.843,12.843,0,0,0,9.079,15.63ZM5.315,14.251a2.539,2.539,0,0,1-2.873-2.844c0-2.155,1.81-2.959,3.793-2.959H9.079v5.517A25.393,25.393,0,0,1,5.315,14.251Z" transform="translate(1054.583 530.422) rotate(-90)"/>
    <path d="M6.551,0C2.327,0,0,2.557,0,8.189,0,13.734,1.58,16.2,7.5,16.2a17.868,17.868,0,0,0,3.821-.345c.431-.086.661-.259.661-.632v-.69c0-.374-.2-.575-.632-.575-1.006.029-2.5.057-3.477.057-3.994,0-5-1.006-5.172-4.856h9.625a.515.515,0,0,0,.517-.517V7.011C12.843,2.73,10.8,0,6.551,0ZM3.218,7.011a.5.5,0,0,1-.488-.546c.259-2.73,1.379-4.281,3.735-4.281,2.7,0,3.764,1.9,3.764,4.8H3.218Z" transform="translate(1054.583 485.37) rotate(-90)"/>
    <path d="M13.5,0H6.58C2.414,0,.144,1.925.144,4.913A4.574,4.574,0,0,0,1.178,7.988,2.523,2.523,0,0,0,.287,9.8a3,3,0,0,0,2.069,2.988A4.632,4.632,0,0,0,0,16.78c0,2.04,1.7,4.884,6.58,4.884s6.695-2.471,6.695-4.884c0-2.069-1.523-3.534-3.735-4.137-2.5-.661-3.994-1.063-5.545-1.465C3.046,10.918,2.5,10.315,2.5,9.8a1.022,1.022,0,0,1,.345-.661,9.61,9.61,0,0,0,3.735.632c4.568,0,6.436-1.868,6.436-4.856A4.636,4.636,0,0,0,12.125,2.1c.46-.144,1.207-.374,1.494-.46a.5.5,0,0,0,.4-.488V.517A.515.515,0,0,0,13.5,0ZM8.878,14.567a2.386,2.386,0,0,1,1.983,2.212C11,18.3,9.711,19.739,6.608,19.739S2.471,17.757,2.327,16.78a3.826,3.826,0,0,1,1.552-3.534C5.4,13.648,7.729,14.251,8.878,14.567ZM6.551,7.786c-3.017,0-3.908-1.063-3.908-2.873s.948-2.959,3.908-2.959S10.459,3.1,10.459,4.913C10.487,6.752,9.6,7.786,6.551,7.786Z" transform="translate(1054.785 516.2) rotate(-90)"/>
    <path d="M6.838,0A12.384,12.384,0,0,0,2.5.948V.661A.515.515,0,0,0,1.983.144H.517A.515.515,0,0,0,0,.661V15.6a.515.515,0,0,0,.517.517H1.983A.515.515,0,0,0,2.5,15.6V2.873a9.3,9.3,0,0,1,3.62-.718c2.27,0,3.563,1.207,3.563,3.247V15.573a.515.515,0,0,0,.517.517h1.552a.515.515,0,0,0,.517-.517V5.344A5.105,5.105,0,0,0,6.838,0Z" transform="translate(1054.641 500.081) rotate(-90)"/>
    <path d="M14.05,0A7.661,7.661,0,0,0,9.712,1.437,4.939,4.939,0,0,0,5.861,0a7,7,0,0,0-3.39.977V.661A.515.515,0,0,0,1.954.144H.517A.515.515,0,0,0,0,.661V15.6a.515.515,0,0,0,.517.517H1.983A.515.515,0,0,0,2.5,15.6V2.844a7.018,7.018,0,0,1,2.9-.69c2.069,0,2.931,1.063,2.931,2.988v10.43a.515.515,0,0,0,.517.517H10.4a.515.515,0,0,0,.517-.517V5.086A7.141,7.141,0,0,0,10.6,2.9a6.253,6.253,0,0,1,3.017-.747c2.1,0,3.074,1.063,3.074,2.988v10.43a.515.515,0,0,0,.517.517h1.552a.515.515,0,0,0,.517-.517V5.086C19.193,1.868,17.412,0,14.05,0Z" transform="translate(1054.641 552) rotate(-90)"/>
    <path d="M8.275,17.622H7.183c-1.235,0-1.9-.431-1.9-1.7V5.755h2.73a.515.515,0,0,0,.517-.517V4.117A.515.515,0,0,0,8.016,3.6H5.287V.555c0-.488-.374-.69-.8-.46L3.275.67a.856.856,0,0,0-.488.747V3.629H.517A.5.5,0,0,0,0,4.146v.632a.464.464,0,0,0,.4.488c.287.057,2.327.488,2.327.488h.057V15.9c0,2.04.919,3.649,3.362,3.649.919,0,1.638-.057,2.069-.086a.545.545,0,0,0,.546-.546v-.8A.467.467,0,0,0,8.275,17.622Z" transform="translate(1051.156 471.435) rotate(-90)"/>
    <path d="M1.983,0H.517A.515.515,0,0,0,0,.517V15.458a.515.515,0,0,0,.517.517H1.983a.515.515,0,0,0,.517-.517V.517A.534.534,0,0,0,1.983,0Z" transform="translate(1054.785 459.798) rotate(-90)"/>
    <path d="M0,1.417V3.169a.515.515,0,0,0,.517.517H1.983A.515.515,0,0,0,2.5,3.169V.555c0-.488-.373-.69-.8-.46L.488.67A.779.779,0,0,0,0,1.417Z" transform="translate(1048.886 459.798) rotate(-90)"/>
  </g>
</svg>
