<?xml version="1.0" encoding="utf-8"?>
<!-- Generator: Adobe Illustrator 18.0.0, SVG Export Plug-In . SVG Version: 6.00 Build 0)  -->
<!DOCTYPE svg PUBLIC "-//W3C//DTD SVG 1.1//EN" "http://www.w3.org/Graphics/SVG/1.1/DTD/svg11.dtd">
<svg version="1.1"
	 id="svg2" xmlns:svg="http://www.w3.org/2000/svg" xmlns:cc="http://creativecommons.org/ns#" xmlns:dc="http://purl.org/dc/elements/1.1/" xmlns:rdf="http://www.w3.org/1999/02/22-rdf-syntax-ns#"
	 xmlns="http://www.w3.org/2000/svg" xmlns:xlink="http://www.w3.org/1999/xlink" x="0px" y="0px"
	 viewBox="331.7 164.7 808.5 144.5" enable-background="new 331.7 164.7 808.5 144.5" xml:space="preserve">
<g id="g10" transform="matrix(1.3333333,0,0,-1.3333333,0,466.66667)">
	<g id="g12" transform="scale(0.1)">
		<path id="path16" fill="#FFFFFF" d="M7271.5,1869.5c0,105.1-67,139-193.3,139c-35.6,0-67.8-0.8-92.4-2.5v-295.9
			c26.3-1.7,63.6-3.4,92.4-3.4c131.4,0,193.3,40.7,193.3,148.4V1869.5z M7078.2,1673.7c-33.1,0-68.7,1.7-92.4,3.4v-253.5
			c0-8.5-5.9-16.1-14.4-16.1h-8.5c-8.5,0-14.4,7.6-14.4,16.1v597.7c0,7.6,6.8,15.2,14.4,16.1c29.7,1.7,78.9,4.3,115.3,4.3
			c144.1,0,230.6-50,230.6-172.1v-14.4C7308.8,1722,7222.3,1673.7,7078.2,1673.7"/>
		<path id="path18" fill="#FFFFFF" d="M7578.8,1990.7c-2.5,8.5-7.6,17-19.5,17c-12.7,0-17-6.8-19.5-16.1l-93.3-308.6h224.7
			L7578.8,1990.7z M7775.5,1404.9h-10.2c-6.8,0-11.9,5.1-13.5,11l-71.2,229.7h-244.2l-69.5-229.7c-1.7-5.1-7.6-11-13.6-11h-11
			c-11,0-15.3,9.3-11.9,21.2l173.8,574c7.7,25.4,27.1,41.6,55.1,41.6c27.1,0,46.6-15.3,54.2-40.7l173.8-574.8
			C7790.7,1414.2,7787.3,1404.9,7775.5,1404.9"/>
		<path id="path20" fill="#FFFFFF" d="M8250.4,1774.5c0,180.6-91.6,234-210.2,234c-49.2,0-78.9-2.5-116.2-5.1v-564.6
			c37.3-2.5,67-3.4,116.2-3.4c118.7,0,210.2,55.1,210.2,234V1774.5z M8040.2,1402.4c-67.9,0-114.5,2.5-139.1,6.8
			c-7.6,1.7-14.4,8.5-14.4,16.1v593.5c0,7.6,6.8,14.4,14.4,16.1c24.6,4.3,71.2,6.8,139.1,6.8c144.1,0,247.5-68.7,247.5-267.1v-105.1
			C8287.7,1474.4,8184.3,1402.4,8040.2,1402.4"/>
		<path id="path22" fill="#FFFFFF" d="M8456.5,2025.5c0-1.3-0.9-1.9-2.6-1.9h-26.8V1945c0-0.7-0.2-1.2-0.7-1.7
			c-0.5-0.5-1.1-0.7-1.8-0.7h-7.5c-0.7,0-1.2,0.2-1.7,0.7c-0.5,0.5-0.8,1.1-0.8,1.7v78.6h-26.8c-1.8,0-2.8,0.7-2.8,1.9v5.4
			c0,0.6,0.3,1.1,0.8,1.5c0.5,0.4,1.2,0.7,1.9,0.7h66c1.7,0,2.6-0.7,2.6-2.2L8456.5,2025.5"/>
		<path id="path24" fill="#FFFFFF" d="M8551.9,1945c0-0.7-0.3-1.2-0.8-1.7c-0.5-0.5-1.2-0.7-1.9-0.7h-6.7c-0.7,0-1.4,0.2-1.9,0.7
			c-0.5,0.5-0.8,1.1-0.8,1.7v72.2c0,0.2,0,0.4,0,0.4s-0.3-0.1-0.4-0.2l-19.6-36c-0.7-1.3-1.5-2.2-2.4-2.7c-0.9-0.5-2.1-0.8-3.8-0.8
			h-6.3c-1.6,0-2.9,0.3-3.8,0.8c-0.9,0.5-1.7,1.4-2.4,2.7l-19.6,36c-0.1,0.2-0.2,0.2-0.2,0.2c-0.2,0-0.2-0.1-0.2-0.4V1945
			c0-0.7-0.3-1.2-0.8-1.7c-0.5-0.5-1.2-0.7-1.9-0.7h-6.7c-0.7,0-1.4,0.2-1.9,0.7c-0.5,0.5-0.8,1.1-0.8,1.7v84.5c0,1,0.4,1.8,1.2,2.5
			s1.7,1,2.8,1h8.9c2.2,0,3.7-0.7,4.4-2.1l22.7-41.8c0.5-0.9,1-1.3,1.7-1.3c0.6,0,1.2,0.4,1.6,1.3l22.7,41.8
			c0.7,1.4,2.2,2.1,4.4,2.1h8.9c1.1,0,2-0.3,2.8-1c0.8-0.7,1.2-1.5,1.2-2.5L8551.9,1945"/>
		<path id="path26" fill="#FFFFFF" d="M6571.6,2041.4c-171.1,0-249.7-101.5-249.7-322.3c0-217.6,69.7-315.1,268.2-315.1
			c74.6,0,100,6.9,132.8,13.3c17.3,3.3,26.5,9.9,26.5,24.6v26.9c0,14.9-8.4,23.1-25.5,22.5c-40.2-1.4-79-2.4-118.2-2.4
			c-130.2,0-180.3,55.9-180.3,230.3c0,159.3,43.7,236.7,163.6,236.7c49.1,0,107.6-0.9,137-1.5c13-0.3,23.5,7.1,23.5,19.9v31.7
			c0,8.6-5.5,17.1-16.6,19.7C6708,2031.7,6655.1,2041.4,6571.6,2041.4"/>
		<path id="path28" fill="#FFFFFF" d="M3545.7,1480.4c-63.6,0-112.8,26.6-112.8,111.9c0,85.3,71.3,116.3,149.7,116.3h112v-216.6
			C3680,1489.7,3619.6,1480.4,3545.7,1480.4L3545.7,1480.4z M3694.5,1425.9c0-11,8.9-19.9,19.9-19.9h60.6c11,0,19.9,8.9,19.9,19.9
			c0,0,0,301.4,0,401.9c0,165.6-105.4,213.7-222.6,213.7c-81,0-136-9.7-160.1-15.7c-10.8-2.7-16.1-11.2-16.1-19.8v-31.7
			c0-12.9,10.2-20.2,22.8-20c28.5,0.6,85.8,1.5,153.4,1.5c97.6,0,122.2-48.6,122.2-146.7c0-14.3-8-20.5-20.8-20.5
			c-21.4,0-88.5,0-88.5,0c-202.5,0-250.3-84.4-250.3-197.4c0-123.3,76.4-190.5,194.3-190.5
			C3623.6,1400.6,3679.8,1420.4,3694.5,1425.9"/>
		<path id="path30" fill="#FFFFFF" d="M5237,1764.8c-11.1,0-20.1,9.9-19,21c10.6,107.9,54.1,168.1,147.3,168.1
			c106.5,0,148-74.8,148-189.1H5237z M5367.5,2040.9c-166.1,0-257.5-101-257.5-321.9c0-217.7,62.3-315.3,294.7-315.3
			c72.4,0,118.8,6.9,150.6,13.3c16.8,3.4,25.7,9.9,25.7,24.6v26.9c0,14.9-8.2,23.1-24.8,22.5c-39-1.4-98.4-2.4-136.5-2.4
			c-156.7,0-197.2,39.8-203.5,191h378.9c11.4,0,20.5,9.2,20.5,20.6v64.7C5615.8,1933.6,5535.4,2040.9,5367.5,2040.9"/>
		<path id="path32" fill="#FFFFFF" d="M4155,1726.3c-118.9,0-154.1,41.3-154.1,113c0,71.7,37.4,116.4,154.1,116.4
			c116.7,0,154.1-44.7,154.1-116.4C4309.2,1767.6,4274,1726.3,4155,1726.3z M4246.2,1459.7c59.1-16.7,74.3-52.3,77.5-86.5
			c5.5-59.5-45.3-116-167.5-116c-122.2,0-163.4,77.6-168.8,116c-10.8,77.3,44.8,129.1,60.7,139.5
			C4109.7,1496.4,4201.1,1472.5,4246.2,1459.7z M4427.8,2033.4c-13.2,0-272.8,0-272.8,0c-163.5,0-253.4-75.8-253.4-193.7
			c0-48.8,13.5-89.4,41-120.8c-3.4-2.8-34.9-29.9-34.9-71.2c0-58.7,30.2-97.8,81.2-117.1c-27.6-13.2-93.1-66.4-93.1-157.3
			c0-80.4,67-191.9,259.2-191.9c192.1,0,263.6,96.8,263.6,191.9c0,81.9-60.2,139-146.9,162.5c-98,26.6-157.1,42-218.4,58.2
			c-37.6,9.9-59.2,33.4-59.2,53.8c0,13,10.6,22.8,14.1,25.8c37.9-15.8,85.8-24.8,146.9-24.8c180,0,253.5,73.2,253.5,191.1
			c0,43-12.3,80.3-35.5,110.5c18.3,5.8,48,15.1,58.6,18.3c11.2,3.4,16.1,10.8,16.1,19.6v25.4
			C4447.8,2023.9,4440,2033.4,4427.8,2033.4"/>
		<path id="path34" fill="#FFFFFF" d="M4800.6,2038.9c-86.3,0-170.6-37-170.6-37v11.7c0,11-8.9,19.9-19.9,19.9h-58.2
			c-11,0-19.9-8.9-19.9-19.9v-588.2c0-11,8.9-19.9,19.9-19.9h58.2c11,0,19.9,8.9,19.9,19.9v500.5c20.3,7.5,69.1,28.2,142.3,28.2
			c89.2,0,139.9-47.9,139.9-127.9v-400.4c0-11,8.9-19.9,19.9-19.9h60.6c11,0,19.9,8.9,19.9,19.9V1828
			C5012.6,1954.9,4928.4,2038.9,4800.6,2038.9"/>
		<path id="path36" fill="#FFFFFF" d="M3041.1,2038.9c-81,0-143.4-37-171.2-56.8c-32.8,36.7-82.8,56.8-151,56.8
			c-59,0-110.5-25.2-133-38v12.7c0,11-8.9,19.9-19.9,19.9h-58.2c-11,0-19.9-8.9-19.9-19.9v-588.2c0-11,8.9-19.9,19.9-19.9h58.2
			c11,0,19.9,8.9,19.9,19.9v501.5c16.8,8.3,60.8,27.1,113.8,27.1c82.2,0,115.9-41.6,115.9-117.8v-410.5c0-11,8.9-19.9,19.9-19.9
			h60.6c11,0,19.9,8.9,19.9,19.9v412.5c0,32.2-4.3,61-12.8,86c22.7,12.8,63.1,29.8,118.7,29.8c82.2,0,121.4-41.6,121.4-117.8v-410.5
			c0-11,8.9-19.9,19.9-19.9h60.6c11,0,19.9,8.9,19.9,19.9v412.5C3243.7,1965.1,3172.8,2038.9,3041.1,2038.9"/>
		<path id="path38" fill="#FFFFFF" d="M5984.3,1482.1h-42.5c-48.5,0-74.7,16.5-74.7,66.7V1949H5975c11,0,19.9,8.9,19.9,19.9v44.6
			c0,11-8.9,19.9-19.9,19.9c0,0-56.2,0-107.9,0v120.9c0,19.1-14.3,26.6-31.6,18.5l-47.9-22.4c-11.5-5.4-18.8-16.9-18.8-29.5v-87.5
			H5679c-12.2,0-19.9-9.5-19.9-19.9v-25.4c0-8.9,4.7-17.2,16.1-19.6c11.4-2.4,91.8-19.4,91.8-19.4h1.8v-398.9
			c0-79.8,36.7-143.1,132.7-143.1c36.4,0,64,2,81.3,3.7c13.7,1.4,20.9,9.8,20.9,21.4v31.7C6003.6,1476,5993.9,1482.1,5984.3,1482.1"
			/>
		<path id="path40" fill="#FFFFFF" d="M6194,2033.5h-58.2c-11,0-19.9-8.9-19.9-19.9v-587.9c0-11,8.9-19.9,19.9-19.9h58.2
			c11,0,19.9,8.9,19.9,19.9v587.9C6213.9,2024.5,6205,2033.5,6194,2033.5"/>
		<path id="path42" fill="#FFFFFF" d="M6115.9,2209.8v-69.5c0-11,8.9-19.9,19.9-19.9h58.2c11,0,19.9,8.9,19.9,19.9v102.9
			c0,19.1-14.3,26.6-31.7,18.5l-47.9-22.4C6122.9,2233.9,6115.9,2222.4,6115.9,2209.8"/>
	</g>
</g>
</svg>
