<?xml version="1.0" encoding="utf-8"?>
<!-- Generator: Adobe Illustrator 18.0.0, SVG Export Plug-In . SVG Version: 6.00 Build 0)  -->
<!DOCTYPE svg PUBLIC "-//W3C//DTD SVG 1.1//EN" "http://www.w3.org/Graphics/SVG/1.1/DTD/svg11.dtd">
<svg version="1.1"
	 id="svg2" xmlns:svg="http://www.w3.org/2000/svg" xmlns:cc="http://creativecommons.org/ns#" xmlns:dc="http://purl.org/dc/elements/1.1/" xmlns:rdf="http://www.w3.org/1999/02/22-rdf-syntax-ns#"
	 xmlns="http://www.w3.org/2000/svg" xmlns:xlink="http://www.w3.org/1999/xlink" x="0px" y="0px" viewBox="244.5 164.7 1014 144.5"
	 enable-background="new 244.5 164.7 1014 144.5" xml:space="preserve">
<g id="g10" transform="matrix(1.3333333,0,0,-1.3333333,0,466.66667)">
	<g id="g12" transform="scale(0.1)">
		<path id="path16" fill="#FFFFFF" d="M6636.7,1594c0,65.3-32.2,126.3-151.8,126.3h-153.4v-279.8c36.5-2.5,64.5-5.1,106-5.1
			c101.7,0,199.2,21.2,199.2,144.1L6636.7,1594z M6633.3,1888.1c0,103.4-96.7,120.4-195.9,120.4c-37.3,0-77.1-2.5-106-3.4v-248.4
			h153.4c118.7,0,148.4,58.5,148.4,122.1V1888.1z M6437.4,1401.5c-44.1,0-89,2.5-127.1,6.8c-11,0.9-16.1,5.9-16.1,16.1v596
			c0,8.5,7.7,15.3,16.1,16.1c34.7,2.6,83.9,5.1,127.1,5.1c116.1,0,233.1-26.3,233.1-153.5v-9.3c0-70.4-38.1-118.7-100.9-140.7
			c65.3-19.5,104.2-68.7,104.2-144.1v-14.4C6674,1429.5,6544.3,1401.5,6437.4,1401.5"/>
		<path id="path18" fill="#FFFFFF" d="M7165,1774.5c0,173-77.1,231.4-179.7,231.4s-179.7-58.5-179.7-231.4v-105.1
			c0-172.9,77.1-231.4,179.7-231.4s179.7,58.5,179.7,231.4V1774.5z M6985.3,1402.4c-126.3,0-217,78-217,267v105.1
			c0,189.1,90.7,267.1,217,267.1c126.3,0,217-78,217-267.1v-105.1C7202.3,1480.4,7111.6,1402.4,6985.3,1402.4"/>
		<path id="path20" fill="#FFFFFF" d="M7516.8,1990.7c-2.5,8.5-7.6,17-19.5,17c-12.7,0-17-6.8-19.5-16.1l-93.3-308.6h224.7
			L7516.8,1990.7z M7713.5,1404.9h-10.2c-6.8,0-11.9,5.1-13.5,11l-71.2,229.7h-244.2l-69.5-229.7c-1.7-5.1-7.6-11-13.5-11h-11
			c-11,0-15.3,9.3-11.9,21.2l173.8,574c7.6,25.4,27.1,41.6,55.1,41.6c27.1,0,46.6-15.3,54.3-40.7l173.8-574.8
			C7728.8,1414.2,7725.4,1404.9,7713.5,1404.9"/>
		<path id="path22" fill="#FFFFFF" d="M8164.8,1868.6c0,106-67,137.3-193.3,137.3c-35.6,0-83.9-0.9-109.4-3.4v-274.7
			c22.9,0,84.8-0.9,109.4-0.9c131.4,0,193.3,28.8,193.3,137.3V1868.6z M8212.3,1407.5h-11.1c-4.2,0-10.2,4.2-12.7,7.6l-180.6,276.4
			c-16.1-0.8-22,0-36.5,0c-33.1,0-109.4,0.8-109.4,0.8v-268.8c0-8.5-5.9-16.1-14.4-16.1h-8.5c-8.5,0-14.4,7.6-14.4,16.1v598.6
			c0,7.6,6.8,15.2,14.4,16.1c29.7,1.7,95.8,3.4,132.3,3.4c152.6,0,230.6-43.3,230.6-173v-4.2c0-103.4-51.7-151.8-151.8-168.7
			l171.3-263.7C8228.3,1421,8226.7,1407.5,8212.3,1407.5"/>
		<path id="path24" fill="#FFFFFF" d="M8690.1,1774.5c0,180.6-91.6,234-210.2,234c-49.2,0-78.9-2.5-116.2-5.1v-564.6
			c37.3-2.5,67-3.4,116.2-3.4c118.7,0,210.2,55.1,210.2,234V1774.5z M8479.9,1402.4c-67.8,0-114.5,2.5-139.1,6.8
			c-7.6,1.7-14.4,8.5-14.4,16.1v593.5c0,7.6,6.8,14.4,14.4,16.1c24.6,4.3,71.2,6.8,139.1,6.8c144.1,0,247.5-68.7,247.5-267.1v-105.1
			C8727.4,1474.4,8624,1402.4,8479.9,1402.4"/>
		<path id="path26" fill="#FFFFFF" d="M8978.1,1402.4c-55.1,0-97.5,4.2-123.8,8.5c-15.2,2.5-22.9,5.9-22.9,17.8v3.4
			c0,13.6,10.2,15.3,19.5,14.4c27.2-3.4,80.5-8.5,127.2-8.5c128,0,157.7,56.8,157.7,126.3c0,62.7-36.5,84.8-130.6,143.3l-53.4,33.1
			c-77.2,47.5-133.1,87.3-133.1,169.6c0,104.3,99.2,131.4,198.4,131.4c35.6,0,93.3-4.3,117.8-7.7c17-1.7,22.9-5.9,22.9-17v-4.2
			c0-12.7-9.3-15.3-26.3-13.6c-7.6,0.8-78.8,6.8-115.3,6.8c-111.9,0-159.4-33.1-159.4-95.8c0-60.2,39-90.7,114.5-136.5l54.3-33.1
			c100-60.2,149.2-98.3,149.2-176.3C9174.8,1487.2,9141.7,1402.4,8978.1,1402.4"/>
		<path id="path28" fill="#FFFFFF" d="M9343.3,2025.5c0-1.3-0.9-1.9-2.6-1.9H9314V1945c0-0.7-0.2-1.2-0.7-1.7
			c-0.5-0.5-1-0.7-1.8-0.7h-7.5c-0.6,0-1.2,0.2-1.7,0.7c-0.5,0.5-0.8,1.1-0.8,1.7v78.6h-26.8c-1.8,0-2.7,0.7-2.7,1.9v5.4
			c0,0.6,0.3,1.1,0.8,1.5c0.5,0.4,1.2,0.7,1.9,0.7h66c1.7,0,2.6-0.7,2.6-2.2L9343.3,2025.5"/>
		<path id="path30" fill="#FFFFFF" d="M9438.7,1945c0-0.7-0.3-1.2-0.8-1.7c-0.6-0.5-1.2-0.7-1.9-0.7h-6.7c-0.7,0-1.4,0.2-1.9,0.7
			c-0.5,0.5-0.8,1.1-0.8,1.7v72.2c0,0.2,0,0.4,0,0.4c-0.2,0-0.3-0.1-0.4-0.2l-19.6-36c-0.7-1.3-1.5-2.2-2.4-2.7
			c-0.9-0.5-2.1-0.8-3.8-0.8h-6.3c-1.6,0-2.9,0.3-3.8,0.8c-0.9,0.5-1.7,1.4-2.4,2.7l-19.6,36c-0.1,0.2-0.2,0.2-0.3,0.2
			c0,0-0.1-0.1-0.1-0.4V1945c0-0.7-0.3-1.2-0.8-1.7c-0.5-0.5-1.2-0.7-1.9-0.7h-6.7c-0.7,0-1.4,0.2-1.9,0.7c-0.5,0.5-0.8,1.1-0.8,1.7
			v84.5c0,1,0.4,1.8,1.2,2.5s1.7,1,2.8,1h8.9c2.2,0,3.7-0.7,4.4-2.1l22.6-41.8c0.5-0.9,1-1.3,1.7-1.3c0.6,0,1.2,0.4,1.6,1.3
			l22.7,41.8c0.7,1.4,2.2,2.1,4.4,2.1h8.9c1.1,0,2-0.3,2.8-1c0.8-0.7,1.2-1.5,1.2-2.5L9438.7,1945"/>
		<path id="path32" fill="#FFFFFF" d="M5917.3,2041.4c-171.1,0-249.7-101.5-249.7-322.3c0-217.6,69.7-315.1,268.2-315.1
			c74.6,0,100,6.9,132.8,13.3c17.3,3.3,26.5,9.9,26.5,24.6v26.9c0,14.9-8.4,23.1-25.5,22.5c-40.2-1.4-79-2.4-118.2-2.4
			c-130.2,0-180.3,55.9-180.3,230.3c0,159.3,43.7,236.7,163.6,236.7c49.1,0,107.6-0.9,136.9-1.5c13-0.3,23.5,7.1,23.5,19.9v31.7
			c0,8.6-5.5,17.1-16.6,19.7C6053.6,2031.7,6000.7,2041.4,5917.3,2041.4"/>
		<path id="path34" fill="#FFFFFF" d="M2891.3,1480.4c-63.6,0-112.8,26.6-112.8,111.9c0,85.3,71.3,116.3,149.7,116.3h112v-216.6
			C3025.6,1489.7,2965.2,1480.4,2891.3,1480.4L2891.3,1480.4z M3040.2,1425.9c0-11,8.9-19.9,19.9-19.9h60.6c11,0,19.9,8.9,19.9,19.9
			c0,0,0,301.4,0,401.9c0,165.6-105.4,213.7-222.6,213.7c-81,0-136-9.7-160.1-15.7c-10.8-2.7-16.1-11.2-16.1-19.8v-31.7
			c0-12.9,10.2-20.2,22.8-20c28.5,0.6,85.8,1.5,153.4,1.5c97.6,0,122.2-48.6,122.2-146.7c0-14.3-8-20.5-20.8-20.5
			c-21.4,0-88.5,0-88.5,0c-202.5,0-250.3-84.4-250.3-197.4c0-123.3,76.4-190.5,194.3-190.5
			C2969.3,1400.6,3025.5,1420.4,3040.2,1425.9"/>
		<path id="path36" fill="#FFFFFF" d="M4582.7,1764.8c-11.1,0-20.1,9.9-19,21c10.6,107.9,54.1,168.1,147.3,168.1
			c106.5,0,148-74.8,148-189.1H4582.7z M4713.2,2040.9c-166.1,0-257.5-101-257.5-321.9c0-217.7,62.3-315.3,294.7-315.3
			c72.4,0,118.8,6.9,150.6,13.3c16.8,3.4,25.7,9.9,25.7,24.6v26.9c0,14.9-8.2,23.1-24.8,22.5c-39-1.4-98.4-2.4-136.5-2.4
			c-156.7,0-197.2,39.8-203.5,191h378.9c11.4,0,20.5,9.2,20.5,20.6v64.7C4961.4,1933.6,4881.1,2040.9,4713.2,2040.9"/>
		<path id="path38" fill="#FFFFFF" d="M3500.7,1726.3c-118.9,0-154.1,41.3-154.1,113c0,71.7,37.4,116.4,154.1,116.4
			c116.7,0,154.1-44.7,154.1-116.4C3654.8,1767.6,3619.6,1726.3,3500.7,1726.3L3500.7,1726.3z M3591.9,1459.7
			c59.1-16.7,74.3-52.3,77.5-86.5c5.5-59.5-45.3-116-167.5-116s-163.4,77.6-168.8,116c-10.8,77.3,44.8,129.1,60.7,139.5
			C3455.3,1496.4,3546.8,1472.5,3591.9,1459.7L3591.9,1459.7z M3773.5,2033.4c-13.2,0-272.8,0-272.8,0
			c-163.5,0-253.4-75.8-253.4-193.7c0-48.8,13.5-89.4,41-120.8c-3.5-2.8-34.9-29.9-34.9-71.2c0-58.7,30.1-97.8,81.2-117.1
			c-27.5-13.2-93-66.4-93-157.3c0-80.4,67-191.9,259.2-191.9s263.6,96.8,263.6,191.9c0,81.9-60.2,139-146.9,162.5
			c-98,26.6-157.1,42-218.4,58.2c-37.6,9.9-59.2,33.4-59.2,53.8c0,13,10.6,22.8,14.1,25.8c37.9-15.8,85.8-24.8,146.9-24.8
			c180,0,253.4,73.2,253.4,191.1c0,43-12.3,80.3-35.5,110.5c18.3,5.8,48,15.1,58.6,18.3c11.2,3.4,16.1,10.8,16.1,19.6v25.4
			C3793.4,2023.9,3785.7,2033.4,3773.5,2033.4"/>
		<path id="path40" fill="#FFFFFF" d="M4146.2,2038.9c-86.3,0-170.6-37-170.6-37v11.7c0,11-8.9,19.9-19.9,19.9h-58.2
			c-11,0-19.9-8.9-19.9-19.9v-588.2c0-11,8.9-19.9,19.9-19.9h58.2c11,0,19.9,8.9,19.9,19.9v500.5c20.3,7.5,69.1,28.2,142.3,28.2
			c89.2,0,139.9-47.9,139.9-127.9v-400.4c0-11,8.9-19.9,19.9-19.9h60.6c11,0,19.9,8.9,19.9,19.9V1828
			C4358.3,1954.9,4274.1,2038.9,4146.2,2038.9"/>
		<path id="path42" fill="#FFFFFF" d="M2386.8,2038.9c-81,0-143.4-37-171.2-56.8c-32.8,36.7-82.8,56.8-151,56.8
			c-59,0-110.5-25.2-133-38v12.7c0,11-8.9,19.9-19.9,19.9h-58.2c-11,0-19.9-8.9-19.9-19.9v-588.2c0-11,8.9-19.9,19.9-19.9h58.2
			c11,0,19.9,8.9,19.9,19.9v501.5c16.8,8.3,60.8,27.1,113.8,27.1c82.2,0,115.9-41.6,115.9-117.8v-410.5c0-11,8.9-19.9,19.9-19.9
			h60.6c11,0,19.9,8.9,19.9,19.9v412.5c0,32.2-4.3,61-12.8,86c22.7,12.8,63.1,29.8,118.7,29.8c82.2,0,121.4-41.6,121.4-117.8v-410.5
			c0-11,8.9-19.9,19.9-19.9h60.6c11,0,19.9,8.9,19.9,19.9v412.5C2589.4,1965.1,2518.5,2038.9,2386.8,2038.9"/>
		<path id="path44" fill="#FFFFFF" d="M5330,1482.1h-42.5c-48.5,0-74.7,16.5-74.7,66.7V1949h107.9c11,0,19.9,8.9,19.9,19.9v44.6
			c0,11-8.9,19.9-19.9,19.9c0,0-56.2,0-107.9,0v120.9c0,19.1-14.3,26.6-31.7,18.5l-47.9-22.4c-11.5-5.4-18.8-16.9-18.8-29.5v-87.5
			h-89.8c-12.2,0-19.9-9.5-19.9-19.9v-25.4c0-8.9,4.7-17.2,16.1-19.6c11.4-2.4,91.8-19.4,91.8-19.4h1.8v-398.9
			c0-79.8,36.8-143.1,132.7-143.1c36.4,0,64,2,81.3,3.7c13.7,1.4,20.9,9.8,20.9,21.4v31.7C5349.3,1476,5339.6,1482.1,5330,1482.1"/>
		<path id="path46" fill="#FFFFFF" d="M5539.7,2033.5h-58.2c-11,0-19.9-8.9-19.9-19.9v-587.9c0-11,8.9-19.9,19.9-19.9h58.2
			c11,0,19.9,8.9,19.9,19.9v587.9C5559.6,2024.5,5550.7,2033.5,5539.7,2033.5"/>
		<path id="path48" fill="#FFFFFF" d="M5461.6,2209.8v-69.5c0-11,8.9-19.9,19.9-19.9h58.2c11,0,19.9,8.9,19.9,19.9v102.9
			c0,19.1-14.3,26.6-31.7,18.5l-47.9-22.4C5468.6,2233.9,5461.6,2222.4,5461.6,2209.8"/>
	</g>
</g>
</svg>
