<svg xmlns="http://www.w3.org/2000/svg" viewBox="1807.19 3575 24.491 19.055">
  <defs>
    <style>
      .cls-1 {
        fill: #231f20;
      }

      .cls-2 {
        fill: #f79410;
      }

      .cls-3 {
        fill: #ff5f00;
      }

      .cls-4 {
        fill: #eb001b;
      }

      .cls-5 {
        fill: #f79e1b;
      }
    </style>
  </defs>
  <g id="Mastercard-logo" transform="translate(3372.814 2468.252)">
    <g id="Group_221" data-name="Group 221" transform="translate(-1565.624 1106.748)">
      <g id="Group_217" data-name="Group 217" transform="translate(1.246 16.129)">
        <path id="Path_100" data-name="Path 100" class="cls-1" d="M-162.934-19.107v.05h.046a.048.048,0,0,0,.025-.006.022.022,0,0,0,.009-.019.021.021,0,0,0-.009-.018.044.044,0,0,0-.025-.006Zm.046-.035a.085.085,0,0,1,.055.016.053.053,0,0,1,.019.043.05.05,0,0,1-.015.038.075.075,0,0,1-.044.018l.061.07h-.047l-.056-.069h-.018v.069h-.039v-.185Zm-.012.249a.146.146,0,0,0,.06-.013.158.158,0,0,0,.049-.033.155.155,0,0,0,.033-.05.158.158,0,0,0,.012-.061.158.158,0,0,0-.012-.061.16.16,0,0,0-.033-.05.158.158,0,0,0-.049-.033.154.154,0,0,0-.06-.012.161.161,0,0,0-.061.012.157.157,0,0,0-.05.033.151.151,0,0,0-.033.05.15.15,0,0,0-.012.061.15.15,0,0,0,.012.061.146.146,0,0,0,.033.05.157.157,0,0,0,.05.033.153.153,0,0,0,.061.013m0-.356a.2.2,0,0,1,.079.016.2.2,0,0,1,.065.043.2.2,0,0,1,.043.064.191.191,0,0,1,.016.077.191.191,0,0,1-.016.077.207.207,0,0,1-.043.064.219.219,0,0,1-.065.043.2.2,0,0,1-.079.016.2.2,0,0,1-.08-.016.209.209,0,0,1-.065-.043.206.206,0,0,1-.043-.064.191.191,0,0,1-.016-.077.191.191,0,0,1,.016-.077.2.2,0,0,1,.043-.064.194.194,0,0,1,.065-.043.2.2,0,0,1,.08-.016m-18.754-.714a.6.6,0,0,1,.61-.644.6.6,0,0,1,.606.644.6.6,0,0,1-.606.644.6.6,0,0,1-.61-.644m1.627,0v-1.005h-.437v.244a.762.762,0,0,0-.635-.295,1.008,1.008,0,0,0-1.006,1.056,1.007,1.007,0,0,0,1.006,1.056.762.762,0,0,0,.635-.295v.244h.437Zm14.77,0a.6.6,0,0,1,.61-.644.6.6,0,0,1,.606.644.6.6,0,0,1-.606.644.6.6,0,0,1-.61-.644m1.628,0v-1.812h-.438v1.051a.762.762,0,0,0-.635-.295,1.008,1.008,0,0,0-1.006,1.056,1.007,1.007,0,0,0,1.006,1.056.762.762,0,0,0,.635-.295v.244h.438Zm-10.973-.664a.5.5,0,0,1,.509.488h-1.043a.518.518,0,0,1,.534-.488m.009-.391a.982.982,0,0,0-1,1.056.991.991,0,0,0,1.031,1.056,1.222,1.222,0,0,0,.824-.282l-.214-.324a.961.961,0,0,1-.585.21.558.558,0,0,1-.6-.492h1.493c0-.054.009-.109.009-.168a.964.964,0,0,0-.955-1.056m5.278,1.056a.6.6,0,0,1,.61-.644.6.6,0,0,1,.606.644.6.6,0,0,1-.606.644.6.6,0,0,1-.61-.644m1.627,0v-1.005h-.437v.244a.763.763,0,0,0-.635-.295,1.008,1.008,0,0,0-1.006,1.056,1.007,1.007,0,0,0,1.006,1.056.763.763,0,0,0,.635-.295v.244h.437Zm-4.1,0a1.016,1.016,0,0,0,1.072,1.056,1.052,1.052,0,0,0,.723-.24l-.21-.353a.883.883,0,0,1-.526.181.6.6,0,0,1-.606-.644.6.6,0,0,1,.606-.644.883.883,0,0,1,.526.181l.21-.353a1.052,1.052,0,0,0-.723-.24,1.016,1.016,0,0,0-1.072,1.056m5.635-1.056a.593.593,0,0,0-.53.295v-.244h-.433v2.01h.438v-1.127c0-.333.143-.517.429-.517a.709.709,0,0,1,.273.051l.135-.412a.931.931,0,0,0-.311-.055m-11.717.21a1.5,1.5,0,0,0-.82-.21c-.509,0-.837.244-.837.644,0,.328.244.53.694.593l.207.029c.24.034.353.1.353.21,0,.155-.16.244-.458.244a1.071,1.071,0,0,1-.669-.21l-.206.34a1.45,1.45,0,0,0,.87.261c.581,0,.917-.273.917-.656,0-.353-.265-.538-.7-.6l-.206-.03c-.189-.025-.341-.063-.341-.2s.143-.235.383-.235a1.3,1.3,0,0,1,.627.172Zm5.64-.21a.592.592,0,0,0-.529.295v-.244h-.433v2.01h.437v-1.127c0-.333.143-.517.429-.517a.709.709,0,0,1,.273.051l.135-.412a.931.931,0,0,0-.311-.055m-3.73.051h-.715v-.61h-.442v.61h-.408v.4h.408v.917c0,.466.181.744.7.744a1.026,1.026,0,0,0,.547-.155l-.126-.374a.809.809,0,0,1-.387.114c-.219,0-.29-.135-.29-.336v-.908h.715Zm-6.535,2.01v-1.262a.748.748,0,0,0-.791-.8.778.778,0,0,0-.707.358.738.738,0,0,0-.664-.358.665.665,0,0,0-.589.3v-.248h-.438v2.01h.441v-1.114a.47.47,0,0,1,.492-.534c.29,0,.437.189.437.53v1.119h.442v-1.114a.474.474,0,0,1,.492-.534c.3,0,.441.189.441.53v1.119Z" transform="translate(185.679 21.774)"/>
      </g>
      <g id="Group_218" data-name="Group 218" transform="translate(23.623 11.968)">
        <path id="Path_101" data-name="Path 101" class="cls-2" d="M-4.569-2.1V-2.4h-.077l-.089.2-.088-.2H-4.9V-2.1h.054v-.221l.083.191h.056l.083-.192V-2.1Zm-.486,0v-.244h.1V-2.4h-.25v.05h.1V-2.1Z" transform="translate(5.207 2.397)"/>
      </g>
      <path id="Path_102" data-name="Path 102" class="cls-3" d="M3349.628,2159.477H3343v-11.905h6.624Z" transform="translate(-3334.071 -2145.952)"/>
      <g id="Group_219" data-name="Group 219" transform="translate(0 0)">
        <path id="Path_103" data-name="Path 103" class="cls-4" d="M-67.034-54.238a7.558,7.558,0,0,1,2.892-5.952,7.538,7.538,0,0,0-4.679-1.619,7.571,7.571,0,0,0-7.57,7.571,7.571,7.571,0,0,0,7.57,7.571,7.538,7.538,0,0,0,4.679-1.619,7.558,7.558,0,0,1-2.892-5.952" transform="translate(76.392 61.809)"/>
      </g>
      <g id="Group_220" data-name="Group 220" transform="translate(12.242 0)">
        <path id="Path_104" data-name="Path 104" class="cls-5" d="M-87.752-54.238a7.571,7.571,0,0,1-7.57,7.571A7.54,7.54,0,0,1-100-48.285a7.557,7.557,0,0,0,2.892-5.952A7.557,7.557,0,0,0-100-60.19a7.54,7.54,0,0,1,4.679-1.619,7.571,7.571,0,0,1,7.57,7.571" transform="translate(100.001 61.809)"/>
      </g>
    </g>
  </g>
</svg>
