<svg width="92" height="25" viewBox="0 0 92 25" fill="none" xmlns="http://www.w3.org/2000/svg">
<path fill-rule="evenodd" clip-rule="evenodd" d="M21.4592 23.939V10.878C21.4592 9.04679 20.1843 7.9145 17.8827 7.9145C15.6228 7.9145 14.3061 9.24017 14.3061 10.9176V23.939H10.6878V10.878C10.6878 9.04679 9.49648 7.9145 7.15307 7.9145C4.89317 7.9145 3.53477 9.24017 3.53477 10.9176V23.939H0V5.30278H3.16631L3.28913 7.05713C4.48049 5.69419 5.75537 4.9137 8.34443 4.9137C10.4815 4.9137 12.2084 6.00638 13.073 7.36932C14.2251 5.96677 16.033 4.9137 19.0347 4.9137C22.5302 4.9137 24.9964 7.29244 24.9964 10.5682V23.9413H21.4592V23.939Z" fill="#191919"/>
<path fill-rule="evenodd" clip-rule="evenodd" d="M43.9451 12.828L41.3143 15.4397H32.0659C32.147 18.091 33.9574 21.3668 37.8631 21.3668C40.0001 21.3668 41.6459 20.7424 43.1247 19.5332L42.3435 23.198C41.2333 23.8597 39.671 24.3676 37.3693 24.3676C32.4762 24.3676 28.3666 20.4698 28.3666 14.6592C28.3666 8.49918 32.6014 4.91125 36.711 4.91125C41.3561 4.91125 43.9869 8.45957 43.9869 11.9287C43.9869 12.164 43.9869 12.5927 43.9451 12.828ZM36.8338 7.83751C34.7385 7.83751 32.6825 9.98094 32.2305 12.6323H40.3293C40.4128 12.4762 40.4128 12.164 40.4128 12.0079C40.4104 10.0602 39.0127 7.83751 36.8338 7.83751Z" fill="#191919"/>
<path fill-rule="evenodd" clip-rule="evenodd" d="M57.8805 8.07049H52.496V18.9111C52.496 20.3533 53.5646 21.2503 55.004 21.2503C55.7434 21.2503 56.36 21.1338 56.8537 20.9008L56.2789 23.9412C55.8687 24.0973 55.3332 24.1765 54.552 24.1765C51.4275 24.1765 48.9613 22.3057 48.9613 18.8739V8.07049H45.6721V5.30267H48.9613V1.79396L52.496 0V5.30267H58.3742L57.8805 8.07049Z" fill="#191919"/>
<path fill-rule="evenodd" clip-rule="evenodd" d="M70.5826 8.0309C67.7873 8.0309 64.6652 9.82486 64.6652 14.4635V23.9389H61.0469V5.30268H64.4588L64.5816 8.11011C65.4856 5.96668 67.748 5.0697 70.3788 5.0697L70.9536 8.03323H70.5826V8.0309Z" fill="#191919"/>
<path fill-rule="evenodd" clip-rule="evenodd" d="M81.312 24.603C75.311 24.603 70.5824 20.1181 70.5824 14.466C70.5824 8.77421 75.311 4.28931 81.312 4.28931C87.2737 4.28931 91.9998 8.77421 91.9998 14.466C91.9998 20.1181 87.2737 24.603 81.312 24.603ZM84.272 6.19976C84.8075 6.94064 85.2988 7.83762 85.7114 8.7346C86.328 8.50162 86.9028 8.18942 87.399 7.87723C86.4926 7.13401 85.424 6.55156 84.272 6.19976ZM88.2587 8.69499C87.6422 9.08407 86.9028 9.43587 86.0824 9.78768C86.6572 11.2298 86.9863 12.672 87.1091 13.8812H90.4376C90.3148 11.8915 89.5336 10.0603 88.2587 8.69499ZM82.5869 5.84795C82.3388 5.76874 82.0931 5.73146 81.8868 5.73146V9.74807C82.7908 9.67119 83.7365 9.47548 84.6011 9.20289C84.0681 7.95411 83.368 6.82415 82.5869 5.84795ZM85.0114 10.1768C83.9428 10.6054 82.8743 10.8408 81.8868 10.9176V13.8788H85.8736C85.795 12.6324 85.5051 11.4255 85.0114 10.1768ZM80.6954 5.73146C80.4916 5.73146 80.2435 5.77107 79.9954 5.84795C79.2142 6.82415 78.5166 7.95411 77.9811 9.20056C78.8458 9.47315 79.8308 9.66886 80.6954 9.74574V5.73146ZM87.1091 15.0111C87.0256 16.1807 86.6989 17.6625 86.0824 19.1046C86.9028 19.4564 87.6446 19.8455 88.2587 20.195C89.5336 18.8297 90.3148 17.0357 90.4376 15.0088H87.1091V15.0111ZM75.1882 7.87723C75.6819 8.18942 76.2567 8.50162 76.8733 8.7346C77.2835 7.83762 77.7772 6.94064 78.352 6.19976C77.1607 6.55156 76.0921 7.13401 75.1882 7.87723ZM81.8893 15.0111V17.9747C82.8767 18.0539 83.9453 18.3265 85.0138 18.7155C85.5076 17.4691 85.795 16.1807 85.876 15.0111H81.8893ZM80.6954 10.9176C79.708 10.8384 78.6394 10.6054 77.5709 10.1768C77.0772 11.4255 76.7897 12.6324 76.7087 13.8812H80.6954V10.9176ZM85.6697 20.1181C85.2988 21.0547 84.8468 21.9121 84.272 22.6925C85.4216 22.3431 86.4926 21.7956 87.3965 21.0151C86.9028 20.7029 86.328 20.3907 85.6697 20.1181ZM74.3653 8.69499C73.0511 10.0603 72.2675 11.8915 72.1447 13.8788H75.4731C75.5959 12.6697 75.9251 11.2275 76.5023 9.78535C75.6819 9.43587 74.9401 9.08407 74.3653 8.69499ZM81.8893 19.1442V23.1608C82.0956 23.1608 82.3412 23.1212 82.5893 23.0816C83.3705 22.0705 84.0681 20.8986 84.6036 19.6894C83.6972 19.4168 82.7932 19.2211 81.8893 19.1442ZM80.6954 15.0111H76.7087C76.7897 16.1807 77.0772 17.4668 77.5709 18.7155C78.6394 18.3265 79.708 18.0539 80.6954 17.9747V15.0111ZM80.6954 19.1442C79.8308 19.2211 78.9293 19.4168 77.9811 19.6894C78.5166 20.8986 79.2142 22.0681 79.9954 23.0816C80.2435 23.1212 80.4891 23.1608 80.6954 23.1608V19.1442ZM76.9126 20.1181C76.296 20.3907 75.6794 20.7029 75.1857 21.0151C76.0921 21.7932 77.1607 22.3407 78.352 22.6925C77.7772 21.9121 77.2835 21.0547 76.9126 20.1181ZM75.4756 15.0111H72.1447C72.2675 17.0381 73.0486 18.832 74.3653 20.1973C74.9401 19.8455 75.6819 19.4564 76.5023 19.1069C75.8858 17.6625 75.5566 16.1807 75.4756 15.0111Z" fill="#191919"/>
</svg>
