<svg width="86" height="55" viewBox="0 0 86 55" fill="none" xmlns="http://www.w3.org/2000/svg">
<rect width="86" height="55" rx="2" fill="#E7712F"/>
<line x1="52.8093" y1="2.90548e-08" x2="52.8093" y2="55" stroke="white"/>
<line x1="53.1959" y1="8.5" x2="86" y2="8.5" stroke="white"/>
<line x1="53.1959" y1="17.5" x2="86" y2="17.5" stroke="white"/>
<line x1="53.1959" y1="26.5" x2="86" y2="26.5" stroke="white"/>
<line x1="53.1959" y1="38.5" x2="86" y2="38.5" stroke="white"/>
<line x1="69.6546" y1="9" x2="69.6546" y2="45" stroke="white"/>
<line x1="69.5412" y1="55" x2="69.5412" y2="-2.46512e-08" stroke="white"/>
<line x1="33.5" y1="2.90548e-08" x2="33.5" y2="32" stroke="white"/>
<line x1="33.5" y1="49" x2="33.5" y2="55" stroke="white"/>
<path d="M24.9268 9.00744C24.9674 8.99551 25.0023 9.02088 25.0333 9.04961C25.0684 9.08204 25.1064 9.10714 25.1397 9.13597C25.1544 9.14861 25.1667 9.16354 25.1788 9.17867C25.1989 9.20395 25.2193 9.22695 25.241 9.24865C25.2988 9.30645 25.363 9.35767 25.4207 9.41547C26.0662 10.0611 26.711 10.7061 27.3399 11.3352C27.5474 11.5428 27.755 11.7504 27.9625 11.958C28.0316 12.0272 28.0143 12.1136 27.9452 12.1828C27.8933 12.2347 27.8414 12.3039 27.7895 12.3731C27.0805 13.1861 26.6309 14.1202 26.4234 15.1927C26.3197 15.7635 26.2851 16.3344 26.3542 16.9052C26.4926 18.1852 26.9941 19.2923 27.8414 20.261C27.876 20.2956 27.9106 20.3302 27.9452 20.3648C28.0143 20.4513 28.0316 20.5551 27.9279 20.6589C26.9941 21.593 26.043 22.5443 25.1092 23.4784C25.0919 23.4957 25.0746 23.513 25.0573 23.5303C24.9708 23.5995 24.9016 23.5995 24.8152 23.513C24.1062 22.8038 23.5182 21.9908 23.0686 21.0913C22.5671 20.1226 22.2213 19.0847 22.0483 18.0123C21.91 17.2339 21.8754 16.4381 21.9273 15.6424C22.1002 13.1515 23.0513 11.0066 24.746 9.17298C24.7806 9.13838 24.7979 9.08649 24.8498 9.08649C24.8628 9.08649 24.8759 9.0569 24.8889 9.03496C24.8963 9.02255 24.9129 9.01152 24.9268 9.00744V9.00744Z" fill="white"/>
<path d="M20.613 31.0031C20.2845 31.0031 19.8176 30.9858 19.3334 30.9166C18.2093 30.7609 17.1545 30.4495 16.1342 29.9479C15.2868 29.5327 14.526 29.0138 13.817 28.3911C13.7305 28.3219 13.644 28.2527 13.5749 28.1662V28.1662C13.5114 28.1027 13.4336 28.0237 13.4519 27.9358C13.4568 27.9124 13.4689 27.8873 13.4884 27.8548V27.8548C13.5563 27.7529 13.6531 27.6728 13.7397 27.5862C14.388 26.9377 15.0363 26.2892 15.6846 25.6407C15.8748 25.4504 16.0823 25.2428 16.2725 25.0525C16.3244 25.0007 16.359 24.9661 16.4109 24.9315C16.4195 24.9257 16.4282 24.9204 16.4368 24.9158C16.5205 24.8717 16.6045 24.96 16.6802 25.0168C16.7115 25.0402 16.7428 25.0637 16.774 25.0871C17.6041 25.831 18.5898 26.298 19.6965 26.4883C21.4477 26.7915 23.2318 26.3074 24.5856 25.1478C24.6586 25.0853 24.7288 25.0193 24.801 24.9558C24.811 24.9471 24.8213 24.9389 24.8325 24.9315C24.9189 24.8623 24.9708 24.8796 25.0573 24.9488C25.2648 25.1563 25.4896 25.3639 25.6971 25.5888C26.4061 26.298 27.1151 26.9899 27.8068 27.6991C27.8587 27.751 27.8933 27.7856 27.9452 27.8375C27.9699 27.8684 27.9858 27.8949 27.9928 27.9193C28.0191 28.0102 27.9199 28.0864 27.8513 28.1516C27.8271 28.1746 27.8012 28.1963 27.7722 28.2181C27.0459 28.8927 26.2332 29.4462 25.3513 29.896C24.4001 30.363 23.3972 30.6917 22.3423 30.8647C21.8408 30.9685 21.3047 30.9858 20.613 31.0031Z" fill="white"/>
<path d="M6.12232 12.1894C6.05847 12.1393 6.05989 12.0316 6.11381 11.971C6.21459 11.8578 6.31007 11.7522 6.41562 11.6466C6.83065 11.2314 7.24568 10.8163 7.6607 10.4011C8.05844 10.0033 8.45617 9.60543 8.85391 9.20757C8.88666 9.17481 8.9263 9.14205 8.96413 9.10929C9.00693 9.07223 9.04784 9.02015 9.10406 9.01352V9.01352C9.17535 9.0051 9.23416 9.0657 9.28927 9.1117C9.3187 9.13627 9.3457 9.16327 9.37269 9.19027C9.89147 9.65732 10.4621 10.0033 11.0847 10.2628C11.1375 10.2804 11.1904 10.298 11.2432 10.3133C11.3436 10.3425 11.4457 10.366 11.5449 10.3987C11.6523 10.4341 11.7622 10.4695 11.8801 10.5049C12.0531 10.5568 12.2433 10.5914 12.4162 10.626C12.814 10.6952 13.2117 10.7125 13.6094 10.6952C14.7508 10.626 15.8056 10.28 16.7394 9.62272C16.9123 9.50164 17.0853 9.34596 17.2409 9.22487C17.3101 9.17298 17.3793 9.10378 17.4657 9.05189C17.5349 9 17.5695 9 17.6386 9.05189C17.6905 9.08649 17.7424 9.13838 17.7943 9.19027C18.5379 9.93409 19.2815 10.6779 20.0251 11.439C20.1807 11.5947 20.3363 11.7504 20.492 11.9061C20.5265 11.9407 20.5611 11.9753 20.5784 12.0099C20.613 12.079 20.613 12.1482 20.5438 12.2174C20.4747 12.2866 20.4228 12.3385 20.3536 12.4077C19.1085 13.5494 17.6386 14.3451 15.9785 14.7775C14.941 15.0543 13.8861 15.1408 12.7967 15.0889C10.6524 14.9851 8.71556 14.2586 7.00358 12.9612C6.6998 12.7418 6.41249 12.4894 6.15773 12.2201C6.14527 12.2069 6.13659 12.2005 6.12232 12.1894V12.1894Z" fill="white"/>
<path d="M6.00062 23.7552C5.98332 22.0946 6.32918 20.5551 7.03819 19.0847C7.50509 18.116 8.11034 17.2511 8.85393 16.4727V16.4727C8.89999 16.4267 8.9453 16.3723 9.00878 16.3577C9.04224 16.35 9.07515 16.3576 9.11332 16.3862C9.1652 16.4208 9.19979 16.4554 9.23437 16.49C10.1336 17.3722 11.0155 18.2717 11.8975 19.1712C11.9036 19.1774 11.9098 19.183 11.9159 19.1883C11.9649 19.2308 12.0107 19.2763 12.0368 19.3357V19.3357C12.0483 19.3619 12.0614 19.3912 12.0675 19.4191C12.0796 19.4743 12.0603 19.5273 12.0185 19.5691C11.3268 20.3129 10.8426 21.1778 10.5832 22.1811C10.4276 22.7865 10.3757 23.4092 10.4103 24.032C10.4967 25.312 10.9464 26.4364 11.7591 27.4397C11.8456 27.5435 11.932 27.6472 12.0185 27.751C12.105 27.8548 12.105 27.9067 12.0012 28.0105C11.9666 28.0451 11.932 28.0797 11.8975 28.1143C11.0674 28.9446 10.2374 29.7749 9.4073 30.6052C9.36321 30.6493 9.31913 30.6934 9.27952 30.7375C9.23599 30.786 9.19396 30.8359 9.14791 30.882V30.882C9.04415 30.9685 8.99227 30.9685 8.88852 30.8647C8.71559 30.6917 8.54266 30.5014 8.38702 30.3111C7.29758 28.9965 6.57128 27.5089 6.20813 25.8483C6.08708 25.1217 6.00062 24.4298 6.00062 23.7552Z" fill="white"/>
<path d="M44.4171 45.0227C44.3337 45.0227 44.2443 45.0143 44.1614 45.0053V45.0053C44.0934 44.998 44.0317 44.9878 43.9636 44.9811C43.611 44.9463 43.2607 44.8823 42.9373 44.7646C42.2601 44.5066 41.8893 44.0066 41.7764 43.3131C41.6958 42.8615 41.728 42.4099 41.857 41.9745C42.0021 41.4745 42.3407 41.1519 42.8083 40.9261C43.0985 40.781 43.4049 40.7165 43.7273 40.6681C44.2272 40.6036 44.727 40.5552 45.2268 40.5068C45.5009 40.4746 45.7589 40.4584 46.033 40.4262V40.4262C46.0873 40.4262 46.1297 40.366 46.1297 40.3117C46.1297 40.1716 46.1297 40.0381 46.1297 39.8939C46.1297 39.8133 46.1136 39.7327 46.0975 39.6681C46.0652 39.4746 45.9523 39.3456 45.775 39.2649C45.6299 39.2004 45.4686 39.1682 45.3074 39.152C44.5819 39.0875 43.8724 39.1843 43.163 39.3456C42.9595 39.3926 42.7559 39.4396 42.5523 39.4718C42.5403 39.4737 42.5291 39.4766 42.5173 39.4795V39.4795C42.4324 39.5004 42.3517 39.4381 42.3275 39.3541C42.2611 39.1235 42.181 38.7338 42.1555 38.5002C42.1473 38.4254 42.1886 38.3533 42.2601 38.3295V38.3295C42.7922 38.1521 43.3404 38.0231 43.9047 37.9586C44.34 37.9102 44.7753 37.8779 45.2268 37.8779C45.7427 37.8779 46.2748 37.9102 46.7746 38.0876C47.081 38.2005 47.3551 38.3618 47.5808 38.6037V38.6037C47.6131 38.6361 47.6507 38.6633 47.6877 38.6902C47.833 38.7959 47.9153 38.9443 47.9725 39.1165C47.9803 39.14 48 39.1596 48 39.1843V39.1843C48 40.6666 48 42.1489 48 43.6182C48 43.8245 47.8555 44.0106 47.7743 44.2001V44.2001C47.6614 44.4259 47.4841 44.5872 47.2261 44.6679C46.7908 44.813 46.3393 44.9098 45.8717 44.9582C45.7105 44.9743 45.5493 44.9904 45.388 45.0066C45.0467 45.0208 44.7304 45.0225 44.4171 45.0227ZM46.1136 41.7325C46.1136 41.6435 46.0414 41.5713 45.9523 41.5713V41.5713C45.4525 41.6197 44.9527 41.6842 44.469 41.7325C44.3078 41.7487 44.1304 41.7971 43.9853 41.8777C43.7918 41.9745 43.6628 42.1196 43.5822 42.3293C43.5016 42.5712 43.4694 42.8293 43.5177 43.0712C43.5983 43.4421 43.8079 43.7002 44.1949 43.7969C44.2594 43.8131 44.3239 43.8292 44.4045 43.8453C44.7915 43.926 45.1784 43.8937 45.5654 43.8292V43.8292C45.8912 43.7749 46.1238 43.4711 46.1198 43.1408C46.1142 42.6748 46.1136 42.2069 46.1136 41.7325Z" fill="white"/>
<path d="M3.00051 41.3681C2.9995 41.2459 3.01875 41.1253 3.04837 41.0068V41.0068C3.22572 39.7649 3.87065 38.8295 4.98316 38.265C7.04693 37.2167 9.61053 38.3618 10.0942 40.7649C10.4973 42.7486 9.19133 44.5872 7.27266 44.9743C7.25129 44.9774 7.22992 44.9804 7.20855 44.9836C7.02467 45.0108 6.83977 45.0388 6.65388 45.0388C6.53103 45.0388 6.40752 45.0388 6.28914 45.0388C6.16016 45.0227 6.04729 45.0066 5.91831 44.9743C4.3866 44.6517 3.27409 43.4744 3.06449 41.9261V41.9261C3.06449 41.8238 3.01142 41.7294 3.00684 41.6273C3.00287 41.539 3.00121 41.4531 3.00051 41.3681ZM6.269 39.4024C6.29439 39.4073 6.28156 39.4394 6.25624 39.4447C5.73368 39.5537 5.28598 39.8091 4.96704 40.2649C4.62845 40.7326 4.48334 41.2648 4.5962 41.8454C4.82193 42.9583 5.7732 43.4744 6.54711 43.4905C7.51451 43.5066 8.3368 42.8615 8.56252 41.91C8.67538 41.4422 8.61089 41.0068 8.40129 40.5713C8.08274 39.9492 7.56441 39.5983 6.91341 39.4515C6.88465 39.445 6.87773 39.4043 6.90646 39.3977V39.3977C6.93268 39.3916 6.94121 39.3565 6.91522 39.3496C6.71214 39.2954 6.41465 39.3032 6.25036 39.3593C6.22708 39.3673 6.24485 39.3977 6.269 39.4024V39.4024Z" fill="white"/>
<path d="M22.0899 44.2808C22.0899 44.5887 21.8335 44.8438 21.5256 44.8509C21.2855 44.8565 21.0454 44.8571 20.8016 44.854C20.5603 44.8509 20.3486 44.6672 20.3486 44.4259V44.4259C20.3486 44.2001 20.3486 43.9743 20.3486 43.7485C20.3486 42.7002 20.3486 41.668 20.3486 40.6197C20.3486 40.41 20.3486 40.2004 20.3486 39.9907C20.3486 39.8294 20.3164 39.6681 20.2519 39.523C20.139 39.2972 19.9617 39.152 19.7198 39.1198C19.4457 39.0714 19.1555 39.0714 18.8814 39.1036C18.5285 39.1518 18.1596 39.2159 17.8066 39.2801C17.803 39.2807 17.8008 39.2808 17.7971 39.2814V39.2814C17.7636 39.2864 17.7366 39.3247 17.7366 39.3586C17.7366 39.3865 17.7366 39.4144 17.7366 39.4423C17.7366 40.8455 17.7366 42.2486 17.7366 43.6518C17.7366 43.9098 17.7366 44.1679 17.7366 44.4259C17.7366 44.5388 17.7366 44.6517 17.6722 44.7485C17.6399 44.7969 17.6077 44.8291 17.5432 44.8291C17.2368 44.8291 16.9305 44.8614 16.6241 44.8453C16.4347 44.8453 16.2453 44.7989 16.0559 44.7667C16.0478 44.7653 16.037 44.7648 16.0289 44.7633V44.7633C15.9897 44.7563 15.9792 44.71 15.9792 44.6702C15.9792 44.4974 15.9792 44.3246 15.9792 44.1517C15.9792 43.5227 15.9953 42.8938 15.9953 42.2648C15.9953 41.7003 15.9953 41.1197 15.9953 40.5552C15.9953 40.3133 15.9953 40.0875 15.9792 39.8455C15.9631 39.7165 15.9308 39.5875 15.8825 39.4746C15.818 39.3133 15.7051 39.2004 15.5439 39.1359C15.431 39.1036 15.302 39.0714 15.1892 39.0553C14.77 39.023 14.3508 39.0714 13.9477 39.152C13.792 39.1832 13.6364 39.2143 13.4953 39.2454C13.4852 39.2477 13.4757 39.2484 13.4655 39.2498V39.2498C13.4125 39.2572 13.3834 39.3149 13.3834 39.3684C13.3834 39.5329 13.3834 39.6973 13.3834 39.8617C13.3834 41.1197 13.3834 42.3777 13.3834 43.6356C13.3834 43.9421 13.3834 44.2485 13.3834 44.5549C13.3834 44.6033 13.3834 44.6517 13.3672 44.7001C13.3511 44.7646 13.3189 44.813 13.2383 44.813C13.1093 44.8291 12.9642 44.8291 12.8352 44.8453C12.5933 44.8453 12.3515 44.8453 12.1096 44.8453C11.9806 44.8453 11.8517 44.813 11.7227 44.7969C11.6582 44.7807 11.6259 44.7324 11.6098 44.6517C11.5614 44.2969 11.5614 43.9421 11.5614 43.5873C11.5614 43.3292 11.5614 43.0712 11.5614 42.797C11.5614 42.0551 11.5614 41.3132 11.5614 40.5713C11.5614 40.2326 11.5453 39.8939 11.5614 39.5552C11.5614 39.2811 11.5776 38.9907 11.6904 38.7327V38.7327C11.7254 38.6276 11.808 38.5445 11.8987 38.481C11.9995 38.4103 12.111 38.358 12.2225 38.3134C12.5933 38.1843 12.9642 38.1037 13.3511 38.0392C14.0444 37.9102 14.7377 37.8618 15.4471 37.8779C15.9631 37.894 16.4468 37.9908 16.8821 38.265C16.9305 38.2972 16.9789 38.2972 17.0433 38.2811C17.4948 38.1521 17.9462 38.0392 18.3977 37.9747C19.0426 37.8779 19.7037 37.8457 20.3486 37.9102C20.6388 37.9424 20.9129 38.0231 21.187 38.136C21.5579 38.2972 21.7997 38.5714 21.9448 38.9424C22.0416 39.2004 22.0899 39.4746 22.0899 39.7488C22.0899 41.2648 22.0899 42.7647 22.0899 44.2808V44.2808Z" fill="white"/>
<path d="M28.6912 44.8619C28.3656 44.8528 28.0878 44.6387 28.0878 44.313V44.313C28.0878 43.2325 28.0878 42.1357 28.0878 41.0552C28.0878 40.6681 28.0878 40.2971 28.0878 39.9101C28.0878 39.7649 28.0555 39.6198 27.991 39.4907C27.8782 39.2811 27.717 39.152 27.4751 39.1359C26.9108 39.0714 26.3787 39.1359 25.8305 39.2649C25.779 39.2735 25.732 39.2867 25.6823 39.2996C25.6016 39.3205 25.5403 39.3913 25.5403 39.4746V39.4746C25.5403 40.9261 25.5403 42.3938 25.5403 43.8453C25.5403 44.1034 25.5403 44.3614 25.5242 44.6195V44.6195C25.5242 44.7445 25.4074 44.8614 25.2823 44.8614V44.8614C24.8631 44.8614 24.4278 44.8614 24.0086 44.8614C23.8312 44.8614 23.7829 44.813 23.7829 44.6356C23.7829 44.4098 23.7829 44.184 23.7829 43.9582C23.7829 43.1518 23.7829 42.3454 23.7829 41.539C23.7829 40.7003 23.7829 39.8617 23.7829 39.0391C23.7829 38.7972 23.8796 38.6198 24.0731 38.4908C24.1537 38.4424 24.2505 38.394 24.3472 38.3618C24.8148 38.2005 25.2823 38.0876 25.766 38.0231C26.3465 37.9424 26.943 37.8779 27.5396 37.894C27.9427 37.9102 28.3296 37.9263 28.7166 38.0715C28.8295 38.1198 28.9584 38.1521 29.0713 38.2166C29.3293 38.3456 29.5228 38.5553 29.6517 38.7972C29.813 39.1037 29.8775 39.4262 29.8775 39.7649C29.8775 40.2971 29.8775 40.8294 29.8775 41.3777C29.8775 42.168 29.8775 42.9583 29.8775 43.7486C29.8775 44.055 29.8775 44.3614 29.8613 44.6679C29.8613 44.813 29.813 44.8614 29.6679 44.8775C29.3371 44.8775 29.0129 44.8709 28.6912 44.8619Z" fill="white"/>
<path d="M37.8292 43.6357C37.8342 43.6357 37.8433 43.6323 37.8447 43.6275C37.9084 43.4044 37.9719 43.1812 38.0197 42.9422C38.3905 41.3777 38.7614 39.8133 39.1161 38.2489V38.2489C39.1447 38.1632 39.206 38.0942 39.2953 38.0805C39.3376 38.074 39.38 38.0675 39.4204 38.061C39.4432 38.0573 39.4663 38.0553 39.4894 38.0553C39.8809 38.0553 40.2724 38.0553 40.6639 38.0553V38.0553C40.7192 38.0553 40.773 38.0741 40.8251 38.0925C40.9214 38.1264 40.9479 38.183 40.9219 38.3134C40.8735 38.5231 40.8251 38.7166 40.7607 38.9263C40.2286 40.7649 39.6804 42.6196 39.1483 44.4582C39.1297 44.5141 39.1111 44.5646 39.0925 44.6159C39.0644 44.6932 39.0391 44.7855 38.9727 44.8339V44.8339C38.8953 44.8903 38.7939 44.8614 38.6982 44.8614C38.0366 44.8614 37.3741 44.8614 36.6976 44.8614C36.6613 44.8614 36.6296 44.8546 36.6016 44.8419C36.5045 44.7977 36.4645 44.6841 36.427 44.5842C36.4116 44.5431 36.3983 44.5007 36.3913 44.4582C35.8269 42.6035 35.2788 40.7326 34.7306 38.8779C34.6822 38.7166 34.6338 38.5553 34.6016 38.394C34.5855 38.3456 34.5855 38.3134 34.5855 38.265C34.5855 38.1521 34.6177 38.1037 34.7306 38.0715C34.7789 38.0553 34.8273 38.0553 34.8757 38.0553C35.2465 38.0553 35.6173 38.0553 36.0043 38.0553C36.0204 38.0553 36.0365 38.0553 36.0527 38.0553C36.3106 38.0876 36.3268 38.0876 36.3913 38.3456C36.7782 39.7972 37.149 41.2326 37.536 42.6841C37.6005 42.9583 37.6811 43.2163 37.7617 43.4905C37.7759 43.533 37.79 43.5754 37.8151 43.6179C37.8196 43.6256 37.8202 43.6357 37.8292 43.6357V43.6357Z" fill="white"/>
<path d="M31.5809 44.833C31.5681 44.8309 31.5524 44.8199 31.55 44.8071C31.5354 44.7312 31.522 44.6431 31.522 44.555C31.522 44.3775 31.522 44.184 31.522 44.0066C31.522 42.3454 31.522 40.7003 31.522 39.0391C31.522 38.8456 31.522 38.6359 31.522 38.4424C31.522 38.3955 31.5275 38.3485 31.5321 38.2984C31.5378 38.2356 31.5879 38.1682 31.651 38.1682V38.1682C32.1186 38.1682 32.57 38.1682 33.0376 38.1682C33.1666 38.1682 33.215 38.2166 33.2311 38.3456C33.2311 38.4101 33.2311 38.4747 33.2311 38.523C33.2311 39.3133 33.2311 40.1197 33.2311 40.91C33.2311 42.1035 33.2311 43.3131 33.2311 44.5066C33.2311 44.5139 33.2311 44.5212 33.2311 44.5286C33.2307 44.633 33.2287 44.7728 33.1293 44.8049C33.1119 44.8105 33.0921 44.813 33.0699 44.813C32.5795 44.8447 32.1046 44.8297 31.6148 44.8139C31.5993 44.8134 31.5962 44.8355 31.5809 44.833V44.833Z" fill="white"/>
<path d="M32.3766 37.136C31.8284 37.136 31.3769 36.6683 31.3769 36.1038C31.3769 35.5716 31.8606 35.1039 32.4088 35.1039C32.9409 35.1039 33.4246 35.5877 33.4084 36.1038C33.3923 36.6844 32.9409 37.136 32.3766 37.136Z" fill="white"/>
<rect x="38" y="18" width="10" height="13" rx="1" fill="white"/>
</svg>
