<?xml version="1.0" encoding="utf-8"?>
<!-- Generator: Adobe Illustrator 19.2.1, SVG Export Plug-In . SVG Version: 6.00 Build 0)  -->
<svg version="1.1" id="Layer_1" xmlns="http://www.w3.org/2000/svg" xmlns:xlink="http://www.w3.org/1999/xlink" x="0px" y="0px"
	 viewBox="0 0 240.5 59.7" style="enable-background:new 0 0 240.5 59.7;" xml:space="preserve">
<style type="text/css">
	.st0{fill:#C94918;}
	.st1{fill:#C2042F;}
	.st2{fill:#CC5B1A;}
	.st3{fill:#C4085B;}
</style>
<path class="st0" d="M43.2,19.8c0.1-7.4,2.6-13.9,7.7-19.3c0.6-0.6,0.6-0.6,1.2,0c2.4,2.4,4.9,4.9,7.3,7.3c0.4,0.4,0.5,0.7,0,1.1
	c-3.1,3.4-4.5,7.5-4.2,12c0.2,3.7,1.6,6.9,4.1,9.7c0.6,0.7,0.6,0.7,0,1.3c-2.4,2.4-4.8,4.8-7.2,7.2c-0.6,0.6-0.7,0.6-1.2,0
	c-4.4-4.7-6.9-10.3-7.5-16.7C43.2,21.5,43.2,20.6,43.2,19.8z"/>
<path class="st1" d="M40,59.7c-7.4-0.1-13.8-2.6-19.2-7.6c-0.7-0.6-0.7-0.7,0-1.3c2.4-2.4,4.8-4.8,7.2-7.3c0.4-0.4,0.7-0.5,1.2,0
	c6.2,5.6,15.5,5.6,21.7,0c0.5-0.4,0.7-0.4,1.2,0c2.4,2.5,4.9,4.9,7.3,7.3c0.6,0.6,0.6,0.6,0,1.2C54.6,56.5,49,59,42.5,59.6
	C41.7,59.7,40.8,59.7,40,59.7z"/>
<path class="st2" d="M20.1,16.6C12.5,16.5,6.1,14,0.7,9C0,8.4,0,8.3,0.7,7.6c2.4-2.4,4.8-4.8,7.2-7.2c0.6-0.6,0.6-0.6,1.3-0.1
	C15.3,6,24.5,6,30.8,0.4C31.2,0,31.5,0,32,0.4c2.4,2.5,4.9,4.9,7.3,7.3c0.4,0.4,0.4,0.7,0,1.1c-4.8,4.5-10.5,7.1-17.1,7.6
	C21.4,16.5,20.7,16.6,20.1,16.6z"/>
<path class="st3" d="M0,39.2c0.1-6.9,2.6-13.4,7.6-18.8c0.6-0.6,0.7-0.6,1.2,0c2.4,2.4,4.8,4.8,7.3,7.2c0.4,0.4,0.5,0.7,0.1,1.2
	c-5.6,6.4-5.6,15.3,0,21.7c0.4,0.4,0.4,0.7,0,1.1c-2.5,2.5-4.9,4.9-7.4,7.4c-0.4,0.4-0.7,0.4-1.2,0C2.8,53.9,0,46.9,0,39.2z"/>
<path class="st1" d="M106.1,31.4c0-3.3,0-6.6,0-10c0-1.4,0.6-2.3,1.8-2.7c4.8-1.6,9.7-2.3,14.8-1.5c0.6,0.1,1.2,0.2,1.7,0.5
	c1.1,0.8,2.1,0.6,3.3,0.3c3.9-1,7.8-1.5,11.9-0.8c3.3,0.6,5,2.3,5.4,5.6c0.3,2.9,0.1,5.8,0.1,8.8c0,3.2,0,6.5,0,9.7
	c0,1.1-0.4,1.5-1.5,1.4c-1.2-0.1-2.5-0.1-3.7,0c-1,0-1.3-0.4-1.3-1.3c0-5.2,0-10.4,0-15.6c0-0.4,0-0.9,0-1.3
	c-0.2-2.1-1.2-3.1-3.3-3.2c-2-0.1-3.9,0.3-5.8,0.7c-0.8,0.2-0.6,0.7-0.6,1.2c0,5.9,0,11.8,0,17.6c0,1.9,0,1.9-2,1.9
	c-1,0-2.1,0-3.1,0c-1,0.1-1.3-0.4-1.3-1.3c0-5.1,0-10.2,0-15.4c0-4.2-1.2-5.2-5.3-4.7c-1.2,0.1-2.4,0.4-3.6,0.5
	c-0.8,0.1-0.9,0.5-0.9,1.2c0,6,0,12,0,18c0,1.6,0,1.6-1.7,1.7c-1.2,0-2.4,0-3.6,0c-0.9,0-1.2-0.3-1.2-1.2
	C106.1,38.2,106.1,34.8,106.1,31.4z"/>
<path class="st1" d="M151.2,31.4c0-3.3,0-6.6,0-9.8c0-1.7,0.4-2.3,2-2.8c4.9-1.6,10-2.2,15.1-1.4c3.4,0.5,5.2,2.6,5.3,6
	c0.1,6.2,0,12.3,0.1,18.5c0,0.9-0.4,1.1-1.2,1.1c-1.2,0-2.4,0-3.6,0c-1.7,0-1.7,0-1.7-1.7c0-5.1,0-10.2,0-15.3c0-3.7-1-4.7-4.8-4.4
	c-1.2,0.1-2.4,0.4-3.6,0.5c-1,0.1-1.3,0.5-1.3,1.5c0.1,5.8,0,11.7,0,17.5c0,1.9,0,1.9-1.9,1.9c-1,0-1.9,0-2.9,0
	c-1.6,0-1.6,0-1.6-1.6C151.2,37.9,151.2,34.6,151.2,31.4z"/>
<path class="st1" d="M203.1,42.8c-1,0-2.1-0.1-3.1,0c-1.1,0.1-1.6-0.4-1.9-1.4c-1.8-6.2-3.7-12.4-5.5-18.6c-0.4-1.2-0.7-2.4-1.1-3.7
	c-0.3-1.2-0.1-1.6,1.1-1.6c1.2,0,2.4,0.1,3.6,0c1.1-0.1,1.6,0.4,1.9,1.5c1.5,6,3.1,12,4.7,18.1c0,0.2,0,0.3,0.1,0.5
	c0.1,0.2,0.1,0.6,0.5,0.6c0.3,0,0.2-0.4,0.3-0.6c0.6-2.6,1.3-5.3,1.9-7.9c0.8-3.5,1.7-7.1,2.4-10.6c0.2-1.1,0.8-1.5,1.9-1.5
	c1.3,0.1,2.6,0,3.8,0c1.1,0,1.4,0.4,1.1,1.4c-2.2,7.6-4.4,15.2-6.7,22.9c-0.2,0.7-0.6,1-1.3,1C205.6,42.8,204.3,42.8,203.1,42.8z"/>
<path class="st1" d="M186.3,30.4c0,3.7,0,7.4,0,11c0,1-0.3,1.4-1.3,1.3c-1.3-0.1-2.6,0-4,0c-0.8,0-1.2-0.3-1.2-1.1
	c0-7.5,0-15,0-22.6c0-0.8,0.3-1.2,1.1-1.1c1.4,0,2.7,0,4.1,0c0.9,0,1.2,0.3,1.2,1.2C186.3,22.9,186.3,26.7,186.3,30.4z"/>
<path class="st1" d="M186.8,10.3c0,2.1-1.6,3.8-3.7,3.8c-2,0-3.8-1.7-3.8-3.7c0-2,1.7-3.7,3.7-3.8C185.2,6.6,186.8,8.2,186.8,10.3z"
	/>
<path class="st1" d="M240.5,24.1c0-0.1,0-0.2,0-0.2c-0.1-3.6-1.6-5.6-5.1-6.4c-4.4-1-8.8-0.6-13.2,0.4c-3.7,0.9-3.1,0.6-2.5,3.9
	c0.2,1.1,0.7,1.2,1.6,1c1.7-0.5,3.4-0.9,5.2-1c1.9-0.2,3.8-0.3,5.7,0.1c1.6,0.4,2.1,1.5,1.8,3.9c-0.1,1.3-1.3,0.5-1.9,0.8
	c-0.3,0.2-0.8,0.1-1.2,0.1c-2.5,0.3-5.1,0.3-7.6,1c-3.9,1.1-5.7,3.7-5.6,7.8c0.1,4.1,2.1,6.7,6,7.5c4.4,0.9,8.7,0.7,13.1-0.4
	c2.9-0.7,3.6-1.7,3.6-4.7c0-2.2,0-4.5,0-6.7C240.5,28.7,240.5,26.4,240.5,24.1z M233.3,38.8c-2,0.5-4,0.6-5.9,0.3
	c-2-0.3-3-1.7-3-3.8c0-2.3,0.8-3.4,2.9-3.8c2-0.4,4.1-0.5,6.2-0.8c0.6-0.1,0.6,0.2,0.6,0.6c0,1.1,0,2.2,0,3.4c0,1.1,0,2.2,0,3.2
	C234.1,38.4,233.9,38.6,233.3,38.8z"/>
<path class="st1" d="M87.5,16.9c-7.3,0-13.3,5.8-13.3,13.1c0,7.4,5.8,13.4,13.1,13.4c7.4,0,13.3-5.8,13.3-13.2
	C100.7,22.9,94.9,17,87.5,16.9z M87.4,37.7c-4.2,0-7.5-3.3-7.5-7.5c0-4.2,3.4-7.6,7.5-7.5c4.2,0,7.5,3.4,7.5,7.6
	C94.9,34.4,91.6,37.7,87.4,37.7z"/>
</svg>
