<svg xmlns="http://www.w3.org/2000/svg" viewBox="-2046.675 2279.016 78.675 19.211">
  <defs>
    <style>
      .cls-1 {
        fill: #253b80;
      }

      .cls-2 {
        fill: #179bd7;
      }

      .cls-3 {
        fill: #222d65;
      }
    </style>
  </defs>
  <g id="PayPal" transform="translate(-2046.675 2279.016)">
    <path id="Path_50" data-name="Path 50" class="cls-1" d="M42.377,6.749H38.023a.6.6,0,0,0-.6.511L35.664,18.424a.362.362,0,0,0,.359.419H38.1a.6.6,0,0,0,.6-.511l.475-3.011a.6.6,0,0,1,.6-.511H41.15c2.868,0,4.523-1.388,4.955-4.138a3.353,3.353,0,0,0-.555-2.811A4.039,4.039,0,0,0,42.377,6.749Zm.5,4.077c-.238,1.562-1.432,1.562-2.586,1.562h-.657L40.1,9.471a.363.363,0,0,1,.358-.306h.3c.786,0,1.528,0,1.911.448A1.451,1.451,0,0,1,42.879,10.826Z" transform="translate(-12.959 -2.453)"/>
    <path id="Path_51" data-name="Path 51" class="cls-1" d="M61.025,12.963H58.94a.363.363,0,0,0-.358.306l-.092.583-.146-.211a2.968,2.968,0,0,0-2.462-.874,4.794,4.794,0,0,0-4.655,4.193,3.935,3.935,0,0,0,.777,3.2,3.262,3.262,0,0,0,2.626,1.061,3.989,3.989,0,0,0,2.886-1.194l-.093.579a.363.363,0,0,0,.358.42h1.878a.6.6,0,0,0,.6-.511l1.127-7.136A.361.361,0,0,0,61.025,12.963Zm-2.906,4.058a2.324,2.324,0,0,1-2.352,1.991,1.615,1.615,0,0,1-1.727-2.027,2.334,2.334,0,0,1,2.336-2.007,1.759,1.759,0,0,1,1.39.568A1.8,1.8,0,0,1,58.119,17.021Z" transform="translate(-18.593 -4.639)"/>
    <path id="Path_52" data-name="Path 52" class="cls-1" d="M78.551,13.075h-2.1a.607.607,0,0,0-.5.265L73.065,17.6l-1.225-4.09a.607.607,0,0,0-.581-.432H69.2a.363.363,0,0,0-.344.48l2.308,6.772L69,23.39a.363.363,0,0,0,.3.573h2.093a.6.6,0,0,0,.5-.26l6.968-10.058A.363.363,0,0,0,78.551,13.075Z" transform="translate(-25.015 -4.751)"/>
    <path id="Path_53" data-name="Path 53" class="cls-2" d="M91.158,6.749H86.8a.6.6,0,0,0-.6.511L84.445,18.424a.362.362,0,0,0,.358.419h2.234a.423.423,0,0,0,.418-.358l.5-3.165a.6.6,0,0,1,.6-.511H89.93c2.869,0,4.523-1.388,4.956-4.138a3.351,3.351,0,0,0-.556-2.811A4.035,4.035,0,0,0,91.158,6.749Zm.5,4.077c-.237,1.562-1.431,1.562-2.586,1.562h-.656l.462-2.918a.362.362,0,0,1,.358-.306h.3c.786,0,1.528,0,1.911.448A1.451,1.451,0,0,1,91.66,10.826Z" transform="translate(-30.685 -2.453)"/>
    <path id="Path_54" data-name="Path 54" class="cls-2" d="M109.807,12.963h-2.084a.361.361,0,0,0-.358.306l-.092.583-.146-.211a2.966,2.966,0,0,0-2.462-.874,4.794,4.794,0,0,0-4.654,4.193,3.937,3.937,0,0,0,.776,3.2,3.264,3.264,0,0,0,2.626,1.061,3.989,3.989,0,0,0,2.886-1.194l-.093.579a.363.363,0,0,0,.359.42h1.877a.6.6,0,0,0,.6-.511l1.127-7.136A.364.364,0,0,0,109.807,12.963ZM106.9,17.021a2.323,2.323,0,0,1-2.352,1.991,1.615,1.615,0,0,1-1.727-2.027,2.335,2.335,0,0,1,2.336-2.007,1.759,1.759,0,0,1,1.39.568A1.8,1.8,0,0,1,106.9,17.021Z" transform="translate(-36.321 -4.639)"/>
    <path id="Path_55" data-name="Path 55" class="cls-2" d="M118.272,7.055l-1.787,11.368a.362.362,0,0,0,.358.419h1.8a.6.6,0,0,0,.6-.511L121,7.168a.363.363,0,0,0-.358-.42H118.63A.364.364,0,0,0,118.272,7.055Z" transform="translate(-42.329 -2.452)"/>
    <path id="Path_56" data-name="Path 56" class="cls-1" d="M5.011,18.932l.333-2.115L4.6,16.8H1.061L3.522,1.195a.206.206,0,0,1,.069-.122.2.2,0,0,1,.131-.048H9.693c1.982,0,3.35.413,4.065,1.227a2.8,2.8,0,0,1,.651,1.22,4.406,4.406,0,0,1,0,1.683l-.008.049v.43l.335.19a2.349,2.349,0,0,1,.678.517,2.407,2.407,0,0,1,.55,1.234,5.219,5.219,0,0,1-.078,1.79,6.3,6.3,0,0,1-.733,2.026A4.168,4.168,0,0,1,14,12.664a4.713,4.713,0,0,1-1.565.706,7.8,7.8,0,0,1-1.956.226H10.01a1.4,1.4,0,0,0-1.382,1.18l-.035.19-.588,3.727-.027.137a.118.118,0,0,1-.037.08.1.1,0,0,1-.061.022H5.011Z" transform="translate(-0.386 -0.372)"/>
    <path id="Path_57" data-name="Path 57" class="cls-2" d="M16.921,7.667h0q-.027.171-.061.35c-.787,4.043-3.482,5.44-6.922,5.44H8.186a.851.851,0,0,0-.841.721h0l-.9,5.689-.254,1.613A.448.448,0,0,0,6.636,22H9.744a.748.748,0,0,0,.738-.63l.031-.158L11.1,17.5l.038-.2a.747.747,0,0,1,.738-.632h.465c3.01,0,5.367-1.222,6.056-4.759a4.052,4.052,0,0,0-.623-3.579A2.971,2.971,0,0,0,16.921,7.667Z" transform="translate(-2.249 -2.786)"/>
    <path id="Path_58" data-name="Path 58" class="cls-3" d="M16.758,6.99q-.18-.053-.372-.1t-.394-.074a9.73,9.73,0,0,0-1.544-.113H9.767a.746.746,0,0,0-.738.632l-1,6.306-.029.184a.851.851,0,0,1,.841-.721H10.6c3.441,0,6.135-1.4,6.922-5.44.024-.12.043-.236.061-.35a4.2,4.2,0,0,0-.647-.273C16.877,7.026,16.818,7.007,16.758,6.99Z" transform="translate(-2.909 -2.437)"/>
    <path id="Path_59" data-name="Path 59" class="cls-1" d="M6.12,4.9a.746.746,0,0,1,.738-.631h4.68a9.73,9.73,0,0,1,1.544.113q.2.032.394.074t.372.1l.177.055a4.261,4.261,0,0,1,.647.273,3.819,3.819,0,0,0-.81-3.433C12.973.434,11.365,0,9.308,0H3.337a.853.853,0,0,0-.844.721L.006,16.487a.513.513,0,0,0,.506.593H4.2l.926-5.873Z" transform="translate(0 0)"/>
  </g>
</svg>
