<svg xmlns="http://www.w3.org/2000/svg" viewBox="0 0 448.259 143.241">
  <defs>
    <style>
      .cls-1 {
        fill: #fff;
      }

      .cls-2 {
        fill: #d5dfe3;
      }

      .cls-3 {
        fill: #6696c9;
      }
    </style>
  </defs>
  <g id="Group_671" data-name="Group 671" transform="translate(0 0.001)">
    <path id="Path_285" data-name="Path 285" class="cls-1" d="M187.215,72.87,3.988,62.2A3.979,3.979,0,0,0,0,66.188H0a3.936,3.936,0,0,0,3.772,3.988l183.55,19.4V72.87Z" transform="translate(0 4.84)"/>
    <path id="Path_286" data-name="Path 286" class="cls-1" d="M242.108,72.87,425.335,62.2a3.979,3.979,0,0,1,3.988,3.988h0a3.936,3.936,0,0,1-3.772,3.988L242,89.576V72.87Z" transform="translate(18.829 4.84)"/>
    <path id="Path_287" data-name="Path 287" class="cls-2" d="M245.5,89.073S422.368,70.1,425.386,69.888a3.9,3.9,0,0,0,3.772-3.988L245.931,82.5" transform="translate(19.101 5.127)"/>
    <path id="Path_288" data-name="Path 288" class="cls-2" d="M184.458,89.073S7.59,70.1,4.572,69.888A3.9,3.9,0,0,1,.8,65.9L184.027,82.5" transform="translate(0.062 5.127)"/>
    <g id="Group_672" data-name="Group 672" transform="translate(303.079 81.267)">
      <circle id="Ellipse_63" data-name="Ellipse 63" class="cls-2" cx="27.484" cy="27.484" r="27.484"/>
      <circle id="Ellipse_64" data-name="Ellipse 64" class="cls-1" cx="25.005" cy="25.005" r="25.005" transform="translate(2.479 0.108)"/>
      <circle id="Ellipse_65" data-name="Ellipse 65" class="cls-3" cx="16.059" cy="16.059" r="16.059" transform="translate(11.425 8.515)"/>
      <circle id="Ellipse_66" data-name="Ellipse 66" class="cls-2" cx="14.335" cy="14.335" r="14.335" transform="translate(13.149 11.964)"/>
      <path id="Path_289" data-name="Path 289" class="cls-3" d="M305.365,100.96a19.389,19.389,0,0,0-4.311,4.85,33.127,33.127,0,0,0-2.91,5.928.815.815,0,0,0-.108.431,17.72,17.72,0,0,0,2.371,1.509c.108-.323.108-.754.216-1.293a31.076,31.076,0,0,1,1.724-5.82,17.161,17.161,0,0,1,3.341-5.173,8.567,8.567,0,0,1,1.509-1.4,6.607,6.607,0,0,0,.647-.539,4.926,4.926,0,0,0-.647.431A7.071,7.071,0,0,0,305.365,100.96Zm1.832,1.186a19.734,19.734,0,0,0,.431,6.467,31.091,31.091,0,0,0,2.156,6.143c.108.108.108.323.216.431a19.86,19.86,0,0,0,2.695-.539c-.216-.323-.431-.647-.755-1.078a31.05,31.05,0,0,1-2.91-5.389,16.468,16.468,0,0,1-1.293-6.036,10.527,10.527,0,0,1,.108-2.048,4.508,4.508,0,0,0,.108-.754s-.108.323-.216.754A7.967,7.967,0,0,0,307.2,102.146Zm2.263-.323a19.387,19.387,0,0,0,4.85,4.311,33.128,33.128,0,0,0,5.928,2.91.815.815,0,0,0,.431.108,17.719,17.719,0,0,0,1.509-2.371c-.323-.108-.754-.108-1.293-.216a31.079,31.079,0,0,1-5.82-1.724,17.162,17.162,0,0,1-5.173-3.341,8.565,8.565,0,0,1-1.4-1.509,6.593,6.593,0,0,0-.539-.647,4.938,4.938,0,0,0,.431.647A5.677,5.677,0,0,0,309.46,101.823ZM305.041,98.7a19.734,19.734,0,0,0-6.467.431,31.094,31.094,0,0,0-6.144,2.156c-.108.108-.323.108-.431.216a19.849,19.849,0,0,0,.539,2.695c.323-.216.647-.431,1.078-.754a31.044,31.044,0,0,1,5.389-2.91,16.468,16.468,0,0,1,6.036-1.293,10.525,10.525,0,0,1,2.048.108,4.508,4.508,0,0,0,.754.108s-.323-.108-.754-.216A6.9,6.9,0,0,0,305.041,98.7Zm5.281-.862a19.389,19.389,0,0,0,4.311-4.85,33.127,33.127,0,0,0,2.91-5.928.815.815,0,0,0,.108-.431,17.724,17.724,0,0,0-2.371-1.509c-.108.323-.108.754-.216,1.293a31.072,31.072,0,0,1-1.725,5.82A17.161,17.161,0,0,1,310,97.4a8.57,8.57,0,0,1-1.509,1.4,6.6,6.6,0,0,0-.647.539,4.928,4.928,0,0,0,.647-.431A8.793,8.793,0,0,0,310.323,97.835Zm-3.988-.97a19.387,19.387,0,0,0-4.85-4.311,33.127,33.127,0,0,0-5.928-2.91.815.815,0,0,0-.431-.108,17.718,17.718,0,0,0-1.509,2.371c.431.108.754.108,1.293.216a31.08,31.08,0,0,1,5.82,1.724,17.163,17.163,0,0,1,5.173,3.341,8.569,8.569,0,0,1,1.4,1.509,6.6,6.6,0,0,0,.539.647,4.929,4.929,0,0,0-.431-.647A12.823,12.823,0,0,0,306.335,96.865Zm4.311,3.126a19.734,19.734,0,0,0,6.467-.431,31.1,31.1,0,0,0,6.144-2.156c.108-.108.323-.108.431-.216a19.862,19.862,0,0,0-.539-2.695c-.323.216-.647.431-1.078.754a31.044,31.044,0,0,1-5.389,2.91,16.467,16.467,0,0,1-6.036,1.293,10.525,10.525,0,0,1-2.048-.108,1.866,1.866,0,0,1-.755-.108s.323.108.755.216A5.153,5.153,0,0,0,310.646,99.99Zm-2.156-3.449a19.735,19.735,0,0,0-.431-6.467,31.1,31.1,0,0,0-2.156-6.143c-.108-.108-.108-.323-.216-.431a19.859,19.859,0,0,0-2.695.539c.216.323.431.647.754,1.078a31.045,31.045,0,0,1,2.91,5.389,16.467,16.467,0,0,1,1.293,6.036,10.527,10.527,0,0,1-.108,2.048,4.51,4.51,0,0,0-.108.754s.108-.323.216-.754A4.681,4.681,0,0,0,308.49,96.541Z" transform="translate(-280.36 -74.77)"/>
      <g id="Group_671-2" data-name="Group 671" transform="translate(23.065 20.155)">
        <circle id="Ellipse_67" data-name="Ellipse 67" class="cls-2" cx="5.173" cy="5.173" r="5.173" transform="translate(0)"/>
        <path id="Path_290" data-name="Path 290" class="cls-3" d="M303.3,101.81l4.311-2.91,4.527,2.587A5.2,5.2,0,0,1,303.3,101.81Z" transform="translate(-302.546 -93.727)"/>
        <path id="Path_291" data-name="Path 291" class="cls-3" d="M308,98.9h4.527a5.129,5.129,0,0,1-.216,1.4Z" transform="translate(-302.18 -93.727)"/>
        <path id="Path_292" data-name="Path 292" class="cls-3" d="M307.127,98.9H302.6a5.129,5.129,0,0,0,.216,1.4Z" transform="translate(-302.6 -93.727)"/>
      </g>
    </g>
    <g id="Group_674" data-name="Group 674" transform="translate(93.769 81.267)">
      <circle id="Ellipse_68" data-name="Ellipse 68" class="cls-2" cx="27.484" cy="27.484" r="27.484"/>
      <circle id="Ellipse_69" data-name="Ellipse 69" class="cls-1" cx="25.005" cy="25.005" r="25.005" transform="translate(2.479 0.108)"/>
      <circle id="Ellipse_70" data-name="Ellipse 70" class="cls-3" cx="16.059" cy="16.059" r="16.059" transform="translate(11.425 8.515)"/>
      <circle id="Ellipse_71" data-name="Ellipse 71" class="cls-2" cx="14.335" cy="14.335" r="14.335" transform="translate(13.149 11.964)"/>
      <path id="Path_293" data-name="Path 293" class="cls-3" d="M111.165,100.96a19.388,19.388,0,0,0-4.311,4.85,33.128,33.128,0,0,0-2.91,5.928.815.815,0,0,0-.108.431,17.721,17.721,0,0,0,2.371,1.509c.108-.323.108-.754.216-1.293a31.078,31.078,0,0,1,1.724-5.82,17.162,17.162,0,0,1,3.341-5.173A8.568,8.568,0,0,1,113,99.99a6.6,6.6,0,0,0,.647-.539,4.93,4.93,0,0,0-.647.431A5.677,5.677,0,0,0,111.165,100.96ZM113,102.146a19.735,19.735,0,0,0,.431,6.467,31.094,31.094,0,0,0,2.156,6.143c.108.108.108.323.216.431a19.86,19.86,0,0,0,2.695-.539c-.216-.323-.431-.647-.754-1.078a31.046,31.046,0,0,1-2.91-5.389,16.467,16.467,0,0,1-1.293-6.036,10.525,10.525,0,0,1,.108-2.048,4.51,4.51,0,0,0,.108-.754s-.108.323-.216.754A7.966,7.966,0,0,0,113,102.146Zm2.156-.323a19.388,19.388,0,0,0,4.85,4.311,33.127,33.127,0,0,0,5.928,2.91.815.815,0,0,0,.431.108,17.722,17.722,0,0,0,1.509-2.371c-.323-.108-.754-.108-1.293-.216a31.079,31.079,0,0,1-5.82-1.724,17.163,17.163,0,0,1-5.173-3.341,8.568,8.568,0,0,1-1.4-1.509,6.6,6.6,0,0,0-.539-.647,4.929,4.929,0,0,0,.431.647A8.788,8.788,0,0,0,115.153,101.823ZM110.841,98.7a19.735,19.735,0,0,0-6.467.431,31.1,31.1,0,0,0-6.143,2.156c-.108.108-.323.108-.431.216a19.861,19.861,0,0,0,.539,2.695c.323-.216.647-.431,1.078-.754a31.044,31.044,0,0,1,5.389-2.91,16.468,16.468,0,0,1,6.036-1.293,10.525,10.525,0,0,1,2.048.108,4.509,4.509,0,0,0,.754.108s-.323-.108-.754-.216A7.967,7.967,0,0,0,110.841,98.7Zm5.281-.862a19.388,19.388,0,0,0,4.311-4.85,33.129,33.129,0,0,0,2.91-5.928.815.815,0,0,0,.108-.431,17.723,17.723,0,0,0-2.371-1.509c-.108.323-.108.754-.216,1.293a31.078,31.078,0,0,1-1.724,5.82A17.162,17.162,0,0,1,115.8,97.4a8.567,8.567,0,0,1-1.509,1.4,6.6,6.6,0,0,0-.647.539,4.929,4.929,0,0,0,.647-.431A8.79,8.79,0,0,0,116.123,97.835Zm-3.988-.97a19.387,19.387,0,0,0-4.85-4.311,33.127,33.127,0,0,0-5.928-2.91.815.815,0,0,0-.431-.108,17.721,17.721,0,0,0-1.509,2.371c.431.108.754.108,1.293.216a31.08,31.08,0,0,1,5.82,1.724,17.163,17.163,0,0,1,5.173,3.341,8.568,8.568,0,0,1,1.4,1.509,6.6,6.6,0,0,0,.539.647,4.931,4.931,0,0,0-.431-.647A12.826,12.826,0,0,0,112.135,96.865Zm4.311,3.126a19.734,19.734,0,0,0,6.467-.431,31.1,31.1,0,0,0,6.143-2.156c.108-.108.323-.108.431-.216a19.858,19.858,0,0,0-.539-2.695c-.323.216-.647.431-1.078.754a31.044,31.044,0,0,1-5.389,2.91,16.467,16.467,0,0,1-6.036,1.293,10.525,10.525,0,0,1-2.048-.108,1.865,1.865,0,0,1-.754-.108s.323.108.754.216A5.153,5.153,0,0,0,116.446,99.99Zm-2.156-3.449a19.735,19.735,0,0,0-.431-6.467,31.1,31.1,0,0,0-2.156-6.143c-.108-.108-.108-.323-.216-.431a19.857,19.857,0,0,0-2.695.539c.216.323.431.647.754,1.078a31.045,31.045,0,0,1,2.91,5.389,16.467,16.467,0,0,1,1.293,6.036,10.525,10.525,0,0,1-.108,2.048,4.51,4.51,0,0,0-.108.754s.108-.323.216-.754A6.9,6.9,0,0,0,114.29,96.541Z" transform="translate(-86.16 -74.77)"/>
      <g id="Group_673" data-name="Group 673" transform="translate(22.957 20.155)">
        <circle id="Ellipse_72" data-name="Ellipse 72" class="cls-2" cx="5.173" cy="5.173" r="5.173" transform="translate(0.108)"/>
        <path id="Path_294" data-name="Path 294" class="cls-3" d="M109.1,101.81l4.311-2.91,4.527,2.587A5.2,5.2,0,0,1,109.1,101.81Z" transform="translate(-108.238 -93.727)"/>
        <path id="Path_295" data-name="Path 295" class="cls-3" d="M113.8,98.9h4.527a5.129,5.129,0,0,1-.216,1.4Z" transform="translate(-107.872 -93.727)"/>
        <path id="Path_296" data-name="Path 296" class="cls-3" d="M112.827,98.9H108.3a5.129,5.129,0,0,0,.216,1.4Z" transform="translate(-108.3 -93.727)"/>
      </g>
    </g>
    <path id="Path_297" data-name="Path 297" class="cls-1" d="M196.271,43.6H158.117a1.658,1.658,0,0,0-1.617,1.617h0a1.638,1.638,0,0,0,1.509,1.617l38.262,4.311Z" transform="translate(12.176 3.392)"/>
    <path id="Path_298" data-name="Path 298" class="cls-1" d="M223.3,43.6h38.154a1.658,1.658,0,0,1,1.617,1.617h0a1.638,1.638,0,0,1-1.509,1.617L223.3,51.145V43.6Z" transform="translate(17.374 3.392)"/>
    <path id="Path_299" data-name="Path 299" class="cls-2" d="M268.261,45.1l-27.268,1.4H181.175L156.6,45.1s-.216,1.293,1.509,1.617c1.617.323,21.556,2.587,21.556,2.587h66.608s19.185-2.371,20.478-2.587A1.555,1.555,0,0,0,268.261,45.1Z" transform="translate(12.184 3.509)"/>
    <path id="Path_300" data-name="Path 300" class="cls-1" d="M217.306,39.232H200.6l4.635-36.969C205.342.97,206.959,0,208.9,0h0c1.94,0,3.557.97,3.665,2.263Z" transform="translate(15.608 0)"/>
    <path id="Path_301" data-name="Path 301" class="cls-2" d="M208.4,0V40.957l7.976-3.88S212.5,4.635,212.065,2.263,208.4,0,208.4,0Z" transform="translate(16.215 0)"/>
    <path id="Path_302" data-name="Path 302" class="cls-1" d="M211.723,140.649c-31.149,0-47.423-23.819-47.423-55.291S185.1,33.3,211.723,33.3s47.423,20.478,47.423,52.058S242.872,140.649,211.723,140.649Z" transform="translate(12.783 2.591)"/>
    <path id="Path_303" data-name="Path 303" class="cls-3" d="M191.821,52.2,182.659,55a11.175,11.175,0,0,0-7.437,7.437l-3.018,9.7a1.464,1.464,0,0,0,1.725,1.832l11.533-2.91a33.208,33.208,0,0,1,8.084-.97H229a34.53,34.53,0,0,1,8.084.97l11.533,2.91a1.437,1.437,0,0,0,1.725-1.832l-3.018-9.7A11.175,11.175,0,0,0,239.891,55l-7.437-2.263a13.688,13.688,0,0,0-3.665-.539H191.821Z" transform="translate(13.393 4.061)"/>
    <path id="Path_304" data-name="Path 304" class="cls-2" d="M164.4,81.6c11.317,20.155,24.466,19.185,47.423,19.185s39.771-7.652,47.423-19.185c0,27.161-13.58,55.291-47.423,55.291S164.4,109.946,164.4,81.6Z" transform="translate(12.791 6.349)"/>
    <g id="Group_675" data-name="Group 675" transform="translate(208.771 91.398)">
      <circle id="Ellipse_73" data-name="Ellipse 73" class="cls-2" cx="15.736" cy="15.736" r="15.736"/>
      <path id="Path_305" data-name="Path 305" class="cls-3" d="M196.1,108.13l13.149-8.73,13.58,7.868C216.471,117.938,202.567,117.723,196.1,108.13Z" transform="translate(-193.513 -83.664)"/>
      <path id="Path_306" data-name="Path 306" class="cls-3" d="M210.3,99.4h13.688a17.713,17.713,0,0,1-.539,4.2Z" transform="translate(-192.408 -83.664)"/>
      <path id="Path_307" data-name="Path 307" class="cls-3" d="M207.388,99.4H193.7a17.714,17.714,0,0,0,.539,4.2Z" transform="translate(-193.7 -83.664)"/>
    </g>
    <path id="Path_308" data-name="Path 308" class="cls-1" d="M190.527,49.686,186,74.691l3.126-1.832L192.467,48.5Z" transform="translate(14.472 3.774)"/>
    <path id="Path_309" data-name="Path 309" class="cls-1" d="M226.232,49.686l4.527,25.005-3.018-1.832L224.4,48.5Z" transform="translate(17.459 3.774)"/>
  </g>
</svg>
