<svg width="74" height="62" viewBox="0 0 74 62" fill="none" xmlns="http://www.w3.org/2000/svg">
<path d="M5 61H11.1538V41.7143H30.8462V61H69V31.5H5V61ZM37 37H61.5V53.5H37V37Z" fill="#D5D0EA"/>
<path d="M69.2759 31H73V26H1V31H69.2759Z" fill="#998FC1"/>
<path d="M38 40H61V53H38V40Z" fill="#DBEEF7"/>
<path d="M21 41V51H24.75H21V61H31V41H21Z" fill="#FFF4C6"/>
<path d="M17.25 51H21V41H11V61H21V51H17.25Z" fill="#FFF4C6"/>
<path d="M74 26.2216C73.9985 26.1146 73.9784 26.0103 73.943 25.9088L69.0092 12.9088C68.8412 12.4646 68.3647 12.1653 67.8328 12.168H59.1988V1.08333C59.1988 0.484792 58.6468 0 57.9653 0H16.0285C15.347 0 14.7951 0.484792 14.7951 1.08333V12.1667H6.16101C5.62909 12.1667 5.15885 12.4646 4.99079 12.9074L0.0570464 25.9074C0.0215851 26.009 0.0015418 26.1146 0 26.2216V26.25V30.5833C0 31.1819 0.551963 31.6667 1.23344 31.6667H3.69414V60.9167C3.69414 61.5152 4.2461 62 4.92758 62H69.0663C69.7477 62 70.2997 61.5152 70.2997 60.9167V31.6667H72.7666C73.448 31.6667 74 31.1819 74 30.5833V26.25C74 26.2392 74 26.231 74 26.2216ZM17.2619 2.16667H56.7319V20.8333H17.2619V2.16667ZM7.05063 14.3333H14.7951V21.9167C14.7951 22.5152 15.347 23 16.0285 23H57.9653C58.6468 23 59.1988 22.5152 59.1988 21.9167V14.3333H66.9432L71.0552 25.1667H2.93712L7.05063 14.3333ZM19.7288 52.25V59.8333H12.3282V42.5H19.7288V50.0833H17.2619V52.25H19.7288ZM22.1957 59.8333V52.25H24.6626V50.0833H22.1957V42.5H29.5963V59.8333H22.1957ZM67.8328 59.8333H32.0632V41.4167C32.0632 40.8181 31.5112 40.3333 30.8297 40.3333H11.0948C10.4133 40.3333 9.86132 40.8181 9.86132 41.4167V59.8333H6.16101V31.6667H67.8328V59.8333ZM71.5331 29.5H2.46071V27.3333H71.5331V29.5Z" fill="#231F20"/>
<path d="M37.0385 55H61.9615C62.5353 55 63 54.5749 63 54.05V36.95C63 36.4251 62.5353 36 61.9615 36H37.0385C36.4647 36 36 36.4251 36 36.95V54.05C36 54.5749 36.4647 55 37.0385 55ZM38.0769 37.9H60.9231V53.1H38.0769V37.9Z" fill="#231F20"/>
<path d="M57.0927 40.0165L58.8364 38.4835L61.3033 40.6502L59.5595 42.1818L57.0927 40.0165Z" fill="#231F20"/>
<path d="M53.3924 41.0998L55.1361 39.5682L60.0699 43.9016L58.3261 45.4331L53.3924 41.0998Z" fill="#231F20"/>
<path d="M23.848 6.86102C24.4893 6.86102 25.044 6.93902 25.512 7.09502C25.98 7.25102 26.344 7.47202 26.604 7.75802C26.8727 8.05269 27.0633 8.36468 27.176 8.69402C27.2973 9.04068 27.358 9.40902 27.358 9.79902C27.358 10.6224 27.0633 11.32 26.474 11.892C25.8847 12.464 25.07 12.75 24.03 12.75C23.5013 12.75 23.107 12.737 22.847 12.711V15.519C22.847 15.649 22.7993 15.7617 22.704 15.857C22.6087 15.9524 22.496 16 22.366 16H21.729C21.599 16 21.4863 15.9524 21.391 15.857C21.2957 15.7617 21.248 15.649 21.248 15.519V7.38102C21.248 7.25102 21.2957 7.13835 21.391 7.04302C21.4863 6.94768 21.6033 6.90002 21.742 6.90002C22.184 6.89135 22.5783 6.88702 22.925 6.88702C23.2717 6.87835 23.5793 6.87402 23.848 6.87402V6.86102ZM22.86 11.177C23.068 11.1944 23.263 11.2117 23.445 11.229C23.6357 11.2377 23.8177 11.242 23.991 11.242C24.485 11.242 24.8923 11.1164 25.213 10.865C25.525 10.6224 25.681 10.2584 25.681 9.77302C25.681 8.82835 25.122 8.35602 24.004 8.35602C23.9087 8.35602 23.7657 8.36035 23.575 8.36902C23.3843 8.36902 23.146 8.37335 22.86 8.38202V11.177Z" fill="black"/>
<path d="M28.3802 11.463C28.3802 10.1284 28.8222 9.01035 29.7062 8.10902C30.5902 7.20768 31.7212 6.75702 33.0992 6.75702C34.4685 6.75702 35.5995 7.19035 36.4922 8.05702C37.3935 8.93235 37.8442 10.0634 37.8442 11.45C37.8442 12.8107 37.3935 13.933 36.4922 14.817C35.5909 15.701 34.4599 16.143 33.0992 16.143C31.7299 16.143 30.5989 15.7097 29.7062 14.843C28.8135 13.9764 28.3672 12.8454 28.3672 11.45L28.3802 11.463ZM30.0572 11.489C30.0572 12.3904 30.3519 13.1487 30.9412 13.764C31.5219 14.3707 32.2455 14.674 33.1122 14.674C34.0482 14.674 34.7892 14.3707 35.3352 13.764C35.8812 13.1574 36.1542 12.3904 36.1542 11.463C36.1542 10.5184 35.8639 9.75135 35.2832 9.16202C34.6939 8.56402 33.9659 8.26502 33.0992 8.26502C32.2239 8.26502 31.5002 8.56402 30.9282 9.16202C30.3562 9.76002 30.0702 10.527 30.0702 11.463L30.0572 11.489Z" fill="black"/>
<path d="M39.5516 13.907C39.6469 13.8117 39.7509 13.764 39.8636 13.764C39.9849 13.764 40.1062 13.8117 40.2276 13.907C40.8169 14.3924 41.3629 14.635 41.8656 14.635C42.2556 14.635 42.5762 14.544 42.8276 14.362C43.0789 14.18 43.2046 13.92 43.2046 13.582C43.2046 13.3307 43.1266 13.114 42.9706 12.932C42.8146 12.75 42.6152 12.594 42.3726 12.464C42.2512 12.3947 42.1256 12.3297 41.9956 12.269C41.8656 12.2084 41.7269 12.1434 41.5796 12.074C41.4322 12.0047 41.2849 11.9354 41.1376 11.866C40.9989 11.7967 40.8559 11.723 40.7086 11.645C40.4226 11.4977 40.1496 11.32 39.8896 11.112C39.6556 10.9214 39.4562 10.6657 39.2916 10.345C39.1356 10.033 39.0576 9.67335 39.0576 9.26602C39.0576 8.55535 39.3176 7.95735 39.8376 7.47202C40.3662 6.98668 41.0552 6.74402 41.9046 6.74402C42.7019 6.74402 43.4299 6.93035 44.0886 7.30302C44.2446 7.39835 44.3226 7.54135 44.3226 7.73202C44.3226 7.81002 44.3009 7.88368 44.2576 7.95302L44.0106 8.38202C43.9066 8.55535 43.7636 8.64202 43.5816 8.64202C43.4862 8.64202 43.4082 8.62468 43.3476 8.59002C42.8796 8.36468 42.4506 8.25202 42.0606 8.25202C41.6706 8.25202 41.3586 8.34302 41.1246 8.52502C40.8906 8.70702 40.7736 8.94968 40.7736 9.25302C40.7736 9.55635 40.8776 9.81635 41.0856 10.033C41.2849 10.241 41.5406 10.4144 41.8526 10.553C41.9999 10.6224 42.1559 10.6917 42.3206 10.761C42.4939 10.8304 42.6716 10.9084 42.8536 10.995C43.2089 11.1597 43.5426 11.3374 43.8546 11.528C44.1579 11.71 44.4136 11.9787 44.6216 12.334C44.8296 12.6894 44.9336 13.1054 44.9336 13.582C44.9336 14.336 44.6432 14.9514 44.0626 15.428C43.4819 15.9047 42.7539 16.143 41.8786 16.143C40.8732 16.143 39.9762 15.7747 39.1876 15.038C39.0749 14.9514 39.0186 14.8257 39.0186 14.661C39.0186 14.5484 39.0576 14.453 39.1356 14.375L39.5516 13.907Z" fill="black"/>
<path d="M49.0669 16C48.9369 16 48.8242 15.9524 48.7289 15.857C48.6335 15.7617 48.5859 15.649 48.5859 15.519V8.39502H46.1159C45.9859 8.39502 45.8732 8.34735 45.7779 8.25202C45.6825 8.15668 45.6349 8.04402 45.6349 7.91402V7.38102C45.6349 7.25102 45.6825 7.13835 45.7779 7.04302C45.8732 6.94768 45.9859 6.90002 46.1159 6.90002H52.6549C52.7849 6.90002 52.8975 6.94768 52.9929 7.04302C53.0882 7.13835 53.1359 7.25102 53.1359 7.38102V7.91402C53.1359 8.04402 53.0882 8.15668 52.9929 8.25202C52.8975 8.34735 52.7849 8.39502 52.6549 8.39502H50.1849V15.519C50.1849 15.649 50.1372 15.7617 50.0419 15.857C49.9465 15.9524 49.8339 16 49.7039 16H49.0669Z" fill="black"/>
</svg>
