<svg xmlns="http://www.w3.org/2000/svg" viewBox="0 0 34.175 24.938">
  <defs>
    <style>
      .cls-1 {
        fill: #7b9df8;
      }
    </style>
  </defs>
  <path id="Path_312" data-name="Path 312" class="cls-1" d="M14.086,24.938H0v-9.7a17.218,17.218,0,0,1,.924-6,14.871,14.871,0,0,1,2.54-4.618A16.177,16.177,0,0,1,7.851,1.155,17.63,17.63,0,0,1,14.086,0V5.311c-6,0-9.006,3.233-9.006,9.929v1.385h9.006Zm20.089,0H19.858v-9.7a25.1,25.1,0,0,1,.924-6,11.782,11.782,0,0,1,2.771-4.618A12.059,12.059,0,0,1,27.94,1.385,13.748,13.748,0,0,1,34.175,0V5.311c-6,0-9.006,3.233-9.006,9.929v1.385h9.006v8.313Z" transform="translate(0 0)"/>
</svg>
