<?xml version="1.0" encoding="utf-8"?>
<!-- Generator: Adobe Illustrator 22.1.0, SVG Export Plug-In . SVG Version: 6.00 Build 0)  -->
<svg version="1.1" id="Layer_1" xmlns="http://www.w3.org/2000/svg" xmlns:xlink="http://www.w3.org/1999/xlink" x="0px" y="0px"
	 viewBox="0 0 567.9 284.5" style="enable-background:new 0 0 567.9 284.5;" xml:space="preserve">
<style type="text/css">
	.st0{fill:#E6DA70;}
	.st1{fill:#363636;}
</style>
<rect x="0.5" y="0.5" class="st0" width="566.9" height="283.5"/>
<g>
	<path class="st1" d="M134.3,135.6c-1.3,2.7-3.5,3.7-5.5,3.7c-2.9,0-5.8-1.8-5.8-5c0-3.5,3.9-5,5.4-5.3c6.1-0.9,17.7-8.9,17.7-11.9
		c0-9.6-36.7-5.6-36.7-18.9c0-13.3,22.3-20.4,29.4-20.4c5.6,0,7.2,1.3,9.7,5.3c0.3,0.5,0.5,1.1,0.5,1.6c0,2-2.1,4-4.6,4
		c-1,0-2.1-0.5-3.2-1.3c-0.2-0.2-1.1-1-1.5-1c-7.6,0-20.9,6.6-20.9,10.5c0,5.3,35.9,3.6,36.1,19.2
		C154.9,126.4,141.4,132,134.3,135.6z"/>
	<path class="st1" d="M175.2,133.5c-9,0-16.5-6-16.5-15.8c0-15.4,16.8-36,26.8-36c5.1,0,7.6,1.5,8.7,2.5
		c12.5,2.4,19.9,7.8,19.9,17.8C214.1,113.9,192,133.5,175.2,133.5z M188.3,92.2c-0.5,0-0.8,0-1,0.1c-1.8,0.9-3.5,2.3-5.3,2.3
		c-0.9,0-1.7-0.2-2.7-0.9c-7.8,6.8-11.3,16.4-11.3,23c0,5.3,2.2,8.2,7.9,8.2c12,0,29.1-15.4,29.1-22.3
		C205.1,92.9,192.7,92.2,188.3,92.2z"/>
	<path class="st1" d="M230.5,133.5c-9,0-16.5-6-16.5-15.8c0-15.4,16.8-36,26.8-36c5.1,0,7.6,1.5,8.7,2.5
		c12.5,2.4,19.9,7.8,19.9,17.8C269.5,113.9,247.3,133.5,230.5,133.5z M243.6,92.2c-0.5,0-0.8,0-1,0.1c-1.8,0.9-3.5,2.3-5.3,2.3
		c-0.9,0-1.7-0.2-2.7-0.9c-7.8,6.8-11.3,16.4-11.3,23c0,5.3,2.2,8.2,7.9,8.2c12,0,29.1-15.4,29.1-22.3
		C260.4,92.9,248,92.2,243.6,92.2z"/>
	<path class="st1" d="M285.9,133.5c-9,0-16.5-6-16.5-15.8c0-15.4,16.8-36,26.8-36c5.1,0,7.6,1.5,8.7,2.5
		c12.5,2.4,19.9,7.8,19.9,17.8C324.8,113.9,302.7,133.5,285.9,133.5z M299,92.2c-0.5,0-0.8,0-1,0.1c-1.8,0.9-3.5,2.3-5.3,2.3
		c-0.9,0-1.7-0.2-2.7-0.9c-7.8,6.8-11.3,16.4-11.3,23c0,5.3,2.2,8.2,7.9,8.2c12,0,29.1-15.4,29.1-22.3
		C315.8,92.9,303.4,92.2,299,92.2z"/>
	<path class="st1" d="M341.2,133.5c-9,0-16.5-6-16.5-15.8c0-15.4,16.8-36,26.8-36c5.1,0,7.6,1.5,8.7,2.5
		c12.5,2.4,19.9,7.8,19.9,17.8C380.2,113.9,358,133.5,341.2,133.5z M354.3,92.2c-0.5,0-0.8,0-1,0.1c-1.8,0.9-3.5,2.3-5.3,2.3
		c-0.9,0-1.7-0.2-2.7-0.9c-7.8,6.8-11.3,16.4-11.3,23c0,5.3,2.2,8.2,7.9,8.2c12,0,29.1-15.4,29.1-22.3
		C371.1,92.9,358.7,92.2,354.3,92.2z"/>
	<path class="st1" d="M396.6,133.5c-9,0-16.5-6-16.5-15.8c0-15.4,16.8-36,26.8-36c5.1,0,7.6,1.5,8.7,2.5
		c12.5,2.4,19.9,7.8,19.9,17.8C435.5,113.9,413.4,133.5,396.6,133.5z M409.7,92.2c-0.5,0-0.8,0-1,0.1c-1.8,0.9-3.5,2.3-5.3,2.3
		c-0.9,0-1.7-0.2-2.7-0.9c-7.8,6.8-11.3,16.4-11.3,23c0,5.3,2.2,8.2,7.9,8.2c12,0,29.1-15.4,29.1-22.3
		C426.5,92.9,414.1,92.2,409.7,92.2z"/>
	<path class="st1" d="M164.2,200.3c-19.2,4.2-44.4,19.7-47.7,19.7c-2,0-5.8-3.8-5.8-6.4c0-2.6,0.1-3.9,0.4-6.2c0.5-3,1-20.8,1-26.3
		c0-2.1-1.3-3.3-1.3-6c0-2.6,3.1-4,5.6-4c0.6,0,1.3,0.1,2,0.3c3.9-1.5,17-6.4,20.6-7.5c3.5-1.2,6.8-2.4,10-2.4
		c2.1,0,4.9,0.9,4.9,3.5c0,2.4-2.6,5.3-6,5.3c-0.6,0-1.3-0.2-2-0.4c-8.9,2.1-16.3,6.2-24.7,9.6c0,4.1-0.2,6.4-0.3,9
		c6-2.4,17-7,19.7-7c2.7,0,3.8,2,3.8,3.5c0,2-1.7,4.2-4.2,4.8c-6.4,1.8-14.5,5.6-20,8.8c-0.2,3.3-0.5,6.3-0.5,10.1
		c8.6-4.1,34.5-14.8,42.3-14.8c0.6,0,1.3,0.2,1.7,0.3c2,0.9,3.4,2.3,3.4,3.6C167.2,198.9,166.4,199.8,164.2,200.3z"/>
	<path class="st1" d="M197.8,174l-10.9,14.8c5,10.3,9.5,19.9,9.9,20.2c1.6,1.2,3.5,2.4,3.5,4.9c0,2-1.8,3.7-4.2,3.7
		c-2.4,0-5.3-1.6-7.7-6c-3-5.6-5.1-10.5-7.2-14.8c-2.6,3.5-13.3,19.1-13.3,22.6c0,0.2,0.1,0.5,0.1,0.8c0,3.3-2.5,4.8-5,4.8
		c-2.5,0-5-1.6-5-4.6c0-1.2,0.3-2.4,1.1-3.9c5.3-10.2,11.2-19.6,17.8-28.7c-2.4-4.9-4.2-9.8-7.5-14.1c-1.2-1.6-2.3-3.5-2.3-5.3
		c0-2.5,3-4.5,5.5-4.5c3.1,0,4.6,3.2,5.7,6c1.4,3.4,2.7,6.6,4.2,10c6.7-8.9,9.7-13.2,9.7-13.2c2-2.6,3.7-4,6.1-4c1.6,0,4,1.4,4,3.5
		C202.4,167.3,200.8,170,197.8,174z"/>
	<path class="st1" d="M256.5,204.6c-1.2,0.2-5.3,2.3-6.6,2.9c-7.2,3.4-20.9,9.7-31.3,9.7c-8.9,0-15.5-6-15.5-14.9
		c0-17,25.8-38.6,36.4-38.6c2.6,0,4.6,1.8,4.6,4.6s-3,3.9-5.7,4.5c-7.4,1.5-27.1,18.4-27.1,29.1c0,4.5,3.8,7.3,8.4,7.3
		c10.1,0,26.9-9.6,33.8-12.6c1.6-0.7,3.3-1.4,4.9-1.4c2.2,0,4.4,2,4.4,4.4C262.6,203.3,256.5,204.6,256.5,204.6z"/>
	<path class="st1" d="M274,206.3v4.6c1,1.6,1.5,3,1.5,4.1c0,2.8-2.4,4.3-4.9,4.3c-1.9,0-3.9-0.9-4.7-2.8c-0.3-0.7-0.5-3.6-0.5-7.7
		c0-12.3,1.3-35.2,2.6-40.7c0.7-2.7,2.7-4.3,4.6-4.3c2.2,0,4.4,2.2,4.4,7.5C277,176,274,194.3,274,206.3z"/>
	<path class="st1" d="M337.1,173c-1.3,0-2.4-0.5-3.1-2.2c-8.7,0.4-17.9,0.6-26.4,3.3c-0.2,2.6-1.6,21.4-1.6,31.5
		c0,3.4,0.2,5.7,0.5,6.3c0.3,0.5,0.5,1.2,0.5,2c0,2.6-1.6,6.3-4.8,6.3c-0.9,0-2-0.3-3.2-1.1c-0.9-0.5-1.3-15.2-1.3-25
		c0-4.8,0.5-9.6,0.5-14.9c0-0.9-0.1-1.8-0.1-2.8c-4.2,0.9-11.7,2.3-14.2,2.3c-2.3,0-4.2-2.4-4.2-4.7c0-2.3,1.6-4.4,4.9-4.6
		c0.9-0.1,1-0.1,2.4-0.1c2.4,0,6.1-0.4,11.9-2c0.6-1.5,2.2-2.4,4.1-2.4c0.9,0,1.8,0.2,2.7,0.7c4.9-0.9,25-2.5,32-2.5
		c3.1,0,6.4,1.5,6.4,5.3C344.1,169.7,340.1,173,337.1,173z"/>
	<path class="st1" d="M350.8,206.3v4.6c1,1.6,1.5,3,1.5,4.1c0,2.8-2.4,4.3-4.9,4.3c-1.9,0-3.9-0.9-4.7-2.8c-0.3-0.7-0.5-3.6-0.5-7.7
		c0-12.3,1.3-35.2,2.6-40.7c0.7-2.7,2.7-4.3,4.6-4.3c2.2,0,4.4,2.2,4.4,7.5C353.8,176,350.8,194.3,350.8,206.3z"/>
	<path class="st1" d="M399.5,211.7c0,4.5-2.1,6.5-4.3,6.5s-4.6-1.3-4.6-6.5c-0.8-0.6-1.6-0.9-2.7-1.7c-5.7-4-12.4-16.5-16.6-24.4
		c-1.3,8.1-3.2,20.7-3.2,24.2c0,0.5,0.1,0.8,0.2,0.9c0.9,1,1.3,2.8,1.3,4.7c0,3.4-1.4,7.1-4.6,7.1c-0.9,0-2-0.3-3.2-1.1
		c-0.4-0.2-0.6-3-0.6-6.8c0-9.3,0.7-21.4,1.5-28c0.8-6.5,0.5-18.1,1.9-20.2c0.9-1.3,2.4-2.4,4.1-2.4c1.3,0,2.5,0.6,3.5,2.1
		c1.8,2.8,2.9,6,4,9.2c2.8,8.3,8.1,20.3,14.4,25.8c0-3.6-0.1-6.9-0.1-11.9c0-8.2,0.2-10.3,0.2-15.1c0-2.1-0.4-4.3-0.4-6.5
		c0-2.3,0.9-4.8,4.6-4.8c3.9,0,4.8,6,4.8,12c0,7-1,13.9-1,21.4c0,2.5,0.2,5.6,0.7,9.5c0.5,0.9,1,2,1,3.1
		C400.3,209.8,400,210.7,399.5,211.7z"/>
	<path class="st1" d="M467.5,203c0,0.3,0.1,0.5,0.2,0.6c1.3,0.7,2.4,1.4,2.4,2.9c0,2.7-3.3,9-6.5,9c-3.6,0-4.5-4.5-4.5-9
		c0-3.8,0.6-7.6,0.9-9.3c-6.5,11.4-22.8,24.5-36.1,24.5c-11.2,0-17.5-9.4-17.5-20.3c0-24.8,31.3-38.3,34.2-38.2
		c2.8,0.1,5.3,2.1,5.3,4.3c0,1.3-0.9,2.6-3.1,3.6c-11.7,5.4-27.2,14.6-27.2,30.1c0,5.6,2.8,12.2,9.4,12.2c7.1,0,15.7-7.2,20.1-11
		c4.5-3.8,8.2-7.9,8.2-10.1c0-0.6-0.4-1.6-1.3-1.6c-3.5,0-17.8,8.8-21.9,8.8c-2.6,0-4.8-2.7-4.8-4.8c0-0.9,0.3-1.7,1.3-2.4
		c2.1-1.4,31.1-14.7,41.1-14.7c2.7,0,3.3,2,3.3,5.2C470.6,189.4,467.5,200.1,467.5,203z"/>
</g>
</svg>
