<svg width="209" height="21" viewBox="0 0 209 21" fill="none" xmlns="http://www.w3.org/2000/svg">
<path fill-rule="evenodd" clip-rule="evenodd" d="M8.59798 17.5189C8.59798 18.4977 8.7537 18.8982 9.49893 18.9315L10.8003 19.0539V20.0772H2.75847V19.0539L4.05985 18.9315C4.79396 18.887 4.9608 18.4977 4.9608 17.5189V2.71438H4.02648C1.93538 2.71438 1.63506 3.82666 0.856461 6.52952H0V1.47974H13.5699V6.52952H12.6912C11.9126 3.83779 11.6123 2.71438 9.52118 2.71438H8.59798V17.5189Z" fill="black"/>
<path fill-rule="evenodd" clip-rule="evenodd" d="M25.8833 17.7411C25.8833 18.8534 26.0613 18.9757 27.3627 19.0536V20.0769H21.2117V19.0536L21.69 18.998C22.1683 18.9423 22.4241 18.82 22.4241 17.919V11.1007C22.3685 9.4879 21.7901 8.66481 20.6111 8.66481C19.6545 8.66481 19.0316 9.26544 18.7313 9.96618C18.5756 10.3444 18.5089 10.9672 18.5089 11.5679V17.9302C18.5089 18.8311 18.7647 18.9423 19.243 19.0091L19.7213 19.0647V20.088H13.5703V19.0647C14.8717 18.9868 15.0497 18.8645 15.0497 17.7522V3.37032C15.0497 2.2914 14.8717 2.05782 14.5158 1.96883L13.7149 1.81311V0.856546L18.342 0.122437L18.4977 0.278157V8.44235C19.9103 7.38568 20.9893 6.58483 22.3463 6.58483C24.7599 6.58483 25.8388 8.19765 25.8611 10.7114V17.7411H25.8833Z" fill="black"/>
<path fill-rule="evenodd" clip-rule="evenodd" d="M37.5621 16.4617C36.7835 18.842 35.2819 20.3881 32.5679 20.3881C28.319 20.4326 26.9843 17.1402 26.9843 13.4808C26.9843 9.71014 28.497 6.57349 32.6124 6.57349C37.0282 6.57349 37.7401 9.94372 37.7401 12.1572C37.7401 13.0136 37.3174 13.2917 36.5054 13.2917H30.6214C30.6214 16.1058 31.3778 18.3193 33.6802 18.3193C35.0817 18.3193 36.0605 17.4405 36.739 15.9278L37.5621 16.4617ZM33.4466 12.0126C33.9694 12.0126 34.1474 11.8569 34.1474 11.1116C34.1474 9.85474 33.9249 7.81925 32.5346 7.81925C31.033 7.81925 30.6214 10.0772 30.6214 12.0126H33.4466Z" fill="black"/>
<path fill-rule="evenodd" clip-rule="evenodd" d="M76.2585 20.0772V19.0539C77.8713 18.976 78.0493 18.8314 78.0493 17.4522V4.12698H77.9937L73.2219 19.5989H71.8427L66.9375 4.12698H66.8597V13.3034C66.8597 15.4834 66.8819 16.5179 66.982 17.4967C67.0376 18.431 67.3046 18.8537 67.9386 18.9093L69.1732 19.0539V20.0772H63.7008V19.0539L64.5016 18.9093C65.0355 18.8314 65.258 18.431 65.3358 17.4967C65.4137 16.5401 65.4359 15.5057 65.4359 13.3034V4.07137C65.4359 2.71438 65.258 2.56978 63.6451 2.49192V1.47974H69.6737C69.9741 2.63652 70.4968 4.21596 70.8861 5.42836L73.6001 13.6704H73.678L75.6134 7.38598C76.2362 5.39499 77.0148 2.75887 77.393 1.47974H83.3438V2.50304C81.7309 2.5809 81.5307 2.7255 81.5307 4.08249V17.4633C81.5307 18.8425 81.7309 18.976 83.3438 19.065V20.0883H76.2585V20.0772Z" fill="black"/>
<path fill-rule="evenodd" clip-rule="evenodd" d="M94.5557 13.492C94.5557 17.8077 92.7982 20.3993 88.6717 20.3993C84.5006 20.3993 82.7432 17.8077 82.7432 13.492C82.7432 9.17634 84.5006 6.58472 88.6717 6.58472C92.7982 6.58472 94.5557 9.17634 94.5557 13.492ZM88.6717 19.1536C90.2733 19.1536 90.9296 17.0958 90.9296 13.4809C90.9296 9.86596 90.2733 7.80823 88.6717 7.80823C87.0366 7.80823 86.3803 9.86596 86.3803 13.4809C86.3803 17.1069 87.0366 19.1536 88.6717 19.1536Z" fill="black"/>
<path fill-rule="evenodd" clip-rule="evenodd" d="M95.156 15.1048H96.0125C96.6131 17.296 97.8255 19.1536 99.3271 19.1536C100.35 19.1536 100.907 18.5307 100.907 17.5185C100.907 16.2171 99.7942 15.4385 98.6263 14.9602C96.6131 14.0815 95.2784 12.7802 95.2784 10.8337C95.2784 8.11967 97.0135 6.58472 99.7831 6.58472C100.984 6.58472 102.275 6.84054 103.22 7.51904V11.0895H102.386C101.952 9.05399 100.973 7.81936 99.7942 7.81936C98.8599 7.81936 98.3594 8.54234 98.3594 9.37656C98.3594 10.4555 99.3382 11.0895 100.673 11.6567C102.764 12.6133 104.01 13.7145 104.01 16.028C104.01 18.92 102.097 20.3993 99.3048 20.3993C98.0257 20.3993 96.3128 20.0656 95.4563 19.1202L95.156 15.1048Z" fill="black"/>
<path fill-rule="evenodd" clip-rule="evenodd" d="M114.532 16.3062C113.631 19.6431 111.518 20.3994 109.604 20.3994C106.39 20.3994 104.232 18.1193 104.232 13.5922C104.232 11.2564 104.833 9.52127 105.789 8.38673C106.824 7.17434 108.247 6.59595 110.016 6.59595C112.096 6.59595 114.387 7.63038 114.387 9.55463C114.387 10.7337 113.286 11.2119 112.496 11.2119C111.896 11.2119 111.562 10.8894 111.395 10.2776C110.995 8.67593 110.617 7.84171 109.816 7.84171C108.859 7.84171 107.858 9.37667 107.858 12.9694C107.858 17.1627 109.315 18.3528 110.795 18.3528C112.051 18.3528 112.952 17.73 113.731 15.8947L114.532 16.3062Z" fill="black"/>
<path fill-rule="evenodd" clip-rule="evenodd" d="M126.59 13.492C126.59 17.8077 124.832 20.3993 120.706 20.3993C116.535 20.3993 114.777 17.8077 114.777 13.492C114.777 9.17634 116.535 6.58472 120.706 6.58472C124.832 6.58472 126.59 9.17634 126.59 13.492ZM120.706 19.1536C122.307 19.1536 122.964 17.0958 122.964 13.4809C122.964 9.86596 122.307 7.80823 120.706 7.80823C119.071 7.80823 118.414 9.86596 118.414 13.4809C118.403 17.1069 119.071 19.1536 120.706 19.1536Z" fill="black"/>
<path fill-rule="evenodd" clip-rule="evenodd" d="M131.317 6.9071V7.93041L130.683 8.00827C130.227 8.06388 130.149 8.28634 130.282 8.86473L132.017 16.2726H132.073L134.186 6.91823H136.6L138.958 16.2726H139.036C139.614 13.7365 140.371 10.3218 140.571 8.98708C140.626 8.46431 140.593 8.16399 140.17 8.08613L139.192 7.93041V6.9071H143.919V7.93041C142.762 8.05276 142.606 8.23073 142.261 9.26515C141.928 10.244 141.427 11.9346 140.949 13.7922L139.314 20.0766H136.811L134.531 11.8123H134.431L132.351 20.0766H129.837L127.924 12.9468C127.468 11.245 127.323 10.7111 126.823 9.07606C126.545 8.15287 126.289 8.04164 125.366 7.91929V6.9071H131.317Z" fill="black"/>
<path fill-rule="evenodd" clip-rule="evenodd" d="M156.699 17.5189C156.699 18.4977 156.854 18.8982 157.6 18.9315L158.901 19.0539V20.0772H150.859V19.0539L152.161 18.9315C152.895 18.887 153.061 18.4977 153.061 17.5189V2.71438H152.138C150.047 2.71438 149.747 3.82666 148.968 6.52952H148.112V1.47974H161.682V6.52952H160.803C160.024 3.83779 159.724 2.71438 157.633 2.71438H156.71V17.5189H156.699Z" fill="black"/>
<path fill-rule="evenodd" clip-rule="evenodd" d="M162.394 9.84366C162.394 8.76474 162.216 8.53116 161.86 8.46442L161.059 8.31983V7.36326L165.686 6.58466L165.842 6.74038V17.7409C165.842 18.8532 166.02 18.9755 167.344 19.0534V20.0767H160.915V19.0534C162.216 18.9755 162.394 18.8532 162.394 17.7409V9.84366ZM161.916 3.0587C161.916 1.80182 162.716 0.7229 163.996 0.7229C165.308 0.7229 166.109 1.80182 166.109 3.0587C166.109 4.36008 165.252 5.439 163.996 5.439C162.716 5.42788 161.916 4.34896 161.916 3.0587Z" fill="black"/>
<path fill-rule="evenodd" clip-rule="evenodd" d="M172.449 17.9189C172.449 18.8199 172.705 18.9311 173.183 18.9979L173.661 19.0535V20.0768H167.51V19.0535C168.812 18.9756 168.99 18.8533 168.99 17.741V9.84372C168.99 8.7648 168.812 8.53122 168.456 8.46448L167.633 8.31989V7.36332L172.137 6.58472L172.438 8.44224C173.695 7.50792 174.751 6.58472 176.231 6.58472C177.943 6.58472 178.889 7.61914 179.345 8.59796C180.324 7.86385 181.736 6.58472 183.316 6.58472C185.729 6.58472 186.853 8.19753 186.886 10.7558V17.741C186.886 18.8533 187.064 18.9756 188.366 19.0535V20.0768H182.215V19.0535L182.693 18.9979C183.171 18.9422 183.427 18.8199 183.427 17.9189V11.2341C183.371 9.53228 182.704 8.6202 181.636 8.6647C180.813 8.6647 180.035 9.24309 179.745 10.5556C179.69 10.8781 179.668 11.412 179.668 11.857V17.9189C179.668 18.8199 179.912 18.9311 180.391 18.9979L180.869 19.0535V20.0768H174.996V19.0535L175.474 18.9979C175.952 18.9422 176.208 18.8199 176.208 17.9189V11.2341C176.186 9.69912 175.686 8.6647 174.551 8.6647C173.628 8.6647 172.794 9.26533 172.538 10.5778C172.46 10.9338 172.438 11.412 172.438 11.857V17.9189H172.449Z" fill="black"/>
<path fill-rule="evenodd" clip-rule="evenodd" d="M198.454 16.4617C197.676 18.842 196.196 20.3881 193.46 20.3881C189.211 20.4326 187.876 17.1402 187.876 13.4808C187.876 9.71014 189.411 6.57349 193.527 6.57349C197.943 6.57349 198.632 9.94372 198.632 12.1572C198.632 13.0136 198.232 13.2917 197.398 13.2917H191.514C191.514 16.1058 192.292 18.3193 194.572 18.3193C195.974 18.3193 196.964 17.4405 197.642 15.9278L198.454 16.4617ZM194.339 12.0126C194.861 12.0126 195.039 11.8569 195.039 11.1116C195.039 9.85474 194.817 7.81925 193.427 7.81925C191.947 7.81925 191.514 10.0772 191.514 12.0126H194.339Z" fill="black"/>
<path fill-rule="evenodd" clip-rule="evenodd" d="M199.255 15.1048H200.112C200.712 17.296 201.925 19.1536 203.448 19.1536C204.45 19.1536 205.028 18.5307 205.028 17.5185C205.028 16.2171 203.893 15.4385 202.737 14.9602C200.723 14.0815 199.389 12.7802 199.389 10.8337C199.389 8.11967 201.124 6.58472 203.893 6.58472C205.095 6.58472 206.385 6.84054 207.33 7.51904V11.0895H206.496C206.062 9.05399 205.084 7.81936 203.905 7.81936C202.97 7.81936 202.47 8.54234 202.47 9.37656C202.47 10.4555 203.471 11.0895 204.783 11.6567C206.874 12.6133 208.12 13.7145 208.12 16.028C208.12 18.92 206.207 20.3993 203.415 20.3993C202.136 20.3993 200.423 20.0656 199.567 19.1202L199.255 15.1048Z" fill="black"/>
<path fill-rule="evenodd" clip-rule="evenodd" d="M46.8823 2.3358C46.9046 2.8697 47.5386 3.06991 47.6164 3.59269C47.8722 3.5482 48.4729 3.29237 48.8733 3.59269L48.8177 3.5482L48.8955 3.47034L48.94 3.53708L48.8844 3.59269C49.0401 3.57044 49.1291 3.99311 49.3182 3.73729L49.2626 3.7929L49.1847 3.71504L49.2404 3.67055C49.296 3.7929 49.4406 3.71504 49.5184 3.72616C49.8187 3.37023 49.2404 2.90307 49.3182 2.56938C49.3738 2.59163 49.4183 2.52489 49.4628 2.49152C49.1625 2.31356 49.5184 2.15784 49.2404 1.96875C49.0401 2.31356 48.6397 2.21345 48.3616 2.32468C48.1169 2.00212 47.4607 2.12447 47.5386 1.69068C47.7833 1.26801 48.3172 1.61282 48.573 1.23464C48.9512 1.49047 48.8177 0.711864 49.1514 0.878707C49.4962 0.700741 50.2637 0.622881 50.7642 0.65625C50.9866 0.856462 51.0423 1.21239 50.9088 1.47934C50.8532 1.4571 50.8087 1.50159 50.7642 1.53496C51.1424 1.69068 50.8865 2.11335 51.2647 2.26907C51.5094 2.02436 51.6095 1.66843 51.9432 1.53496C52.3214 1.47934 52.6996 1.61282 52.8775 1.89089C52.9776 2.39142 53.0555 3.06991 52.7997 3.52595L52.8775 3.58157C53.3558 3.00318 54.2568 3.18114 54.8574 3.14777C54.7351 3.09216 54.8129 2.94756 54.8018 2.84746L55.2356 3.00318C55.2912 2.88083 55.1911 2.42479 55.5359 2.70286C55.7917 2.75847 55.9141 3.22563 56.2589 3.13665C56.9819 3.67055 57.6604 4.61599 58.5391 4.89407C58.7949 5.09428 58.5613 5.29449 58.4612 5.47246C58.3389 5.95074 57.8828 5.47246 57.6604 5.62818C57.7382 5.72828 57.8828 5.7839 57.8828 5.90625C57.449 6.32892 57.0041 5.80614 56.6482 5.62818L55.8251 5.70604C55.3468 7.4857 57.6047 8.39777 57.36 10.0996C58.2832 10.4444 58.9951 8.78707 59.8516 9.87712C59.9294 10.678 60.5523 11.2786 61.0306 11.9348C60.9527 12.4687 61.2086 13.3363 60.8081 13.8257C60.6302 13.8035 60.4077 13.7256 60.3743 13.5254C60.3187 13.2696 60.1519 13.0471 60.2186 12.7246L60.5189 12.3464L60.3743 12.2352C60.3299 12.2797 60.2965 12.3353 60.2186 12.313C59.9739 11.679 59.9183 10.8559 59.1953 10.5556C59.4178 10.5 59.4956 10.7558 59.6291 10.8559C59.6847 10.3999 59.7737 11.0561 59.8516 10.8559C59.8738 10.9338 59.796 11.0784 59.9294 11.134L59.985 11.0561C60.341 11.0116 59.9072 11.857 60.3632 11.857C60.3076 11.9571 60.1853 12.0016 60.2075 12.1017L60.2854 12.1573L60.43 12.0127C60.4856 12.2129 60.6079 12.3353 60.8081 12.3686C60.8304 12.1907 61.064 11.9905 60.8638 11.7903L60.5857 11.4343L60.5078 11.4899C60.4522 11.0116 59.8293 10.7558 59.8516 10.2553C59.707 10.3109 59.8071 10.4555 59.7737 10.5556C59.8182 10.3554 59.5957 10.5111 59.6291 10.3999C59.8849 10.2553 59.707 10.0662 59.6847 9.89936C59.44 9.72139 59.0618 9.62129 58.8283 9.65466C58.6837 9.71027 58.7726 9.87712 58.7504 9.95498L58.5947 9.81038C58.5168 9.85487 58.5391 9.95498 58.5391 10.0328L58.4612 9.95498C58.4167 10.2553 58.261 9.87712 58.2388 10.1774C58.2388 10.3776 58.261 10.0996 58.1831 10.1218C58.083 10.1663 58.1053 10.2664 58.1053 10.3443V10.2553C57.8828 10.0551 57.5491 10.411 57.2266 10.3999C57.2266 10.8559 56.8929 11.3342 57.2266 11.7124C57.8495 11.5344 58.3389 10.9783 58.9061 10.6112C58.5836 10.9338 57.9829 11.6345 57.3712 11.7903C58.1943 11.7458 58.1943 12.7134 58.5502 13.1917C58.9284 13.7145 59.4845 14.0927 59.5624 14.6488C59.8627 14.8935 60.341 15.1827 60.3855 15.6054L60.1408 15.75L60.2186 15.8279C60.0407 15.9502 59.7848 15.8723 59.5624 15.8835L59.4178 15.6833C59.4734 15.7055 59.5179 15.6388 59.5624 15.6054C59.5846 15.5498 59.5179 15.483 59.5068 15.4497H59.4289C59.2843 15.5275 59.707 15.027 59.351 14.8713C59.1508 14.6488 59.7515 14.3485 59.351 14.1483C59.1286 13.9481 58.9172 14.1928 58.6948 14.2039L59.2176 14.938C58.5947 14.6043 58.5391 13.4253 57.6826 12.9582C57.6826 12.858 57.7049 12.7802 57.6048 12.7357C57.3489 12.8136 56.726 12.58 56.2255 12.6578C55.5025 12.4799 54.7239 13.0805 54.2345 12.3575L53.8786 12.5132C54.0788 12.669 54.3013 12.9693 54.4014 13.2362C54.5793 13.214 54.6238 12.8024 54.9019 12.9582C55.2245 13.5143 55.5248 14.3708 56.3034 14.4152C56.5036 14.9491 56.904 15.2495 57.2599 15.7277C57.2599 15.9502 57.0152 16.0837 57.1821 16.3284L56.7483 16.1727C56.4702 17.1292 55.9141 17.9301 55.2912 18.742C54.8685 19.098 54.4903 18.92 54.0566 19.1647C54.1122 19.3204 54.3013 19.2203 54.4125 19.2648C54.368 19.3204 54.4347 19.3649 54.4681 19.4094C54.5682 19.3316 54.5682 19.0869 54.7684 19.1647V19.2648C55.269 19.4428 55.9808 18.8422 56.3812 19.465L56.4369 19.8988C56.1921 19.8988 56.0364 19.8988 55.7139 19.8988C55.5137 20.0545 55.7584 20.1991 55.7695 20.3549C55.6249 20.3771 55.5915 20.099 55.4135 20.1991C55.2689 20.3437 55.3691 20.5328 55.3357 20.7219C55.2133 20.7219 55.1577 20.5662 55.0576 20.4995C54.5571 20.822 53.823 19.8432 53.2223 20.4995C53.1778 20.544 53.1222 20.5773 53.1445 20.6441C53.0666 20.4438 53.2446 19.9656 53.5783 19.8432C53.3224 19.5874 52.9554 20.0434 52.8442 19.5429C52.8887 19.4205 52.7886 19.2648 52.922 19.1647C51.921 19.3649 50.8865 18.8644 49.93 18.5307C49.8076 18.7087 49.5963 18.9534 49.7743 19.1647C50.3082 19.4094 50.8754 19.6208 51.3871 19.8432V20.0657C51.287 19.8877 51.109 19.9211 50.9533 19.91L50.8087 20.0657C50.9866 20.1435 51.2425 20.3437 51.2425 20.5662C51.0645 20.822 50.9866 20.4105 50.8087 20.4216C50.0078 20.5662 49.8855 19.5651 49.0513 19.8432C48.9734 19.9433 49.1959 20.2214 49.0513 20.366C48.9289 20.1213 48.6953 20.1658 48.5285 20.0657C48.5062 20.2214 48.8511 20.544 48.6731 20.7998C48.6953 20.4216 48.2504 20.5996 48.0947 20.366C47.8945 20.1102 47.7944 19.8321 47.5163 19.6319C47.1604 19.8098 46.6154 19.554 46.3373 19.91C46.2372 19.7654 46.493 19.5763 46.5597 19.4094C46.76 19.2315 47.1604 19.3093 47.4385 19.1647C47.5608 19.2203 47.4941 19.4205 47.6609 19.4094C47.761 19.2648 47.7165 18.9868 47.5163 18.8866C47.2716 18.9089 46.8934 18.9089 46.9157 18.5863C47.3383 18.3416 47.4385 17.8522 47.5719 17.4296C47.4941 17.3072 47.5497 17.1515 47.4273 17.0514C47.4273 17.6075 46.9268 18.0747 46.4708 18.3083C45.948 18.3639 45.5142 18.2304 45.1583 17.8745C44.8579 17.474 44.8023 16.8734 44.9358 16.3951C44.4353 16.3506 43.1561 16.0948 43.5566 17.1292C43.6122 17.5853 44.0793 18.2638 43.7012 18.8088C43.4453 18.7309 43.0672 18.7865 42.9671 18.4529C42.6223 17.9968 43.3675 17.6298 42.8892 17.2182L42.8336 17.2738C42.4332 16.9179 42.9337 16.5397 42.9782 16.1727C42.1996 15.75 42.3998 14.8157 42.4777 14.1372L42.8336 13.6144L42.6111 13.5365C42.689 13.3586 42.6334 13.1139 42.7557 12.9582V13.036C42.8781 13.1139 43.056 12.9359 43.1895 12.8803L43.1339 12.8024C42.9337 12.8024 43.1895 12.8247 43.1895 12.7468C43.145 12.6022 43.0116 12.6912 42.8892 12.669C43.0116 12.8247 42.7446 11.9905 42.6111 12.5911L42.689 12.669L42.6334 12.6245L42.7112 12.5466L42.7557 12.5911L42.7001 12.669L42.5444 12.5244L42.1885 12.8803C42.144 12.7802 42.2886 12.7357 42.3331 12.6578L42.2552 12.58C42.8781 12.0794 43.1895 11.3231 43.2896 10.5445C43.5121 10.4221 43.5677 9.78813 43.9459 9.51006C43.7901 10.0662 43.2118 10.5667 43.4231 11.2119C43.8791 10.6335 43.9792 9.93273 44.6021 9.45445C44.4798 9.71027 44.4019 9.97722 44.2462 10.2553L44.3018 10.3332C44.5243 9.93273 44.8579 9.79926 45.1249 9.45445C45.0248 9.65466 44.7022 9.88824 44.8246 10.1107C45.047 9.68803 45.4586 9.4322 45.8479 9.23199L45.492 9.58792C45.8479 9.83262 46.3484 9.30985 46.8045 9.58792C46.1037 9.2876 45.5698 10.4221 44.9692 10.0217C44.4353 10.5779 43.4898 10.8003 43.1561 11.6345C42.8336 11.9348 43.4342 12.2129 43.4342 12.5689C43.7123 13.5699 42.5555 14.5821 43.5899 15.2828C43.868 14.8824 43.868 14.3485 44.2462 13.9703C43.8903 15.027 43.2118 15.9613 42.7112 16.9624C42.7668 17.1181 43.0116 16.84 42.9893 17.1181L42.9114 17.196C43.2118 17.6186 42.9671 17.9746 43.1561 18.4306C43.2785 18.5307 43.3564 18.7087 43.5121 18.7309C43.5121 18.5752 43.5677 18.2304 43.3564 18.0524C43.234 18.108 43.3119 18.2749 43.3007 18.3527C43.6456 17.9523 43.2229 17.4518 43.3564 17.0402L43.4342 17.1181C43.2896 16.2839 44.2907 15.8167 44.1683 15.0604H44.0905C43.7902 15.5943 43.412 16.1171 43.3564 16.7622C43.1005 16.9068 43.2563 16.4396 43.3007 16.3284C43.4453 16.2728 43.6011 15.7945 43.7345 15.5053L43.8124 15.5832L44.2462 14.6266C44.1906 14.7823 44.324 14.8713 44.3908 15.0048C44.5465 14.7267 44.5688 14.9603 44.6911 14.7044L44.6355 14.7489L44.5576 14.6933L44.6132 14.6377L44.6911 14.7156C44.9469 14.5932 44.4464 14.3596 44.8357 14.3374C44.9581 14.3596 44.6132 14.7156 44.7578 14.8602C44.9803 14.66 44.9581 14.3596 45.0582 14.1372C45.1026 14.1594 45.136 14.215 45.2028 14.1928L45.4252 13.67L45.5031 14.2707L45.6588 13.9703C45.6588 14.0704 45.4808 14.1928 45.6588 14.2707C45.7367 14.0482 46.0592 13.8369 45.9369 13.6144C46.0815 13.5588 46.2372 13.7368 46.3707 13.4698C46.2705 13.6478 46.0703 13.8702 46.1482 14.0482L46.0926 13.9926L46.3929 13.7145L46.4485 13.759C46.3484 13.8035 46.3707 13.9036 46.3707 13.9815L46.4485 14.0593L46.8045 13.4809C46.7822 13.6366 46.5264 13.8035 46.7488 13.9815L47.1048 13.3252C47.1826 13.2251 46.949 13.4253 47.0269 13.5477L47.1048 13.6255L47.2494 13.4809L47.3272 13.5365L47.5497 13.2362C47.5719 13.0805 47.4941 13.3808 47.6053 13.3919L47.761 13.1695C47.7388 13.0138 47.7833 13.3141 47.9056 13.2251C47.9835 13.1027 48.0613 12.9693 48.0502 12.7913C48.028 12.8692 48.0947 12.9137 48.1281 12.947L48.2838 12.7913L48.3394 12.8692C48.5841 12.7691 48.7954 12.3909 49.0735 12.5689L49.1291 12.5132C48.4506 12.3575 48.9067 11.679 48.7732 11.2564L49.1291 9.64353C49.0068 9.52118 48.8066 9.59904 48.6286 9.58792C48.6842 9.61017 48.7287 9.54343 48.7732 9.51006C48.7287 9.4322 48.6286 9.45445 48.5507 9.45445L48.6286 9.37659C48.4061 9.33209 48.0502 9.42108 47.8278 9.59904L47.8834 9.65466L47.1493 10.3332L47.5274 9.95498C47.4829 9.85487 47.3495 9.85487 47.305 9.95498L47.3495 10.0106L47.0492 10.3109L47.0047 10.2553L47.3606 9.89936C47.3161 9.85487 47.305 9.79926 47.216 9.8215L47.2716 9.87712L47.0269 10.0773L46.9824 10.0328C47.3383 9.77701 47.2827 9.53231 47.4162 9.29873C47.1715 9.25423 46.8823 9.09851 46.6932 9.15413V9.29873C46.3373 8.84269 45.2806 8.42002 44.8579 7.76377C44.1016 7.41896 43.501 8.00847 43.1005 8.56462C42.7446 9.19862 42.3664 9.89936 42.0661 10.4778L42.144 10.7558L41.9994 10.5556C41.9215 10.7002 41.7992 10.8559 41.8436 11.0561C41.2875 11.6345 40.8203 12.491 40.8203 13.2473C40.9427 13.2029 40.4755 13.4253 40.7425 13.5477C40.4644 13.6255 40.698 13.9481 40.52 14.0704L40.5979 14.1483C40.8426 13.9481 40.9983 13.5922 41.0317 13.2473C41.1318 13.4476 40.5979 13.9481 41.0873 13.9815L41.9104 12.9582L40.8871 14.4931C40.7425 14.2707 40.6424 14.5932 40.5089 14.571C40.1641 13.7479 40.8315 12.8914 41.0317 12.0794C40.6869 11.8792 40.1307 11.9237 40.0751 11.4232C40.1752 11.3453 40.3977 11.3787 40.3754 11.2007C40.2308 11.0005 40.1196 11.2452 39.9973 11.2564L40.2197 11.0339L39.8638 10.9783C39.8082 10.7558 39.9639 10.6223 40.0084 10.4555C40.1641 10.4333 40.2531 10.7558 40.3866 10.5334L40.1641 10.3109C40.1085 10.1107 40.5423 10.0551 40.7425 9.93273C41.1207 10.0551 41.1985 9.75476 41.2653 9.49894C41.3876 9.89936 41.6657 10.2219 41.6212 10.678C41.3431 10.7781 40.9427 10.7781 40.6646 10.678L40.9649 10.3776C40.7091 10.1552 40.4088 10.4333 40.3087 10.678C40.1085 11.1562 40.9427 11.1785 40.6646 11.5567C40.9093 11.5011 40.7425 11.7124 40.9093 11.8347C40.9538 11.2007 41.7658 11.3787 41.9326 10.678C42.0884 10.3554 42.0884 9.89936 42.4554 9.74364V9.52118C42.9114 8.88718 43.2563 8.1197 43.9125 7.63029C45.2917 6.97404 45.7033 9.10964 46.9046 9.08739C47.4273 9.2876 47.939 9.0429 48.4395 9.03178C47.9612 9.03178 47.939 8.49788 47.8611 8.13082C46.9268 7.70815 45.3696 8.48676 44.9247 7.1965C44.8246 6.81832 45.0804 6.39565 45.225 6.01748C45.5253 5.76165 45.948 5.73941 46.3262 5.66154L46.1593 5.48358C46.2149 5.62818 45.9814 5.23888 45.859 5.12765C45.8145 4.60487 46.0147 4.82733 46.2149 4.39354C46.2928 4.34905 46.8156 4.14883 46.5153 3.81515C45.5364 2.71398 44.8802 1.33475 44.324 0C45.1805 0.778601 46.0815 1.61282 46.8823 2.3358Z" fill="black"/>
<path fill-rule="evenodd" clip-rule="evenodd" d="M46.5157 2.56937C46.7159 2.73622 46.3823 2.55825 46.5825 2.49151C46.5046 2.41365 46.4379 2.2913 46.3044 2.33579L46.2265 2.41365C46.2822 2.45815 46.3044 2.51376 46.3823 2.49151C46.1821 2.56938 46.3267 2.73622 46.3044 2.84745C46.36 2.86969 46.4045 2.80296 46.449 2.79183V2.84745H46.7493C46.7048 2.89194 46.6492 2.92531 46.6937 3.00317L47.1164 3.05878L46.9718 3.2145L47.0496 3.27012L46.8828 3.44808C46.9607 3.59268 47.1275 3.49257 47.261 3.52594C47.261 3.77065 46.8828 3.6038 46.8828 3.88187C46.5046 3.85963 47.0051 3.63717 46.7382 3.52594L46.5825 3.67054C46.6603 3.64829 46.0041 3.29236 46.4379 3.0699C46.5602 2.84745 46.0375 2.86969 46.1598 2.49151C46.0819 2.64724 45.9151 2.39141 45.9373 2.63611V2.85857C45.4368 2.42478 45.6926 1.93537 45.2811 1.47933L45.2032 1.53495C45.2032 1.61281 45.0586 1.29024 44.9808 1.17901L45.0586 1.23463C45.1031 1.19014 45.1587 1.17901 45.1143 1.09003L44.9697 0.945435L44.8918 1.02329L44.458 0.289185L46.7382 2.40253L46.5157 2.56937Z" fill="white"/>
<path fill-rule="evenodd" clip-rule="evenodd" d="M50.7758 0.878781L50.698 1.23471C50.6535 1.29033 50.8203 0.934396 50.6201 0.734184C50.4978 0.83429 50.5756 1.0345 50.5645 1.16798C50.5645 1.01226 50.609 0.812044 50.4199 0.734184C50.5534 0.723061 50.6757 0.756429 50.7758 0.878781Z" fill="white"/>
<path fill-rule="evenodd" clip-rule="evenodd" d="M50.1088 0.956619H50.0309C49.8085 1.21245 50.4536 1.39041 50.1755 1.69073C50.3201 1.79084 50.5315 2.01329 50.4759 2.26912C50.4759 2.19126 50.4981 2.09115 50.4202 2.04666L50.1199 2.40259L49.9753 2.258C49.7751 2.5027 50.0198 2.73628 50.0309 2.99211C50.0087 2.59168 49.7084 3.1367 49.8085 2.55831C49.853 2.68067 49.7084 2.10228 50.0309 2.03554C50.0532 1.99105 49.9976 1.95768 49.9753 1.89094L49.7306 2.13564C49.7306 1.75747 50.3313 1.45715 49.9753 1.10122C49.9197 1.22357 49.4748 1.15683 49.3191 1.40153C49.3636 1.44603 49.3747 1.50164 49.4637 1.47939L49.4081 1.42378L49.4859 1.36817L49.5304 1.41266L48.8964 2.06891C48.8408 1.99105 48.8964 1.95768 48.9409 1.89094C48.7407 1.81308 48.5071 2.06891 48.2179 1.9688C48.4737 1.94656 48.7407 1.8687 48.9409 1.69073C48.6628 1.59062 48.3403 1.8687 47.9843 1.83533C48.3403 1.69073 48.8074 1.83533 49.0188 1.40153C48.7629 1.27918 48.5405 1.73522 48.2179 1.70185H47.9176C48.8186 1.87982 49.2523 0.478336 50.1088 0.956619Z" fill="white"/>
<path fill-rule="evenodd" clip-rule="evenodd" d="M50.909 2.13534C51.0091 2.25769 50.5641 2.05748 50.553 1.89064L50.6976 1.74604C50.4529 1.69043 50.4195 1.42348 50.3417 1.22327C50.4529 1.5792 51.0091 1.79053 50.909 2.13534Z" fill="white"/>
<path fill-rule="evenodd" clip-rule="evenodd" d="M49.2301 1.53528L49.2968 1.60202L48.9965 1.88009L48.9409 1.8356L49.2301 1.53528Z" fill="black"/>
<path fill-rule="evenodd" clip-rule="evenodd" d="M52.7441 1.89087C52.8665 2.19119 52.7886 2.59161 52.7998 2.9253C52.7775 2.82519 52.8554 2.68059 52.7441 2.62498C52.3437 3.15888 52.9221 3.5593 52.5217 4.10432C52.6997 4.34903 52.7775 3.92636 52.9555 3.95972L52.8887 3.89299C52.8109 3.79288 53.1446 3.61492 53.3225 3.59267L53.4004 3.53706L53.3225 3.44807C53.4004 3.29235 54.2457 3.12551 54.357 3.29235C54.2791 3.27011 54.2457 3.33684 54.2012 3.37021V3.44807C54.4793 3.60379 54.9354 3.10326 55.1578 3.59267C55.358 3.44807 55.3358 3.29235 55.5916 3.29235C55.6917 3.57042 56.17 3.39246 56.3257 3.44807L55.7251 3.72614C55.8029 3.87074 55.9698 3.78176 56.1033 3.804L56.0588 3.74839L56.1366 3.69278L56.1922 3.73727C55.7696 3.99309 56.3368 4.03759 56.2479 4.3379C56.348 4.15994 56.6816 3.90411 56.3925 3.73727V3.67053C57.1266 3.87074 57.6048 4.70496 58.3056 4.98303C58.2611 5.06089 58.1276 5.10538 58.161 5.20549L58.3056 5.35008C58.4057 5.49468 58.0498 5.49468 57.9274 5.35008L57.2934 5.27222C57.1711 5.45019 57.3713 5.72826 57.5715 5.795C57.5492 5.9396 57.3268 5.85061 57.2155 5.87286C57.1711 5.69489 56.9597 5.57254 56.8374 5.43907L56.7818 5.49468C56.804 5.43907 56.7373 5.39458 56.7039 5.35008L56.5593 5.49468L56.3368 5.27222C56.259 5.32784 56.2145 5.45019 56.1144 5.42794L55.9587 5.27222L55.8141 5.42794L55.5916 5.20549L55.536 5.2611L55.2913 5.06089L55.1467 5.20549L55.6695 5.56142C55.5916 5.58366 55.5694 5.51693 55.5249 5.48356C55.3247 5.62816 55.5694 5.73939 55.5805 5.86174C55.0577 6.01746 55.6583 6.34002 55.7251 6.58472L55.5805 6.74044C55.7362 6.8183 55.7251 6.98515 55.8029 7.09638L55.7251 7.17424C56.1811 7.43006 55.7251 7.79712 56.1811 8.05294C56.0365 8.37551 56.1255 8.58684 56.1033 8.85379L55.9475 8.79818C55.9475 9.09849 55.9253 9.37657 56.1922 9.59902V9.37657L56.2479 9.45443C56.5704 9.29871 56.5704 8.72032 56.5482 8.49786C56.804 8.75368 56.5259 9.25421 56.626 9.52116C56.6705 9.47667 56.7039 9.4433 56.6816 9.37657L56.7595 9.81036L56.9041 9.5879V9.74362C56.6594 9.72137 56.9263 9.88822 56.7595 9.94383C56.7595 10.144 57.0376 10.1218 56.8151 10.322C56.9931 10.3776 56.9597 10.4777 56.893 10.6001L56.8374 10.5556C56.6816 10.9115 57.3156 11.3898 56.7818 11.7124C56.8262 11.2897 56.7261 10.8337 56.4036 10.4777C56.3257 10.6001 56.0254 10.5222 56.1255 10.7558L56.2034 10.8559C56.2256 10.8003 56.2812 10.7558 56.259 10.7002H56.4036L56.259 10.8559C56.3035 10.9338 56.4036 10.9115 56.4814 10.9115L56.259 11.0561L56.5593 11.2118C56.6372 11.3119 56.3591 10.9894 56.259 11.2118L56.5593 11.4343C56.4369 11.4343 56.3813 11.2897 56.259 11.3564C55.9587 11.0228 56.3146 10.6335 55.8252 10.3999C55.8252 10.6779 55.8029 10.956 55.903 11.2786H55.7473C55.6472 11.2341 55.2246 10.9004 55.0243 10.9226C54.9798 11.1006 54.9242 11.679 55.3803 11.5789C55.4359 11.5566 55.4804 11.6234 55.536 11.6568C55.6361 11.3564 55.9698 11.857 56.1922 11.7124C56.348 11.8681 56.6149 11.8125 56.8262 11.9571C56.9264 11.9126 57.0709 12.0127 57.1266 11.857L57.0598 11.7902H57.1377C57.2378 12.2463 57.9608 11.7902 57.9385 12.313L58.0943 12.4576L58.1499 12.5132L57.8495 12.7913L57.7939 12.7468L57.9385 12.5911C57.6605 12.491 57.4046 12.2129 57.1377 12.3686V12.5243C56.4369 12.58 55.536 12.3686 54.724 12.58C54.5238 12.1017 53.9899 11.4009 53.4894 11.2007C53.4671 11.1229 53.5339 11.0784 53.545 11.045C53.5005 10.9894 53.367 10.9449 53.4004 10.8448L53.4783 10.7447C53.2224 10.2108 53.0778 9.63239 53.0445 9.00951H53.1001C53.2558 8.83154 53.0778 8.50898 53.0445 8.2754C52.9889 8.45337 52.7219 8.63133 52.7998 8.79818C52.6997 9.02063 52.3215 8.9539 52.2214 8.94277C52.3215 8.86491 52.3215 8.72032 52.4438 8.6647C52.1435 8.60909 52.5439 8.44224 52.2214 8.42C52.0657 8.6647 51.9655 8.89828 51.8654 9.16523H51.7097C51.5874 8.86491 51.6096 8.92053 51.5095 8.5646C51.3649 8.6647 51.4539 8.82042 51.4317 8.94277C51.554 8.68695 51.2092 8.62021 51.2092 8.42C51.1313 8.42 51.0312 8.39775 50.9867 8.49786C50.7865 8.34214 50.6642 8.14193 50.6086 7.91947L50.6864 7.84161C50.8088 8.08631 51.0424 7.99733 51.2648 7.91947C51.3649 7.76375 51.465 7.59691 51.4205 7.39669H51.4984V7.17424C50.9979 6.87392 50.3194 7.53017 50.019 6.95178C50.375 6.90729 50.9756 7.02964 51.3315 6.80718C51.1647 7.16311 51.7542 7.1075 51.5095 7.26322C51.6319 7.44118 51.7542 7.2076 51.8654 7.18536C51.7653 7.28546 51.5651 7.66364 51.8654 7.84161L52.0879 7.68589L51.8654 7.93059C51.8877 7.68589 51.643 7.85273 51.5651 7.68589C51.5429 7.93059 51.3093 8.11968 51.5095 8.36438C51.732 8.36438 51.6319 8.04182 51.8654 8.06407C52.0212 8.10856 51.821 8.31989 51.7876 8.42C51.5874 8.31989 51.6319 8.84267 51.643 8.94277L51.6986 9.02063C51.821 8.74256 51.9767 8.42 52.2214 8.28652C52.099 8.0307 52.4216 7.95284 52.5217 7.76375C51.9433 7.80824 52.5662 7.02964 52.5996 6.66258L52.5217 6.58472L51.9989 7.40782C51.7987 7.3522 52.7219 6.65146 52.0768 6.58472L51.9433 6.88504C51.821 6.9629 52.0657 6.56248 52.0879 6.36227C52.1101 6.46237 52.0323 6.60697 52.1658 6.66258C52.5106 6.20655 52.0657 5.90623 52.5217 5.56142L52.2992 5.41682L52.01 5.78388C52.0657 5.62816 51.9322 5.53917 51.8654 5.42794L51.643 6.36227C51.4873 6.01746 51.643 5.53917 51.4984 5.20549C51.3538 5.4057 51.4428 5.68377 51.4205 5.92847C51.3983 5.68377 51.4761 5.4057 51.3427 5.20549C51.1981 5.35008 51.2982 5.60591 51.2648 5.78388C51.3204 5.42794 51.2092 5.14987 51.1202 4.82731H51.1981V5.92847H51.1202C51.098 5.80612 51.1758 5.6504 51.0646 5.57254V6.58472L50.8421 5.42794V6.66258C50.8978 6.26216 50.7198 5.92847 50.6864 5.56142C50.5529 5.75051 50.653 6.00633 50.6086 6.22879C50.5863 6.07307 50.6642 5.85061 50.5529 5.72826C50.4973 6.08419 50.3527 6.40676 50.4083 6.82943C50.3639 6.67371 50.464 6.4735 50.3305 6.37339C50.1859 6.45125 50.2749 6.61809 50.2526 6.75157C50.3082 6.52911 50.1525 6.41788 50.108 6.22879V6.58472C50.0079 6.46237 49.9078 6.64034 49.8077 6.44013L49.6631 6.58472L49.6075 6.64034L49.5519 6.56248L49.5964 6.51799L49.6742 6.5736C49.7187 6.51799 49.8522 6.4735 49.8188 6.35114C49.5408 6.27328 49.4407 6.30665 49.4629 5.91735L49.385 5.86174L49.3294 5.91735C49.385 6.01746 49.2071 5.77275 49.1737 5.71714L49.3294 5.91735L49.385 5.86174L49.5296 6.00633C49.6075 5.90623 49.7076 5.72826 49.6075 5.6504C49.652 5.57254 49.7855 5.52805 49.7521 5.42794C49.7076 5.38345 49.6742 5.32784 49.6075 5.35008C49.6854 5.45019 49.7521 4.74945 49.83 4.69383C49.8077 4.89405 50.0079 4.73833 49.9857 4.83843C49.8856 5.03864 49.8633 5.36121 49.9078 5.49468C50.4083 5.17212 49.7855 4.15994 50.5641 4.56036C50.6419 4.50475 50.6197 4.41576 50.6197 4.3379C50.6753 4.4825 50.6197 4.76057 50.8644 4.77169C50.9089 4.44913 51.0424 4.84956 51.0868 4.54924C51.0646 4.40464 50.8088 4.17106 50.7865 4.24892C51.3093 3.99309 51.643 4.74945 51.9655 5.07201C51.9655 5.14987 51.9433 5.22773 52.0212 5.27222C52.366 5.19436 52.2992 4.49362 52.822 4.54924C52.7775 4.40464 52.644 4.49362 52.5439 4.47138L52.7664 4.32678L52.5439 4.10432L52.4661 4.15994C52.4216 3.95973 51.9099 3.52593 51.4428 3.58155H51.2203C51.2648 3.30348 51.4205 3.00316 51.3649 2.7807C51.6986 2.536 51.5874 1.94648 52.0212 1.74627C52.2436 1.60168 52.5439 1.7574 52.7441 1.89087Z" fill="white"/>
<path fill-rule="evenodd" clip-rule="evenodd" d="M52.3108 2.1915L52.2329 2.13589L52.0883 2.41396C52.0661 2.56968 52.1439 2.236 52.0105 2.1915C51.8881 2.29161 51.966 2.49182 51.9548 2.6253L51.877 2.56968C51.8214 2.7254 51.6545 2.92561 51.7991 3.07021C51.9993 2.82551 52.2329 2.39172 52.6222 2.41396C52.7001 2.73653 52.4665 3.1147 52.5444 3.52625C52.5666 3.58187 52.4887 2.97011 52.6222 2.79214C52.6667 2.64754 52.5444 2.56968 52.4665 2.49182L52.3886 3.53737C52.3886 3.71534 52.4109 3.45951 52.3108 3.45951L52.1662 3.67085C52.0105 3.51513 52.1662 3.23706 52.0105 3.07021C51.8881 3.17032 51.966 3.37053 51.9548 3.52625C51.9326 3.37053 52.0105 3.17032 51.877 3.07021C51.7324 3.14807 51.8214 3.31492 51.7991 3.44839C51.8214 3.37053 51.7546 3.32604 51.7213 3.29267L51.5656 3.44839C51.61 2.97011 51.8214 2.236 52.2218 1.83557C52.3664 1.83557 52.2885 2.08027 52.3108 2.1915Z" fill="black"/>
<path fill-rule="evenodd" clip-rule="evenodd" d="M45.5814 2.1358L45.637 2.09131L45.9262 2.61408L45.8595 2.63633L45.5814 2.1358Z" fill="black"/>
<path fill-rule="evenodd" clip-rule="evenodd" d="M45.7816 2.19157L45.8372 2.1582L46.0041 2.38066L45.9373 2.41403L45.7816 2.19157Z" fill="black"/>
<path fill-rule="evenodd" clip-rule="evenodd" d="M51.076 2.63582C51.2206 2.85827 50.8312 2.83603 50.6978 2.93613L50.8535 3.08073C50.898 3.05848 50.9314 2.98062 50.9981 3.02512C51.0537 3.42554 50.7756 2.98062 50.6199 3.24757C50.7756 3.24757 50.9647 3.49228 50.7756 3.6035C50.5198 3.5034 50.5754 3.92607 50.3418 3.68136C50.3084 3.36992 50.0526 2.91389 50.2528 2.79154C50.3307 2.76929 50.4308 2.79154 50.4753 2.71368C50.4308 2.61357 50.3307 2.63582 50.2528 2.63582C50.5087 2.39111 50.7756 2.59132 51.076 2.63582Z" fill="white"/>
<path fill-rule="evenodd" clip-rule="evenodd" d="M52.3108 2.63574L52.3886 2.65799L52.3108 3.44771H52.2329L52.3108 2.63574Z" fill="white"/>
<path fill-rule="evenodd" clip-rule="evenodd" d="M50.4756 2.93634C50.0752 2.89185 50.6536 3.0142 50.5535 2.79175C50.5757 2.85848 50.509 2.89185 50.4756 2.93634Z" fill="black"/>
<path fill-rule="evenodd" clip-rule="evenodd" d="M51.5105 2.79175L51.5661 2.81399L51.4326 3.31452L51.3547 3.29228L51.5105 2.79175Z" fill="black"/>
<path fill-rule="evenodd" clip-rule="evenodd" d="M55.737 3.07001C55.6925 3.1145 55.6813 3.17012 55.5924 3.14787L55.5367 2.92542C55.6257 2.95878 55.7592 2.99215 55.737 3.07001Z" fill="white"/>
<path fill-rule="evenodd" clip-rule="evenodd" d="M55.1587 3.23706C54.9585 3.31492 54.9585 3.09247 54.8584 3.01461C55.003 2.99236 55.2366 3.03685 55.1587 3.23706Z" fill="white"/>
<path fill-rule="evenodd" clip-rule="evenodd" d="M49.8086 3.36994L49.8864 3.4478L49.8308 3.39218L49.9087 3.31432L49.9643 3.36994C49.9198 3.41443 49.8642 3.4478 49.8864 3.52566L49.9087 3.4478L50.1312 3.52566L50.1089 3.58127L49.8864 3.52566C49.9421 3.67026 49.7085 3.3032 49.8864 3.22534C49.8531 3.26983 49.7975 3.29208 49.8086 3.36994Z" fill="white"/>
<path fill-rule="evenodd" clip-rule="evenodd" d="M54.2016 3.53694C53.8012 3.7149 53.6677 4.19318 53.3229 4.3934C53.3451 4.2488 53.5231 4.14869 53.6232 4.03746L53.5453 3.98185C53.7011 3.80388 53.9013 3.72602 54.0681 3.54806C53.8901 3.39234 53.6343 3.49244 53.4119 3.4702C53.7233 3.59255 54.0681 3.16988 54.2016 3.53694Z" fill="black"/>
<path fill-rule="evenodd" clip-rule="evenodd" d="M49.0741 4.02689C49.1297 3.97128 48.7515 3.8823 48.5736 3.80444C48.6292 3.82668 48.6737 3.75995 48.7182 3.72658L48.4178 3.67096C48.7182 3.63759 48.8961 3.82668 49.0741 4.02689Z" fill="white"/>
<path fill-rule="evenodd" clip-rule="evenodd" d="M51.2657 9.07657V9.29903C52.378 10.8006 53.7572 12.469 54.5803 13.7704C54.2244 13.5702 53.557 12.4357 53.0453 11.8573C53.2456 12.3133 52.5671 11.9018 52.6672 12.2355C52.3446 12.1799 52.3112 12.3133 52.0109 12.4579C52.1333 12.558 52.2334 12.736 52.3891 12.7582V12.8139C52.0332 12.736 51.7885 12.3356 51.5104 12.0909L52.8118 11.7906L52.9675 11.9463L53.0453 11.8462L49.9754 7.75294C49.8753 7.95316 49.8753 7.75294 49.7307 7.90867L49.6751 7.60835L49.8976 7.8308L49.9754 7.75294L47.1836 3.96004L47.2615 3.80432L51.2101 9.15443L51.2657 9.07657Z" fill="white"/>
<path fill-rule="evenodd" clip-rule="evenodd" d="M48.4953 4.02628C48.4508 4.07077 48.3952 4.10414 48.4175 4.17087L48.1394 3.81494L48.4175 4.11526L48.4953 4.02628Z" fill="white"/>
<path fill-rule="evenodd" clip-rule="evenodd" d="M49.4525 3.97129L49.5193 3.89343L50.3312 3.97129H49.4525Z" fill="white"/>
<path fill-rule="evenodd" clip-rule="evenodd" d="M50.2531 4.17097C50.1307 4.21546 49.975 4.11536 49.8972 4.24883L49.975 4.32669C49.8304 4.40455 49.341 4.48241 49.0185 4.24883L48.9406 4.17097C48.8405 4.39343 48.8405 4.19322 48.7181 4.32669L48.8739 4.17097L48.796 4.11536C49.1964 4.37118 49.7971 4.21546 50.2531 4.17097Z" fill="white"/>
<path fill-rule="evenodd" clip-rule="evenodd" d="M47.6949 4.99411C47.8506 5.23882 47.7172 5.51689 47.5392 5.72822L47.617 5.65036L47.4724 5.49464C47.2722 5.67261 47.5948 5.43903 47.5281 5.35004L47.1721 5.27218C47.5169 5.17208 47.0943 4.94962 47.25 4.83839C46.9274 4.7939 47.3501 4.66043 47.0275 4.63818L47.0831 4.56032C46.9385 4.44909 46.983 4.44909 47.0943 4.32674C47.1388 4.12653 46.9385 4.28225 46.9497 4.17102C47.2834 4.34899 47.4613 4.6493 47.6949 4.99411Z" fill="white"/>
<path fill-rule="evenodd" clip-rule="evenodd" d="M51.3545 4.5492C51.132 4.60481 51.132 4.47134 51.0764 4.32674C51.1876 4.31561 51.2544 4.47134 51.3545 4.5492Z" fill="black"/>
<path fill-rule="evenodd" clip-rule="evenodd" d="M47.0941 4.39322L47.1831 4.37097L47.261 4.59343L47.1831 4.6268L47.0941 4.39322Z" fill="black"/>
<path fill-rule="evenodd" clip-rule="evenodd" d="M46.4378 4.69396L46.5157 4.77183L46.6714 4.62723C46.4934 4.80519 46.3488 5.10551 46.5157 5.35021L46.7381 5.72839C46.5379 5.45032 46.1152 5.27235 46.1597 4.9053L46.1041 4.84969L46.5379 4.41589L46.5824 4.47151C46.5379 4.54937 46.4156 4.59386 46.4378 4.69396Z" fill="white"/>
<path fill-rule="evenodd" clip-rule="evenodd" d="M50.476 4.54895C50.3981 4.59344 50.4204 4.69355 50.4204 4.77141L50.476 4.82702L50.6206 4.62681L50.6985 4.82702C50.7207 4.77141 50.654 4.72692 50.6206 4.68242L50.476 4.82702C50.476 5.02724 50.4983 4.77141 50.4204 4.77141L50.3425 4.82702C50.2202 5.12734 50.565 4.64906 50.3425 4.54895L50.4204 4.62681L50.476 4.54895Z" fill="black"/>
<path fill-rule="evenodd" clip-rule="evenodd" d="M53.3232 4.62681C53.3677 4.74916 53.2676 4.82702 53.1786 4.90488C53.401 5.08285 53.0562 5.00499 53.1007 5.2052C53.0562 5.0606 53.0451 4.74916 53.2564 4.62681L53.2008 4.6713L53.123 4.59344L53.1786 4.54895C53.2231 4.59344 53.2676 4.64906 53.3232 4.62681Z" fill="black"/>
<path fill-rule="evenodd" clip-rule="evenodd" d="M48.8738 4.99434L48.9406 5.0722L48.796 5.2168C49.0296 5.25017 48.8961 5.45038 48.9406 5.57273C48.6403 5.55048 48.9851 5.29466 48.6403 5.27241L48.796 5.12782C48.6403 5.02771 48.4512 5.00546 48.3622 4.8275C48.5624 4.64953 48.9851 4.72739 49.0852 4.77188L48.8738 4.99434Z" fill="white"/>
<path fill-rule="evenodd" clip-rule="evenodd" d="M49.5964 4.69354C49.6187 4.91599 49.5742 5.12733 49.4518 5.27193C49.2294 5.31642 49.374 5.04947 49.2294 4.99385C49.3184 4.84926 49.3295 4.59343 49.5964 4.69354Z" fill="white"/>
<path fill-rule="evenodd" clip-rule="evenodd" d="M50.9872 5.27234H51.0762V5.57266H50.9872V5.27234Z" fill="black"/>
<path fill-rule="evenodd" clip-rule="evenodd" d="M53.19 5.57233L52.8897 5.92826L52.7451 5.78367L53.1011 5.42773C53.0899 5.48335 53.1455 5.52784 53.19 5.57233Z" fill="black"/>
<path fill-rule="evenodd" clip-rule="evenodd" d="M51.655 5.65063H51.7107V6.16229H51.655V5.65063Z" fill="black"/>
<path fill-rule="evenodd" clip-rule="evenodd" d="M47.8392 6.1621C47.8392 5.88403 48.1173 6.10648 48.2174 5.9174C48.0172 6.13985 47.5834 6.45129 47.3164 6.21771C47.272 6.07312 47.0717 5.96189 47.3164 5.86178L47.272 5.90627L47.1941 5.85066L47.2497 5.79504C47.3164 6.08424 47.639 6.06199 47.8392 6.1621Z" fill="white"/>
<path fill-rule="evenodd" clip-rule="evenodd" d="M49.8972 6.22836L49.9751 6.30622H49.8972V5.78345H49.9751V6.45082L49.8972 6.22836Z" fill="black"/>
<path fill-rule="evenodd" clip-rule="evenodd" d="M48.3518 6.58469C48.4519 6.46234 48.6299 6.56244 48.7077 6.36223L48.8635 6.74041L48.9413 6.66255V7.01848C48.819 6.91837 48.8968 6.74041 48.7189 6.66255H48.7967V7.09634H48.7189C48.7411 7.04073 48.6744 6.99623 48.641 6.95174C48.5186 7.05185 48.5965 7.25206 48.5854 7.38554C48.641 7.18532 48.4853 7.08522 48.4297 6.95174C48.3073 6.99623 48.3852 7.15196 48.3741 7.25206L48.2739 7.10746C48.1738 7.16308 48.2183 7.25206 48.2183 7.32992L48.1405 7.27431V7.8527C48.1182 7.59687 48.096 7.35217 47.8402 7.19645C47.6844 7.37441 47.9848 7.55238 47.9848 7.77484C48.0404 8.0974 47.9291 7.61912 47.8402 7.55238L47.6956 7.40778C47.4731 7.53013 47.7957 7.63024 47.7734 7.76371C47.5287 7.71922 47.1394 7.91943 47.0949 7.54126C47.0393 7.34104 47.2951 7.26318 47.3952 7.10746C47.6733 7.16308 47.8513 7.00736 48.0515 6.88501C47.7067 7.08522 46.9503 6.42897 46.8725 7.18532C46.4943 6.90725 46.5277 5.87282 45.7157 6.17314L45.8603 5.87282C46.917 5.72823 47.2173 7.58575 48.3518 6.58469Z" fill="white"/>
<path fill-rule="evenodd" clip-rule="evenodd" d="M50.1752 5.86183L50.253 5.85071L50.3309 6.22889H50.253L50.1752 5.86183Z" fill="black"/>
<path fill-rule="evenodd" clip-rule="evenodd" d="M50.4089 5.92847H50.4757V6.22878H50.4089V5.92847Z" fill="black"/>
<path fill-rule="evenodd" clip-rule="evenodd" d="M49.6751 6.30703C49.5194 6.00671 49.5194 6.45163 49.5973 6.00671L49.6751 6.30703Z" fill="black"/>
<path fill-rule="evenodd" clip-rule="evenodd" d="M52.9668 6.88493C53.1893 6.90717 53.2115 7.14075 53.1893 7.31872C53.0336 7.44107 52.8667 7.67465 52.8111 7.91935C53.0558 7.57454 52.8333 7.2631 52.889 6.96279L52.7444 7.10738C52.7221 6.82931 53.0892 6.60685 52.9668 6.37327L52.7444 6.59573L52.6665 6.54012L53.1003 6.10632C53.1225 6.32878 53.0447 6.70696 52.9668 6.88493Z" fill="black"/>
<path fill-rule="evenodd" clip-rule="evenodd" d="M45.2036 7.02972C45.4038 6.95185 45.4038 6.65154 45.4817 6.45133C45.4261 6.67378 45.2592 6.95185 45.4261 7.18544C45.5262 7.02971 45.5262 6.8295 45.6485 6.66266C45.604 6.81838 45.4261 7.01859 45.5929 7.18544C45.7931 7.20768 45.6485 6.94073 45.7931 6.88512C45.7153 7.00747 45.7375 7.16319 45.7375 7.31891L45.7931 7.39677C45.8487 7.25217 46.0156 7.15207 45.9488 6.96298C45.9711 7.08533 45.8932 7.24105 46.0045 7.31891L46.0823 7.2633C46.1046 7.06308 46.2603 7.71933 46.3048 7.18544C46.3048 7.2633 46.2825 7.3634 46.3826 7.40789L46.4382 7.33003C46.4605 7.20768 46.3826 7.57474 46.5161 7.63035C46.6607 7.57474 46.5606 7.43014 46.5717 7.33003L46.7274 7.47463C46.505 7.77495 45.9933 7.85281 45.6263 7.69709C45.3037 7.45238 44.9255 6.99635 45.1925 6.54031L45.4149 6.23999C45.2481 6.45133 45.1591 6.80726 45.2036 7.02972Z" fill="white"/>
<path fill-rule="evenodd" clip-rule="evenodd" d="M47.9176 6.36211L48.2179 6.22864V6.3065L47.9176 6.36211Z" fill="white"/>
<path fill-rule="evenodd" clip-rule="evenodd" d="M47.7724 6.4516C47.6278 6.55171 47.4721 6.52946 47.3164 6.52946L47.1718 6.30701C47.2607 6.46273 47.5611 6.60732 47.7724 6.4516Z" fill="white"/>
<path fill-rule="evenodd" clip-rule="evenodd" d="M51.51 6.36279H51.5656V6.58525H51.51V6.36279Z" fill="white"/>
<path fill-rule="evenodd" clip-rule="evenodd" d="M46.4384 6.88499C46.316 7.00734 45.9823 6.90724 45.86 6.66253V6.4512C46.2382 6.32885 46.3605 6.64029 46.4384 6.88499Z" fill="white"/>
<path fill-rule="evenodd" clip-rule="evenodd" d="M50.6874 6.45154H50.7764V6.82972H50.6874V6.45154Z" fill="white"/>
<path fill-rule="evenodd" clip-rule="evenodd" d="M49.4516 7.46318C49.4071 7.51879 49.3515 7.54104 49.3737 7.6189H49.4516V7.91921H49.3737L49.3181 7.97483C49.2736 7.94146 48.94 7.58553 48.6396 7.6189C48.8399 7.46318 49.0734 7.39644 49.2403 7.1851L49.1624 6.96265L49.4516 7.46318Z" fill="white"/>
<path fill-rule="evenodd" clip-rule="evenodd" d="M49.374 7.46332C49.3184 7.44108 49.2739 7.50781 49.2294 7.54118C49.2294 7.68578 49.374 7.41883 49.2294 7.31873L49.374 7.46332Z" fill="#00A7E2"/>
<path fill-rule="evenodd" clip-rule="evenodd" d="M50.4091 7.61937C50.5092 7.59713 50.4091 7.41916 50.5537 7.46365H50.854C50.6983 7.56376 50.6093 7.81959 50.4202 7.76397L50.3423 7.46365C50.309 7.54151 50.3757 7.58601 50.4091 7.61937Z" fill="white"/>
<path fill-rule="evenodd" clip-rule="evenodd" d="M50.9091 7.8416C50.9314 7.78599 50.8869 7.74149 50.8535 7.68588L50.9091 7.76374L50.987 7.61914L50.9091 7.8416Z" fill="white"/>
<path fill-rule="evenodd" clip-rule="evenodd" d="M49.3189 8.49769L49.1632 8.85363C49.4079 8.73127 49.6192 9.17619 49.7416 8.70903L49.8194 8.78689L50.1754 8.3531C50.5758 8.49769 50.231 8.78689 50.1197 9.00935C49.9751 8.9871 49.9195 9.15394 49.8194 9.2318L49.8973 9.15394C49.8528 9.10945 49.8194 9.05384 49.7416 9.07608L49.597 9.2318C49.6748 9.35415 49.8194 9.38752 49.9751 9.3764L50.3311 9.07608L50.2532 9.02047C50.3533 8.87587 50.4089 9.06496 50.5535 8.94261L50.4089 9.16507L50.3311 9.08721C50.0975 9.19843 50.2755 9.34303 50.2532 9.45426C50.5535 9.49875 50.1531 9.63223 50.4757 9.65447C50.3978 9.65447 50.32 9.67672 50.2532 9.59886C50.2532 9.97704 49.875 9.45426 49.8973 9.82132H49.7416C49.8417 9.39865 50.1197 9.89918 50.3422 9.521C50.1197 9.24293 49.8639 9.521 49.6859 9.29854C49.5636 9.47651 49.7304 9.19843 49.5302 9.15394L49.4746 9.2318L49.1743 9.00935L49.2522 8.93149H48.8184C48.4958 9.15394 49.0408 8.87587 49.0964 8.70903C49.2188 8.3531 48.9185 8.10839 48.8184 7.90818V8.05278C48.7739 8.00829 48.7405 7.95267 48.6626 7.97492V8.11952L48.607 8.0639C48.5069 8.14176 48.4847 8.26411 48.4513 8.36422C48.4291 8.40871 48.3734 8.41983 48.3957 8.50882L48.2511 8.43096C48.2733 8.3086 48.5069 8.18625 48.3067 8.07502C48.2733 7.64123 49.4301 7.84144 49.3189 8.49769Z" fill="white"/>
<path fill-rule="evenodd" clip-rule="evenodd" d="M56.1146 8.0642C56.1146 8.44237 56.1591 7.90848 55.9589 7.91961L56.1146 8.0642Z" fill="#00A7E2"/>
<path fill-rule="evenodd" clip-rule="evenodd" d="M55.8251 8.8651C55.8696 8.82061 55.9252 8.80949 55.903 8.7205L55.8363 8.77612L55.7806 8.69826L55.8251 8.65377C55.8696 8.67601 55.9252 8.70938 55.903 8.79836L55.8251 8.8651L55.7806 8.92072L55.4025 8.54254L55.4581 8.49805L55.8251 8.8651Z" fill="black"/>
<path fill-rule="evenodd" clip-rule="evenodd" d="M43.4462 9.52139C43.5018 9.0876 43.88 8.92075 44.1803 8.56482L43.4462 9.52139Z" fill="black"/>
<path fill-rule="evenodd" clip-rule="evenodd" d="M50.1091 8.56482L50.1535 8.62043L49.653 9.19883L49.5974 9.16546L50.1091 8.56482Z" fill="black"/>
<path fill-rule="evenodd" clip-rule="evenodd" d="M49.8972 9.07647L50.331 8.56482L50.1753 8.7984L49.8972 9.07647Z" fill="black"/>
<path fill-rule="evenodd" clip-rule="evenodd" d="M53.7677 9.07638V9.15424L53.2672 9.00964C53.4007 9.06526 53.6231 9.24322 53.7677 9.07638Z" fill="black"/>
<path fill-rule="evenodd" clip-rule="evenodd" d="M49.3738 9.45435V9.75466L48.8733 9.07617C49.0735 9.09842 49.2181 9.29863 49.3738 9.45435Z" fill="white"/>
<path fill-rule="evenodd" clip-rule="evenodd" d="M50.776 9.75494V9.52136L50.9206 9.66595C51.1208 9.52136 50.8761 9.38788 50.865 9.24329C50.9095 9.34339 51.2098 9.46574 51.1431 9.66595C51.0207 9.66595 50.9651 9.82167 50.865 9.91066C50.9095 9.95515 50.9428 9.98852 51.0096 9.96627L51.1542 9.82167H51.232V10.122H51.1542V10.3444C51.1319 10.1999 50.8983 9.96627 50.8761 10.0441C50.7204 9.78831 50.5535 9.46574 50.5758 9.24329C50.509 9.2989 50.5869 9.62146 50.776 9.75494Z" fill="white"/>
<path fill-rule="evenodd" clip-rule="evenodd" d="M55.3028 10.0328C55.1026 10.3887 54.9024 9.65462 54.6465 9.8882C54.7244 10.0662 54.5687 9.51002 54.3685 9.81034C54.2684 9.75472 54.2127 9.58788 54.0681 9.58788L54.0125 9.64349C53.8902 9.58788 53.8346 9.42104 53.7122 9.44328L53.6344 9.4989C53.6121 9.24307 53.334 9.34318 53.2006 9.22083L55.3028 10.0328Z" fill="black"/>
<path fill-rule="evenodd" clip-rule="evenodd" d="M54.5016 9.45451C54.6462 9.41002 54.1568 9.45451 54.2791 9.23206L54.5016 9.45451Z" fill="black"/>
<path fill-rule="evenodd" clip-rule="evenodd" d="M55.7369 9.75473L55.8147 9.65462L55.7702 9.71023L55.6924 9.63237L55.7369 9.58788L55.8147 9.6435C55.6368 9.7436 55.2141 9.6435 54.936 9.58788L55.2364 9.51002L55.0139 9.28756C55.1919 9.38767 55.1696 9.62125 55.3698 9.6435C55.5478 9.4989 55.3476 9.32093 55.2252 9.22083C55.4254 9.39879 55.4254 9.75473 55.7369 9.75473Z" fill="black"/>
<path fill-rule="evenodd" clip-rule="evenodd" d="M47.617 9.29883L47.6615 9.35444L47.439 9.52128L47.3945 9.45455L47.617 9.29883Z" fill="white"/>
<path fill-rule="evenodd" clip-rule="evenodd" d="M56.2043 9.65476C56.1265 9.63251 56.082 9.69925 56.0486 9.75487L55.7483 9.29883C55.9596 9.39893 55.904 9.74374 56.2043 9.65476Z" fill="black"/>
<path fill-rule="evenodd" clip-rule="evenodd" d="M52.5226 10.2552C52.4781 10.4109 52.4781 10.1328 52.378 10.0327C52.2779 10.0772 52.3001 10.1773 52.3001 10.2552C52.1444 9.9771 52.0554 9.8325 51.7773 9.59892C51.9998 9.52106 52.2556 9.75464 52.4336 9.37646L52.5226 10.2552Z" fill="white"/>
<path fill-rule="evenodd" clip-rule="evenodd" d="M47.8395 9.89932C47.9173 9.77697 48.0619 9.79922 48.1398 9.65462L48.0842 9.71023L48.0063 9.63237L48.0619 9.58788L48.1398 9.6435L48.2844 9.4989C48.3734 9.72136 47.973 9.72136 47.8395 9.89932Z" fill="black"/>
<path fill-rule="evenodd" clip-rule="evenodd" d="M47.6947 9.75509L47.7726 9.65498L47.4834 9.89968L47.4055 9.82182L47.628 9.59937C47.5946 9.65498 47.6613 9.69947 47.6947 9.75509Z" fill="white"/>
<path fill-rule="evenodd" clip-rule="evenodd" d="M44.38 9.75439L44.469 9.77664L44.1019 10.3773L44.024 10.3328L44.38 9.75439Z" fill="white"/>
<path fill-rule="evenodd" clip-rule="evenodd" d="M53.7684 9.75447L53.824 9.69885L54.1244 9.97692L54.0687 10.0325L53.7684 9.75447Z" fill="black"/>
<path fill-rule="evenodd" clip-rule="evenodd" d="M46.4382 10.1772L46.5161 10.2551L46.7385 10.0326C46.1601 10.6333 46.0378 11.4341 45.9377 12.235L45.8598 12.1571C45.7375 12.5575 45.8598 13.1915 45.426 13.3361C46.0267 12.5575 45.6707 10.7667 46.6829 9.82129C46.5161 9.92139 46.5161 10.0549 46.4382 10.1772Z" fill="black"/>
<path fill-rule="evenodd" clip-rule="evenodd" d="M50.2534 10.7L50.3313 10.7556L50.1755 10.9113C50.3201 10.4108 49.5415 10.7111 49.675 10.1772C49.5971 10.155 49.5749 10.2217 49.5193 10.2551H49.5971V10.3997H49.5193C49.4192 10.2773 49.6639 10.1439 49.5971 9.96589C49.9197 10.0215 50.131 9.88803 50.4202 9.82129C50.487 10.155 50.576 10.4219 50.2534 10.7Z" fill="white"/>
<path fill-rule="evenodd" clip-rule="evenodd" d="M56.4824 10.1217V9.9549L56.5603 10.0328L56.7049 9.8103C56.6938 9.9549 56.5603 10.0216 56.4824 10.1217Z" fill="black"/>
<path fill-rule="evenodd" clip-rule="evenodd" d="M41.3884 9.95496H41.4663L41.533 10.322L41.4663 10.3331L41.3884 9.95496Z" fill="white"/>
<path fill-rule="evenodd" clip-rule="evenodd" d="M55.826 10.1219C55.7704 10.1442 55.7259 10.0774 55.6814 10.0441C55.6369 10.0886 55.5813 10.1219 55.6036 10.1887C55.8038 10.2888 55.6036 10.2888 55.7482 10.4111L55.4701 10.0552L55.826 10.1219Z" fill="black"/>
<path fill-rule="evenodd" clip-rule="evenodd" d="M56.1146 10.4779C55.9922 10.7003 56.1702 10.2554 55.9589 10.2554C56.0034 10.2999 56.059 10.3555 56.1146 10.3333C56.2703 10.2554 56.1146 10.1108 56.0367 10.033L56.337 10.3889L56.1146 10.4779Z" fill="black"/>
<path fill-rule="evenodd" clip-rule="evenodd" d="M59.1961 10.1775L59.274 10.1219L59.4186 10.3444C59.363 10.1998 59.2184 10.2888 59.1183 10.2665H59.0404V10.0441H59.1183C59.096 10.0997 59.1516 10.1331 59.1961 10.1775Z" fill="black"/>
<path fill-rule="evenodd" clip-rule="evenodd" d="M42.7899 10.4001C42.7343 10.6559 42.4673 10.9229 42.5674 11.1342L42.7899 10.8562C42.7899 10.934 42.7677 11.0119 42.8455 11.0564L43.0012 10.756L42.5674 11.7126L42.4896 11.657L42.0558 12.1575C42.3561 11.9351 42.3339 11.5013 42.2782 11.2232C42.5007 11.1231 42.4785 10.8228 42.5786 10.6226L42.4896 10.5558L42.2671 10.9118L42.4896 10.3334C42.5897 10.478 42.6453 10.2778 42.7899 10.4001Z" fill="black"/>
<path fill-rule="evenodd" clip-rule="evenodd" d="M53.7008 10.3332L53.7453 10.2776L54.1235 10.7114L54.0679 10.7559L53.7008 10.3332Z" fill="black"/>
<path fill-rule="evenodd" clip-rule="evenodd" d="M50.5529 12.4575C50.3081 12.1572 50.6974 11.8569 50.5529 11.5788L50.4083 11.8012C50.3526 12.1016 50.4861 11.601 50.5529 11.5009L50.475 11.2229C50.4527 11.2785 50.5195 11.323 50.5529 11.3675C50.7086 10.9448 50.6085 10.8447 50.9088 10.4109C50.9755 11.0115 50.475 11.7568 50.5529 12.4575Z" fill="white"/>
<path fill-rule="evenodd" clip-rule="evenodd" d="M41.4658 10.6225L41.2433 10.7003L41.2989 10.6225L40.943 10.5668C41.0542 10.5224 41.2878 10.6002 41.4658 10.6225Z" fill="white"/>
<path fill-rule="evenodd" clip-rule="evenodd" d="M51.7108 10.9119V10.4781L51.9444 10.7006L51.7108 10.9119Z" fill="white"/>
<path fill-rule="evenodd" clip-rule="evenodd" d="M54.3688 10.9119L54.1464 10.4781C54.1464 10.6561 54.4467 10.7006 54.3688 10.9119Z" fill="black"/>
<path fill-rule="evenodd" clip-rule="evenodd" d="M50.8542 10.7001L50.9099 10.7112L50.7541 11.0115L50.6874 11.0004L50.8542 10.7001Z" fill="#00A7E2"/>
<path fill-rule="evenodd" clip-rule="evenodd" d="M50.6088 13.3362C50.7089 12.4019 50.8646 11.4787 51.3429 10.7001C51.0314 11.6344 51.1316 12.4686 50.6088 13.3362Z" fill="white"/>
<path fill-rule="evenodd" clip-rule="evenodd" d="M48.6404 10.7557L48.7182 10.778L48.6404 11.3008L48.5736 11.2785L48.6404 10.7557Z" fill="black"/>
<path fill-rule="evenodd" clip-rule="evenodd" d="M57.7386 11.0561C57.8388 10.7557 58.039 11.0338 58.1725 10.7557C57.9722 10.9782 57.9722 11.0338 57.7386 11.0561Z" fill="black"/>
<path fill-rule="evenodd" clip-rule="evenodd" d="M54.58 10.8555L54.6467 10.811L54.7802 11.1781L54.7246 11.2115L54.58 10.8555Z" fill="black"/>
<path fill-rule="evenodd" clip-rule="evenodd" d="M46.0817 12.2355C46.1595 11.7794 46.2263 11.3345 46.382 10.923C46.3597 11.3011 46.1373 11.7794 46.0817 12.2355Z" fill="black"/>
<path fill-rule="evenodd" clip-rule="evenodd" d="M42.4895 11.4899L42.7898 11.0562L42.6452 11.3565L42.4895 11.4899Z" fill="white"/>
<path fill-rule="evenodd" clip-rule="evenodd" d="M49.0179 11.7124H48.8733V11.2786C48.9956 11.3009 49.2515 11.2564 49.1514 11.0562C49.1291 11.3009 48.94 11.4566 49.0179 11.7124Z" fill="white"/>
<path fill-rule="evenodd" clip-rule="evenodd" d="M54.9467 11.3562C54.969 11.2338 54.8911 11.6009 55.0246 11.6565C55.1803 11.6787 54.8689 11.6009 54.8689 11.7121C54.7465 11.5675 54.4907 11.3673 54.3683 11.6565L54.3127 11.701L54.2349 11.6454L54.2905 11.5897L54.3683 11.6676L54.5018 11.4896L54.4462 11.5453L54.3016 11.4007L54.3572 11.345L54.4128 11.4229L54.4907 11.2004C54.6464 11.4785 54.8021 11.3005 54.9467 11.3562Z" fill="black"/>
<path fill-rule="evenodd" clip-rule="evenodd" d="M48.4186 11.6569C48.5187 11.6013 48.4964 11.5123 48.4964 11.4345C48.4408 11.8571 48.096 12.2687 47.7734 12.4467V12.3021L47.8291 12.3577C47.9848 12.2576 48.0515 12.1019 48.0515 11.935L48.1294 11.9906C48.3073 11.8349 48.3741 11.6347 48.3518 11.4122C48.3518 11.5123 48.3407 11.5902 48.4186 11.6569Z" fill="black"/>
<path fill-rule="evenodd" clip-rule="evenodd" d="M52.2329 11.7122L52.6111 11.4897V11.6566L52.2329 11.7122Z" fill="white"/>
<path fill-rule="evenodd" clip-rule="evenodd" d="M41.555 11.657L41.6106 11.6904L41.3882 12.0574L41.3103 12.0129L41.555 11.657Z" fill="black"/>
<path fill-rule="evenodd" clip-rule="evenodd" d="M42.1333 11.657C41.9553 12.113 41.4993 12.5579 41.6105 13.0585L41.566 13.0029L41.6217 12.925L41.6773 12.9806L41.5327 13.1252C41.3102 13.0251 41.9109 12.024 41.5883 11.8683C41.6661 11.479 41.9331 11.8572 42.1333 11.657Z" fill="black"/>
<path fill-rule="evenodd" clip-rule="evenodd" d="M46.5158 12.1568C46.538 12.1012 46.4713 12.0567 46.4379 12.0122C46.5158 12.3682 46.2822 12.8909 46.3823 13.2469C46.4268 13.1023 46.5825 13.0022 46.5269 12.8131L46.6826 12.8909C46.627 13.0355 46.4824 13.1468 46.3823 13.2469C46.1598 13.0467 46.4824 12.2681 46.3823 11.7119C46.6381 11.5562 46.4601 12.0122 46.5158 12.1568Z" fill="black"/>
<path fill-rule="evenodd" clip-rule="evenodd" d="M55.3812 11.9572L55.5369 12.1018C55.5814 12.0573 55.6148 12.0239 55.5925 11.9572L55.548 12.0017L55.4702 11.9238L55.5258 11.8682C55.6704 12.124 55.7705 12.0128 55.9484 11.9683L55.8928 11.8682C56.0708 12.0461 56.3266 12.0461 56.3934 12.1685L56.3377 12.2352C56.1931 11.9794 55.9818 12.1574 55.815 12.1574L55.8706 12.1129L56.0152 12.2575L55.9596 12.3131C55.637 11.8571 55.2032 12.5912 54.8584 11.9572C54.9585 12.0795 55.0364 11.9127 55.1587 12.0128V11.8571L55.3033 12.0128L55.3812 11.9572Z" fill="black"/>
<path fill-rule="evenodd" clip-rule="evenodd" d="M47.3944 12.5913L47.539 12.4467L47.1052 13.1029L47.4834 11.9462C47.4389 12.1575 47.1942 12.3688 47.3944 12.5913Z" fill="black"/>
<path fill-rule="evenodd" clip-rule="evenodd" d="M47.2615 12.0128L47.3171 12.0351L47.2615 12.3131H47.1836L47.2615 12.0128Z" fill="black"/>
<path fill-rule="evenodd" clip-rule="evenodd" d="M56.9938 12.2353C57.1717 12.3799 56.8158 12.113 56.7713 12.3132H56.6267V12.1575L56.9938 12.2353Z" fill="black"/>
<path fill-rule="evenodd" clip-rule="evenodd" d="M50.1085 12.5909C50.064 12.235 49.7859 12.5464 49.6747 12.4463C49.5969 12.691 49.4189 12.4686 49.2409 12.5909L49.0852 12.4463C49.4856 12.6688 49.5857 12.2016 50.0418 12.3685L50.1085 12.235V12.5909Z" fill="white"/>
<path fill-rule="evenodd" clip-rule="evenodd" d="M41.9882 12.5914L41.9326 12.5469L42.0772 12.4024L42.1328 12.4468L41.7546 12.8028L41.9993 12.3022C41.9882 12.4135 41.8103 12.5358 41.9882 12.5914Z" fill="black"/>
<path fill-rule="evenodd" clip-rule="evenodd" d="M51.6548 12.8914C51.4991 12.8136 51.2989 13.1473 51.0764 12.8136L51.132 12.4576C51.3545 12.5355 51.4657 12.758 51.6548 12.8914Z" fill="white"/>
<path fill-rule="evenodd" clip-rule="evenodd" d="M60.8089 13.492C60.5642 13.2473 60.3751 12.8358 60.5864 12.5911C60.7644 12.769 60.8533 13.1472 60.8089 13.492Z" fill="white"/>
<path fill-rule="evenodd" clip-rule="evenodd" d="M54.58 14.2042C54.3575 14.1819 54.5021 14.4489 54.3575 14.5045C54.402 14.9272 54.6578 15.2608 54.9359 15.6056L55.0916 15.3832C55.0471 15.4388 55.1139 15.4833 55.1473 15.5278L55.2251 15.4499V15.6056C55.1806 15.5278 55.0805 15.55 55.0027 15.5278C54.9248 15.8059 55.125 16.1618 55.3586 16.4065H55.4365C55.3141 16.907 54.8024 16.7068 54.4799 16.8403H54.3353C54.2908 16.7402 54.3909 16.5956 54.2574 16.54C53.1785 15.906 54.5355 14.6602 53.679 13.8482C53.5011 13.8705 53.2786 13.7926 53.1563 13.9038C53.2786 14.0818 53.5344 13.9038 53.679 14.0596V15.2386C53.401 15.2163 53.2452 14.8827 52.9449 14.9383C52.9449 14.8604 53.5233 15.0829 53.7458 14.9383C53.5011 14.7158 53.1674 14.7381 52.8671 14.638C53.1451 14.638 53.5011 14.638 53.6902 14.638C53.3454 14.282 52.8115 14.46 52.4333 14.2042C52.678 14.2042 53.2341 14.3599 53.6123 14.2042C52.9561 14.004 52.1997 14.0262 51.6992 13.4033L51.777 13.3255L51.5546 13.1809C52.1886 13.1364 52.767 13.0029 53.312 12.7471C53.8459 13.1364 54.0795 13.7481 54.58 14.2042Z" fill="white"/>
<path fill-rule="evenodd" clip-rule="evenodd" d="M46.0824 12.8135L46.1603 12.8468L45.9267 13.4364L45.86 13.4141L46.0824 12.8135Z" fill="black"/>
<path fill-rule="evenodd" clip-rule="evenodd" d="M48.3509 13.1919L48.4955 13.3365C48.6734 13.3365 48.4176 13.3587 48.4176 13.2586C48.2396 13.4588 48.6178 13.6034 48.4955 13.8593C48.5177 13.7814 48.451 13.7592 48.4176 13.7035C48.1729 13.8259 48.3731 13.926 48.4176 14.0817L48.3731 14.0261L48.451 13.9705L48.4955 14.015L48.5511 14.0706L48.3954 14.2152L48.3509 14.1707L48.4065 14.0928C48.362 14.0484 48.3509 13.9927 48.2619 14.015C48.0172 14.1373 48.2174 14.2374 48.2619 14.3709C48.3064 14.3264 48.3397 14.2931 48.4065 14.3153C48.4287 14.5378 48.1618 14.6712 48.3509 14.8937C48.2508 14.8714 48.2063 14.9938 48.1284 15.0494C48.1507 15.1718 48.0728 15.3275 48.2063 15.4053L48.7847 14.7491C49.1851 14.9716 49.2185 15.4721 49.4409 15.8503C48.6623 15.5277 47.9616 15.5166 47.2497 15.3275V15.2719C46.4155 15.2163 45.1697 15.0717 44.38 15.3275C44.9361 14.6267 45.9372 14.9493 46.5156 14.3042C46.9939 14.2486 47.4388 14.104 47.7725 13.6479C47.7502 13.8926 47.9171 13.6257 47.9727 13.7925C48.1173 13.7147 48.0283 13.5478 48.0506 13.4366L48.1284 13.9371C48.1507 13.8815 48.0839 13.837 48.0506 13.7925C47.8059 13.9149 48.0061 14.0372 48.0506 14.1707C48.3731 14.1262 48.2508 13.7925 48.273 13.5701C48.2508 13.6479 48.3175 13.6702 48.3509 13.7147C48.4065 13.4588 48.1507 13.0807 48.5733 12.9138C48.5177 12.9472 48.4176 13.0918 48.3509 13.1919Z" fill="white"/>
<path fill-rule="evenodd" clip-rule="evenodd" d="M46.9603 12.9695L47.0159 12.9917L46.8824 13.3477L46.8157 13.3365L46.9603 12.9695Z" fill="black"/>
<path fill-rule="evenodd" clip-rule="evenodd" d="M50.031 13.1914C49.853 13.514 49.7863 13.9478 49.8085 14.2926L49.9642 14.5151C49.8197 14.6597 49.2635 14.5929 49.0077 14.4372C49.4637 14.1925 49.8641 13.5585 49.9642 13.1247L50.0087 13.0802L50.1533 13.2248L50.1088 13.2693L50.031 13.1914Z" fill="white"/>
<path fill-rule="evenodd" clip-rule="evenodd" d="M51.1321 13.1138C51.388 13.6143 50.8096 14.3484 51.21 14.5931V14.7377L50.3313 14.5931C50.5538 14.0926 50.9319 13.6699 50.9875 13.1138H51.1321Z" fill="white"/>
<path fill-rule="evenodd" clip-rule="evenodd" d="M48.9407 13.3364C48.9852 13.2919 49.0408 13.2585 49.0186 13.1918H49.0742C48.9185 13.2363 48.8963 13.57 49.0186 13.6923L49.1632 13.7702C49.0631 13.8147 49.0853 13.9148 49.0853 13.9926C49.1076 13.9148 49.0631 13.8925 49.0297 13.848L48.8851 14.204C48.8295 14.0594 49.0075 13.6256 48.7294 13.481C48.5848 13.5255 48.6738 13.6589 48.6516 13.7591L48.5959 13.481L48.6516 13.5366C48.6961 13.4921 48.7517 13.4587 48.7294 13.392L48.8851 13.6145H48.8073V13.1807H48.8851C48.8406 13.2474 48.8963 13.2919 48.9407 13.3364Z" fill="white"/>
<path fill-rule="evenodd" clip-rule="evenodd" d="M50.3313 13.4142C50.0755 13.57 50.1534 13.8925 50.031 14.1483C50.0755 13.8925 50.0866 13.6145 50.3313 13.3253L50.2535 13.1807L50.3313 13.4142Z" fill="white"/>
<path fill-rule="evenodd" clip-rule="evenodd" d="M58.5403 13.2477L58.5959 13.2144L58.7294 13.4479L58.6738 13.4924L58.5403 13.2477Z" fill="white"/>
<path fill-rule="evenodd" clip-rule="evenodd" d="M50.4089 13.6924L50.4757 13.4143V13.6256L50.4089 13.6924Z" fill="white"/>
<path fill-rule="evenodd" clip-rule="evenodd" d="M51.3547 13.4143H51.4326V13.9927H51.3547V13.4143Z" fill="white"/>
<path fill-rule="evenodd" clip-rule="evenodd" d="M51.7883 13.4144L51.8106 13.3365L52.5447 13.6257L52.5224 13.6925L51.7883 13.4144Z" fill="black"/>
<path fill-rule="evenodd" clip-rule="evenodd" d="M58.3173 13.4924L58.3729 13.4479L58.751 14.0263L58.6732 14.0708L58.3173 13.4924Z" fill="white"/>
<path fill-rule="evenodd" clip-rule="evenodd" d="M44.9806 13.626L45.0029 13.6927L44.4245 13.993L44.38 13.9152L44.9806 13.626Z" fill="black"/>
<path fill-rule="evenodd" clip-rule="evenodd" d="M55.025 13.9926L55.1029 13.9148L55.4588 14.4375C55.5033 14.7712 55.381 14.2818 55.3031 14.2151L55.2475 14.1595C55.203 14.204 55.1474 14.2151 55.1696 14.3041L54.8693 13.6478C54.8026 13.7924 54.9583 13.8703 55.025 13.9926Z" fill="white"/>
<path fill-rule="evenodd" clip-rule="evenodd" d="M46.0824 13.6921L46.1381 13.7255L45.9267 14.1148L45.86 14.0703L46.0824 13.6921Z" fill="white"/>
<path fill-rule="evenodd" clip-rule="evenodd" d="M47.9174 14.4267V14.5045H47.7728V14.4267H47.8284C47.9842 14.2709 47.8284 14.0707 47.7728 13.9039C47.7283 14.2042 47.5504 14.4044 47.3947 14.638L47.695 14.7159C47.6171 14.6936 47.5726 14.7604 47.5392 14.7715C47.5837 14.7937 47.339 14.549 47.1833 14.7715L47.1055 14.8493C47.0276 14.6714 47.7061 14.1931 47.7839 13.7482C47.7951 14.0151 47.973 14.1708 47.9174 14.4267Z" fill="black"/>
<path fill-rule="evenodd" clip-rule="evenodd" d="M52.6665 13.7703L52.6888 13.7147L53.0447 13.7703V13.8482L52.6665 13.7703Z" fill="black"/>
<path fill-rule="evenodd" clip-rule="evenodd" d="M42.4895 14.3488L42.7898 14.0707L42.8454 14.2042L42.4895 14.3488Z" fill="white"/>
<path fill-rule="evenodd" clip-rule="evenodd" d="M48.2175 14.6489H48.0618C48.1396 14.5488 48.2397 14.3708 48.1396 14.2929V14.2151C48.2397 14.3263 48.2175 14.5043 48.2175 14.6489Z" fill="black"/>
<path fill-rule="evenodd" clip-rule="evenodd" d="M45.0589 14.3483L45.1257 14.3928L44.9588 14.7487L44.9032 14.7264L45.0589 14.3483Z" fill="white"/>
<path fill-rule="evenodd" clip-rule="evenodd" d="M48.5736 14.3483H48.6404V14.593H48.5736V14.3483Z" fill="white"/>
<path fill-rule="evenodd" clip-rule="evenodd" d="M52.0108 14.7934H51.7883L52.1665 14.6488C52.1888 14.7267 52.0886 14.8268 52.0108 14.7934Z" fill="white"/>
<path fill-rule="evenodd" clip-rule="evenodd" d="M55.7372 14.9491C55.8818 14.8935 55.7928 14.7489 55.8151 14.6488C56.1599 14.5042 56.0709 14.8935 56.1933 15.0269V15.2494C55.7928 15.2494 55.5704 14.9713 55.6705 14.6488C55.7038 14.7489 55.626 14.8935 55.7372 14.9491Z" fill="white"/>
<path fill-rule="evenodd" clip-rule="evenodd" d="M55.9589 14.7266L56.0367 14.7043L56.1146 14.9268L56.0367 14.949L55.9589 14.7266Z" fill="black"/>
<path fill-rule="evenodd" clip-rule="evenodd" d="M47.9176 15.0823C47.9621 15.0378 47.9955 15.0267 47.9732 14.9377L47.9176 14.8598C47.9732 15.0156 48.1178 14.8376 48.2179 14.782L47.9176 15.0823Z" fill="black"/>
<path fill-rule="evenodd" clip-rule="evenodd" d="M50.2533 15.027L51.7883 15.1716C51.0542 14.9492 50.3312 15.3162 49.6749 14.8713C49.8751 14.9047 50.1532 14.749 50.2533 15.027Z" fill="white"/>
<path fill-rule="evenodd" clip-rule="evenodd" d="M59.9302 15.1714V15.316L59.4965 15.3939H59.4186V15.2493H59.4965C59.452 15.3049 59.5187 15.3494 59.5521 15.3939C59.8079 15.1937 59.4297 15.0491 59.4075 14.8711C59.6077 14.8711 59.7523 14.9712 59.9302 15.1714Z" fill="white"/>
<path fill-rule="evenodd" clip-rule="evenodd" d="M50.331 15.3826C50.3755 15.327 49.9529 15.1824 49.8083 15.238L50.1642 16.0389C50.3088 15.9388 50.2198 15.7386 50.2421 15.6051L50.1642 15.5272L50.4089 16.05L50.5535 15.8943C50.6759 15.9721 50.3755 16.0723 50.1753 16.139H49.8194L49.3856 14.96L50.331 15.3826Z" fill="white"/>
<path fill-rule="evenodd" clip-rule="evenodd" d="M52.3113 15.3834V15.439H51.3547V15.3834C51.6551 15.3611 51.9887 15.439 52.2334 15.3055L52.1778 15.2499C51.8775 15.3723 52.5338 15.0052 52.1 14.9496H52.2446L52.3113 15.3834Z" fill="white"/>
<path fill-rule="evenodd" clip-rule="evenodd" d="M42.7898 15.7501C42.8342 15.5276 42.3671 15.6722 42.7119 15.2496L42.9343 15.0271C42.7453 15.1495 42.7898 15.4831 42.7898 15.7501Z" fill="white"/>
<path fill-rule="evenodd" clip-rule="evenodd" d="M56.4818 15.3826L56.5597 15.3047C56.4818 15.2269 56.7043 15.4605 56.6375 15.605C56.4596 15.4605 56.3595 15.3047 56.3928 15.0823C56.4373 15.1824 56.3372 15.327 56.4818 15.3826Z" fill="white"/>
<path fill-rule="evenodd" clip-rule="evenodd" d="M49.8977 15.9615L49.5974 15.2496L49.8977 15.6056V15.9615Z" fill="black"/>
<path fill-rule="evenodd" clip-rule="evenodd" d="M56.1147 15.75L55.959 15.4497C55.8366 15.5498 55.9145 15.75 55.9033 15.8835C55.8588 15.8056 55.9589 15.661 55.8255 15.6054C55.7699 15.5832 55.7254 15.6499 55.6809 15.6833C55.5808 15.6277 55.8032 15.2495 56.1147 15.383V15.75Z" fill="white"/>
<path fill-rule="evenodd" clip-rule="evenodd" d="M60.1309 15.6053L60.0085 15.7276L59.8639 15.583L59.9195 15.5274L60.0641 15.6831V15.3828C60.1531 15.4273 60.1309 15.5274 60.1309 15.6053Z" fill="white"/>
<path fill-rule="evenodd" clip-rule="evenodd" d="M45.426 15.8283C45.6707 15.6725 45.8598 15.4946 46.1601 15.4501L45.426 15.8283Z" fill="white"/>
<path fill-rule="evenodd" clip-rule="evenodd" d="M52.8893 15.4497L52.9449 15.4052L53.0896 15.5498L53.0451 15.6055L52.8893 15.4497Z" fill="white"/>
<path fill-rule="evenodd" clip-rule="evenodd" d="M56.4044 15.9617L56.2598 15.4501L56.4044 15.7504V15.9617Z" fill="white"/>
<path fill-rule="evenodd" clip-rule="evenodd" d="M47.3948 15.6835L47.4726 15.6056L47.6172 15.7502L47.7729 15.6056C47.9287 15.8503 48.2067 15.7836 48.5738 15.8837C48.5738 16.2174 48.7517 15.8058 48.8741 16.0394C48.1511 16.4732 48.0955 17.2184 48.051 17.9303C47.9509 18.0082 47.7507 17.9748 47.7729 18.1528C47.9287 18.3085 48.1289 18.0971 48.2735 17.9303L48.229 17.9859L48.1511 17.908L48.2067 17.8636L48.2623 17.9192L48.2178 17.8747L48.3624 17.7301L48.418 17.7968C48.3958 17.8413 48.3402 17.8747 48.3624 17.9414L48.507 18.086C48.5515 18.0082 48.6516 18.0304 48.7295 18.0304C48.5738 18.4308 48.2512 18.0749 47.9954 18.3863L48.2957 18.6088C47.9731 18.6533 47.8953 18.6867 47.7173 18.987L47.6395 18.8312L47.7173 18.9091L47.9398 18.6867C47.7173 18.5865 47.5394 18.5643 47.3391 18.5421L47.4949 18.3863C47.1167 18.3418 47.6172 18.2306 47.5505 18.086C47.6506 18.0638 47.8063 18.1416 47.8508 18.0304V17.8858C47.9954 17.9414 48.1289 17.8079 48.0732 17.6411C48.051 17.5632 48.1289 17.4186 47.9954 17.363C47.873 17.4409 47.9509 17.6077 47.9398 17.719C47.8953 17.2407 47.9843 16.7958 48.1622 16.4065L48.0844 16.3508C47.7618 16.7068 47.7841 17.2296 47.8063 17.7301C47.8508 17.452 47.6617 16.7735 47.9509 16.4176L47.8063 16.362C47.8842 16.2396 48.0621 16.1395 48.0844 15.9838L47.8619 15.7613C47.6617 15.9171 47.5394 16.1395 47.506 16.362C47.506 16.2841 47.5282 16.184 47.4281 16.1395L47.3503 16.1951C47.1946 16.3731 47.6951 15.7613 47.3503 15.6167L47.2947 15.6946L47.2168 15.5389C47.2835 15.5055 47.3169 15.6279 47.3948 15.6835Z" fill="white"/>
<path fill-rule="evenodd" clip-rule="evenodd" d="M55.3806 15.5276H55.4362L55.5363 15.8057L55.4585 15.8279L55.3806 15.5276Z" fill="white"/>
<path fill-rule="evenodd" clip-rule="evenodd" d="M46.8834 16.4842C46.761 16.2617 46.6832 15.928 46.8278 15.6833L46.8834 15.739L46.9612 15.5944C46.8611 15.8613 46.8834 16.1839 46.8834 16.4842Z" fill="white"/>
<path fill-rule="evenodd" clip-rule="evenodd" d="M51.6546 15.683C51.599 15.7608 51.3765 15.8053 51.2208 15.8276L51.1429 15.6051C51.3098 15.5829 51.4544 15.7275 51.6546 15.683Z" fill="white"/>
<path fill-rule="evenodd" clip-rule="evenodd" d="M52.7451 15.6051L52.7896 15.5494L53.0899 15.8498L53.0454 15.8831L52.7451 15.6051Z" fill="white"/>
<path fill-rule="evenodd" clip-rule="evenodd" d="M44.5468 15.6836L44.6024 15.7058L44.38 16.2286L44.3243 16.1841L44.5468 15.6836Z" fill="white"/>
<path fill-rule="evenodd" clip-rule="evenodd" d="M52.6664 16.5399L53.4005 17.0627C53.1558 17.5854 52.9445 18.0971 53.0446 18.7645C52.7443 18.7422 52.5663 17.9636 52.2215 18.4642C51.8767 18.542 51.7877 17.7412 51.1982 18.0304C51.2538 17.7745 50.6198 17.4965 50.8979 17.452C51.1203 17.6299 51.2761 18.2751 51.632 17.8079L51.9879 18.1638C52.2326 17.7412 51.3317 17.6411 51.9323 17.2295L52.2882 17.5854C52.3883 17.541 52.3661 17.4408 52.3661 17.363L52.0658 17.0627C52.2437 16.9848 52.3105 17.2184 52.4217 17.2851C52.5997 17.1405 52.3995 16.9626 52.2771 16.8513L52.4996 17.0738C52.6998 16.9292 52.4551 16.7957 52.4217 16.64C52.1436 16.6622 51.9879 16.9848 51.7655 17.1628L51.543 16.9403L51.6209 16.8625C51.7432 16.9181 51.6654 17.1183 51.8433 17.0849C51.9434 17.0071 51.8433 16.8291 51.7655 16.729L51.8433 16.6511L51.9879 16.8068C52.0435 16.4843 52.1659 16.8625 52.2882 16.5621L52.2104 16.5065H52.2882C52.4662 16.2841 52.266 16.1061 52.2882 15.9059C52.1436 15.9059 52.088 16.0616 51.9879 16.1506L51.9323 16.0727L52.4328 15.7168C52.4328 15.8614 52.4884 16.3063 52.6664 16.5399Z" fill="white"/>
<path fill-rule="evenodd" clip-rule="evenodd" d="M53.4006 15.6836H53.6231V15.7503H53.4006V15.6836Z" fill="white"/>
<path fill-rule="evenodd" clip-rule="evenodd" d="M44.1797 15.7499C44.2353 15.9501 44.0796 16.0502 44.024 16.1837L43.8794 16.0391L43.8015 16.117C43.757 16.395 43.846 15.7721 44.1018 15.8166L44.024 15.7388H44.1797V15.7499Z" fill="white"/>
<path fill-rule="evenodd" clip-rule="evenodd" d="M44.847 16.1837C44.8025 16.0836 44.7914 15.9612 44.6913 15.8834L44.5467 16.1837C44.4911 16.0391 44.6023 15.9835 44.6913 15.8834C44.847 15.8389 44.9916 16.028 45.1251 15.7388L44.847 16.1837Z" fill="white"/>
<path fill-rule="evenodd" clip-rule="evenodd" d="M46.0821 15.8835L46.16 15.8279L46.3046 16.3506C46.1043 16.4285 46.1043 16.206 46.0042 16.1282H45.9375V15.75H45.9931C45.982 15.8279 46.0376 15.8501 46.0821 15.8835Z" fill="white"/>
<path fill-rule="evenodd" clip-rule="evenodd" d="M47.0941 15.75H47.1831V16.2617H47.0941V15.75Z" fill="white"/>
<path fill-rule="evenodd" clip-rule="evenodd" d="M45.8597 16.7061C46.3602 17.0843 46.4381 16.428 46.9608 16.7061C46.7384 16.5504 46.4825 16.6839 46.3046 16.8507C46.4492 16.9953 46.3602 17.2845 46.16 17.2845C45.8819 16.9619 45.8152 16.5504 45.6372 16.1833L45.8597 16.6171C46.0821 16.3391 45.7596 16.1166 45.7818 15.8163C45.7373 16.15 46.2045 16.5059 45.8597 16.7061Z" fill="white"/>
<path fill-rule="evenodd" clip-rule="evenodd" d="M46.5156 16.0505C46.5935 15.9948 46.5712 15.9059 46.5712 15.828L46.5156 16.3508L46.4378 15.828C46.4378 15.9059 46.4155 15.9837 46.5156 16.0505Z" fill="white"/>
<path fill-rule="evenodd" clip-rule="evenodd" d="M47.4838 16.0505L47.5394 15.828L47.6172 15.8836L47.4838 16.0505Z" fill="black"/>
<path fill-rule="evenodd" clip-rule="evenodd" d="M56.8381 16.0505C56.738 16.0727 56.6935 15.9504 56.6379 15.8947L56.5601 15.9726L56.6379 15.828L56.8381 16.0505Z" fill="white"/>
<path fill-rule="evenodd" clip-rule="evenodd" d="M53.7678 16.2616C53.6899 16.117 53.5231 16.2171 53.4119 16.1837L53.334 16.2616C53.4897 16.4396 53.7567 16.3617 53.9124 16.4841C53.7344 16.384 53.4564 16.3617 53.2784 16.4841C53.4786 16.5397 53.6232 16.6843 53.8568 16.6287C53.7122 16.6731 53.512 16.573 53.423 16.7065C53.5231 16.8511 53.7233 16.751 53.8568 16.7844L53.2784 16.7065L53.334 15.9724C53.0893 16.3283 53.6677 16.0836 53.7678 16.2616Z" fill="white"/>
<path fill-rule="evenodd" clip-rule="evenodd" d="M48.1394 16.3391L48.4953 16.0499L48.2729 16.1834L48.1394 16.3391Z" fill="black"/>
<path fill-rule="evenodd" clip-rule="evenodd" d="M48.0619 17.2846C48.0174 17.1066 48.1064 16.6617 48.2843 16.4059L48.7181 16.0499C48.2955 16.3836 48.0396 16.784 48.0619 17.2846Z" fill="black"/>
<path fill-rule="evenodd" clip-rule="evenodd" d="M49.1524 16.1281C49.1969 16.1726 49.2302 16.2059 49.3081 16.1837L49.2525 16.1392L49.3303 16.0613L49.3748 16.1169L49.2302 16.2615C49.2747 16.306 49.3081 16.3616 49.3748 16.3394L49.3303 16.2838L49.386 16.2059L49.4416 16.2615C49.386 16.3394 49.2636 16.3839 49.297 16.484L49.3526 16.5396L49.3081 16.4951L49.5306 16.2727L49.5751 16.3283C49.4972 16.4061 49.3526 16.484 49.3526 16.6063L49.4305 16.6842L49.6529 16.4617C49.297 16.6842 49.5306 17.118 49.3526 17.1959C49.3748 17.118 49.3303 17.0957 49.297 17.0401L49.1413 17.2626C49.0856 17.5852 49.2859 17.0401 49.1413 16.9623C48.9855 17.1069 48.8854 17.2626 48.9188 17.4851C48.8409 17.6853 49.0189 17.2626 48.8632 17.207C48.7853 17.3849 48.5406 17.5295 48.6185 17.7854C48.5962 17.1847 49.2414 16.7621 49.2191 16.2504C48.7965 16.6508 48.5851 17.1291 48.485 17.6296C48.5295 17.1291 48.8076 16.7287 49.0634 16.3283L49.0078 16.2504C48.5295 16.5507 48.4072 17.1291 48.2737 17.6296C48.3515 17.0068 48.5962 16.3728 49.2302 16.028L49.1524 16.1281Z" fill="white"/>
<path fill-rule="evenodd" clip-rule="evenodd" d="M56.337 16.4837C56.1813 16.5838 55.9032 16.2279 56.1146 16.0499L56.3926 16.1278L56.337 16.4837Z" fill="white"/>
<path fill-rule="evenodd" clip-rule="evenodd" d="M51.7102 16.3398L51.51 16.1284H51.7102V16.3398Z" fill="white"/>
<path fill-rule="evenodd" clip-rule="evenodd" d="M51.5654 16.5399L51.5098 16.6177C51.3874 16.4731 51.4653 16.1951 51.2095 16.1839C51.532 16.0505 51.4653 16.4286 51.5654 16.5399Z" fill="white"/>
<path fill-rule="evenodd" clip-rule="evenodd" d="M51.2649 16.7065L50.5419 17.3627C50.2639 17.1847 50.2083 16.7843 50.0192 16.484L50.453 17.2181C50.6087 16.9623 50.4975 16.6397 50.2305 16.484C50.2083 16.3394 50.4307 16.4284 50.5308 16.4061L50.8868 17.0624C51.0425 16.8177 50.9646 16.4284 50.6643 16.3394C51.0091 16.1281 51.3094 16.3616 51.2649 16.7065Z" fill="white"/>
<path fill-rule="evenodd" clip-rule="evenodd" d="M45.5822 16.7063C45.5266 16.6285 45.4264 16.6507 45.3375 16.6285C45.0928 16.8287 45.5154 16.584 45.2819 16.5506L45.4265 16.406C45.5043 16.4839 45.6267 16.5617 45.5822 16.7063Z" fill="white"/>
<path fill-rule="evenodd" clip-rule="evenodd" d="M51.2095 16.7064L51.1316 16.7843L50.9092 16.4061C51.165 16.3282 51.0872 16.6285 51.2095 16.7064Z" fill="black"/>
<path fill-rule="evenodd" clip-rule="evenodd" d="M50.687 17.0625L50.4089 16.4841L50.6092 16.7066L50.687 17.0625Z" fill="#00A7E2"/>
<path fill-rule="evenodd" clip-rule="evenodd" d="M55.904 16.7069C55.8262 16.6846 55.8039 16.7514 55.7483 16.7847V16.54L55.904 16.7069Z" fill="white"/>
<path fill-rule="evenodd" clip-rule="evenodd" d="M45.2807 16.9291C45.2028 16.829 44.9581 16.829 45.0582 16.6288L45.2807 16.9291Z" fill="white"/>
<path fill-rule="evenodd" clip-rule="evenodd" d="M49.374 16.7064L49.4296 16.7398L49.2961 16.9622L49.2294 16.9289L49.374 16.7064Z" fill="black"/>
<path fill-rule="evenodd" clip-rule="evenodd" d="M49.0744 16.929L49.13 16.9623L48.9965 17.1848L48.9409 17.1403L49.0744 16.929Z" fill="black"/>
<path fill-rule="evenodd" clip-rule="evenodd" d="M53.112 17.0626C53.0897 17.4408 53.112 17.8969 52.8116 18.1638L52.8895 18.2417C52.8339 18.3863 52.6114 18.1416 52.4557 18.0859L52.3111 17.9413L52.0887 18.3195C52.2666 18.0415 52.0886 17.6855 51.7883 17.5854C51.8884 17.5854 51.9663 17.5632 52.0108 17.641C52.0553 17.6188 52.1109 17.5854 52.0887 17.4964L51.9441 17.3518C52.0219 17.4297 52.2444 17.4519 52.1665 17.6299L52.0887 17.7078L52.2332 17.8635L52.756 16.9625C52.7338 17.0404 52.8005 17.0849 52.8116 17.1183H52.8895V16.8958C53.0119 16.8847 53.0452 17.0181 53.112 17.0626Z" fill="black"/>
<path fill-rule="evenodd" clip-rule="evenodd" d="M45.126 17.1402L45.4819 16.9845L45.3484 17.1402H45.126Z" fill="white"/>
<path fill-rule="evenodd" clip-rule="evenodd" d="M50.0301 17.5073C50.1079 17.5073 50.208 17.5295 50.2525 17.4516C49.6964 17.6519 50.3748 18.03 50.2525 18.386C50.3971 18.3304 50.3081 18.1413 50.3304 18.03L50.4082 18.4638C50.1524 18.1635 49.9856 17.8854 49.9745 17.4516C49.8299 17.5962 49.9189 17.8298 49.8966 18.03C49.841 17.6519 49.9967 17.3515 50.0412 16.9956C50.0523 17.1847 49.8744 17.3627 50.0301 17.5073Z" fill="white"/>
<path fill-rule="evenodd" clip-rule="evenodd" d="M51.655 17.3631L51.5994 17.3075L51.6773 17.2518L51.7218 17.2963L51.5772 17.452L51.3547 17.0739C51.6106 16.9626 51.5327 17.2852 51.655 17.3631Z" fill="white"/>
<path fill-rule="evenodd" clip-rule="evenodd" d="M55.3807 17.4407C55.2361 17.1626 55.2361 17.2627 55.3807 17.0625V17.4407Z" fill="white"/>
<path fill-rule="evenodd" clip-rule="evenodd" d="M45.7816 17.641C45.5258 17.5187 46.0263 17.3073 45.637 17.2851L45.6926 17.3407L45.4479 17.5632L45.4034 17.5075L45.7594 17.1516C45.7816 17.3185 46.1264 17.5187 45.7816 17.641Z" fill="white"/>
<path fill-rule="evenodd" clip-rule="evenodd" d="M54.6463 17.5071C54.6908 17.6517 54.5907 17.8074 54.7242 17.8852H54.6463C54.5685 17.9631 54.6686 18.1411 54.8021 18.2412L54.5796 18.4636C54.4239 18.3858 54.4016 18.2189 54.5017 18.0855L54.5796 18.1633C54.5796 17.9631 54.4572 17.6294 54.5017 17.2846C54.4572 17.1066 54.1792 17.4626 54.2793 17.14C54.3238 17.318 54.6018 17.2179 54.6463 17.5071Z" fill="white"/>
<path fill-rule="evenodd" clip-rule="evenodd" d="M55.3023 17.7184C55.2578 17.4626 54.8463 17.4181 55.1021 17.14L55.3023 17.7184Z" fill="white"/>
<path fill-rule="evenodd" clip-rule="evenodd" d="M51.2095 17.2187L51.2651 17.1853L51.5543 17.5412L51.5098 17.5857L51.2095 17.2187Z" fill="white"/>
<path fill-rule="evenodd" clip-rule="evenodd" d="M52.8117 17.2847L52.6671 17.4404L52.9674 17.6406C52.8451 17.6184 52.745 17.5628 52.6115 17.585L52.5336 17.6406L52.7561 17.7964C53.1009 18.0411 52.5559 17.6406 52.4558 17.8742L52.8117 18.0744L52.389 17.8742L52.745 17.218L52.7894 17.1624L52.9452 17.307L52.8896 17.3626L52.8117 17.2847Z" fill="white"/>
<path fill-rule="evenodd" clip-rule="evenodd" d="M54.0013 18.0191C54.0458 18.097 54.1236 18.0747 54.2015 18.0747C54.246 18.3973 54.1792 18.8088 54.0013 19.1092C53.8455 19.1314 53.7566 19.2871 53.6231 19.3316C53.523 19.3094 53.4785 19.4317 53.4006 19.4762C53.6231 19.2204 54.2348 19.0758 54.0569 18.6754C53.8011 18.9534 53.4785 19.009 53.1782 19.1759C53.0336 19.2315 53.4785 19.1536 53.5341 18.9757H53.256C53.1114 18.9201 53.6565 18.6976 53.5341 18.375L53.3116 18.5975L53.256 18.375C53.6342 18.375 53.1337 18.1303 53.4006 18.0191C53.5563 17.7967 53.3005 17.5186 53.7009 17.4407L53.6231 17.3629L53.9012 17.2183C53.8011 17.4407 54.2682 17.7188 54.0013 18.0191Z" fill="white"/>
<path fill-rule="evenodd" clip-rule="evenodd" d="M54.202 17.6409C54.3021 17.6187 54.2798 17.5186 54.2798 17.4407L54.202 17.7188C54.1575 17.5631 54.0018 17.3629 54.1464 17.2183C54.1686 17.3629 54.0796 17.5408 54.202 17.6409Z" fill="white"/>
<path fill-rule="evenodd" clip-rule="evenodd" d="M49.452 17.5852C49.3519 17.5296 49.5744 17.4629 49.5966 17.2849C49.63 17.4184 49.5299 17.5074 49.452 17.5852Z" fill="white"/>
<path fill-rule="evenodd" clip-rule="evenodd" d="M49.7305 17.2849L49.8084 17.3072L49.7305 17.8188L49.6749 17.7966L49.7305 17.2849Z" fill="white"/>
<path fill-rule="evenodd" clip-rule="evenodd" d="M54.8027 17.2851L54.8583 17.2628L55.0252 17.8635L54.9473 17.8857L54.8027 17.2851Z" fill="white"/>
<path fill-rule="evenodd" clip-rule="evenodd" d="M51.0764 17.3631L51.1098 17.3075L51.4101 17.6078L51.3545 17.6412L51.0764 17.3631Z" fill="white"/>
<path fill-rule="evenodd" clip-rule="evenodd" d="M46.3825 17.6407H46.4381V17.8854H46.3825C46.3825 17.8076 46.4047 17.7075 46.3046 17.6407C46.249 17.6407 46.2045 17.6963 46.16 17.7186V17.4405C46.3046 17.3849 46.4381 17.5072 46.3825 17.6407Z" fill="white"/>
<path fill-rule="evenodd" clip-rule="evenodd" d="M54.0021 17.7966L53.7574 18.0191L53.902 18.1637L54.0021 18.0858C53.8241 18.2304 54.08 18.5641 54.1467 18.464C53.9465 18.6086 53.8019 18.8978 53.5461 18.8978C53.724 18.7532 54.0021 18.7198 54.0688 18.464L54.0132 18.3861L53.4126 18.8199L54.0132 18.3194C53.8686 18.0747 53.7685 18.4195 53.635 18.375L53.7129 18.3194C53.6684 18.2749 53.635 18.2193 53.5572 18.2415L53.3347 18.464L53.902 17.7966C53.7574 17.6965 53.5572 17.9412 53.4015 18.0747L53.8352 17.6409C53.6907 17.4184 53.6128 17.7632 53.4793 17.7187L53.8352 17.4407C53.9242 17.5408 53.8686 17.7187 54.0021 17.7966Z" fill="black"/>
<path fill-rule="evenodd" clip-rule="evenodd" d="M49.2304 17.5852C49.3083 17.7854 49.0859 17.7854 49.008 17.8855L49.0636 17.9411L49.1081 17.9967L48.9079 18.1413L48.8634 18.0857L49.0636 17.9411L48.9413 17.7965C48.8189 17.7187 49.1303 17.6408 49.2304 17.5852Z" fill="white"/>
<path fill-rule="evenodd" clip-rule="evenodd" d="M49.1516 18.1637L49.5075 18.3861C49.5854 18.4084 48.9291 18.1303 49.007 18.5419L48.9403 18.3194C48.6956 18.5419 48.4842 18.8422 48.1394 18.8199C48.3396 18.7754 48.462 18.6642 48.4953 18.464C48.4731 18.5196 48.5398 18.5641 48.5732 18.6086L48.7957 18.2527L48.8735 18.3305L49.3741 17.7966C49.3184 17.919 49.3184 18.0858 49.1516 18.1637Z" fill="white"/>
<path fill-rule="evenodd" clip-rule="evenodd" d="M50.4756 17.9413H50.5534L50.609 18.4418L50.5534 18.4641L50.4756 17.9413Z" fill="white"/>
<path fill-rule="evenodd" clip-rule="evenodd" d="M50.9091 18.5419L50.8535 18.5975C50.7979 18.642 50.631 18.2527 50.6978 18.0191C50.6421 18.2638 50.7979 18.4196 50.8535 18.5975V17.9413L50.9981 18.6754L50.9091 18.5419Z" fill="white"/>
<path fill-rule="evenodd" clip-rule="evenodd" d="M48.3514 18.0188L48.3959 18.0855L48.04 18.3747L47.9733 18.3191L48.3514 18.0188Z" fill="black"/>
<path fill-rule="evenodd" clip-rule="evenodd" d="M51.2653 18.7641V18.3303L51.51 18.9087L51.3542 18.6863L51.2653 18.7641C51.1095 18.7641 51.065 18.2859 50.9872 18.03C51.0873 18.2636 51.0762 18.5639 51.2653 18.7641Z" fill="white"/>
<path fill-rule="evenodd" clip-rule="evenodd" d="M43.7466 18.2417H43.8022V18.542H43.7466V18.2417Z" fill="white"/>
<path fill-rule="evenodd" clip-rule="evenodd" d="M51.5656 18.4639L51.6545 18.4417L51.788 18.8754L51.7101 18.8977L51.5656 18.4639Z" fill="white"/>
<path fill-rule="evenodd" clip-rule="evenodd" d="M51.7883 18.5418L51.8439 18.4973L52.0887 18.9422L52.0108 18.9756L51.7883 18.5418Z" fill="white"/>
<path fill-rule="evenodd" clip-rule="evenodd" d="M52.0886 18.5973L52.1442 18.5751L52.2888 18.9421L52.2332 18.9755L52.0886 18.5973Z" fill="white"/>
<path fill-rule="evenodd" clip-rule="evenodd" d="M52.6667 18.8981L52.7446 18.8202L52.8002 18.8981C52.7446 18.7535 52.6 18.9203 52.5221 18.976L52.4776 19.0205L52.2329 18.798L52.2885 18.7535L52.511 18.976C52.7112 18.8536 52.4665 18.7313 52.4331 18.5978C52.5444 18.6979 52.5444 18.8202 52.6667 18.8981Z" fill="white"/>
<path fill-rule="evenodd" clip-rule="evenodd" d="M48.9405 19.3428L48.5067 19.4874L48.8848 19.7321C48.629 19.8767 48.2286 19.4874 48.0618 19.1982C48.3398 19.1204 48.6401 19.1204 48.8848 18.9202C48.896 18.9758 48.9516 19.1204 48.9405 19.3428Z" fill="white"/>
<path fill-rule="evenodd" clip-rule="evenodd" d="M55.8258 19.4208L55.9036 19.343L55.9593 19.4208C55.9036 19.2429 55.7368 19.521 55.7368 19.2762C55.7257 19.343 55.7813 19.3764 55.8258 19.4208Z" fill="white"/>
<path fill-rule="evenodd" clip-rule="evenodd" d="M46.9609 19.476L47.2613 19.3425L47.3169 19.4204L46.9609 19.476Z" fill="white"/>
<path fill-rule="evenodd" clip-rule="evenodd" d="M53.2668 19.3425L53.3224 19.3759L53.1667 19.5984L53.1111 19.5539L53.2668 19.3425Z" fill="white"/>
<path fill-rule="evenodd" clip-rule="evenodd" d="M54.2021 19.7207C54.0241 19.6985 53.9796 19.4982 54.0019 19.3425C54.1798 19.3537 54.2243 19.5539 54.2021 19.7207Z" fill="white"/>
<path fill-rule="evenodd" clip-rule="evenodd" d="M55.8249 19.5539C55.7805 19.5984 55.7248 19.6318 55.7471 19.7096H55.5469C55.5914 19.654 55.6247 19.6095 55.6025 19.5539L55.5469 19.476L55.5914 19.5317L55.3689 19.7541L55.3133 19.7096C55.5691 19.5094 55.1687 19.4872 55.1687 19.4093L55.8249 19.5539Z" fill="white"/>
<path fill-rule="evenodd" clip-rule="evenodd" d="M50.0307 19.7766H49.8082C49.8861 19.7321 49.9306 19.5986 50.0307 19.632V19.7766Z" fill="white"/>
<path fill-rule="evenodd" clip-rule="evenodd" d="M50.3313 19.5537H50.5538V19.6427H50.3313V19.5537Z" fill="white"/>
<path fill-rule="evenodd" clip-rule="evenodd" d="M50.3304 20.0767C50.3304 19.7319 50.0857 20.1768 50.2526 19.8542L50.4083 19.9988L50.3304 20.0767Z" fill="white"/>
<path fill-rule="evenodd" clip-rule="evenodd" d="M54.5019 20.1323C54.5019 20.2324 54.4796 20.3102 54.5797 20.377L54.424 20.2213L54.3684 20.2991L54.2905 20.0767L54.4351 20.2213L54.5019 20.1323Z" fill="white"/>
<path fill-rule="evenodd" clip-rule="evenodd" d="M53.6232 20.1328C53.5453 20.1884 53.4007 20.3553 53.3229 20.2107C53.4452 20.2329 53.5008 20.0995 53.6232 20.1328Z" fill="white"/>
</svg>
