<svg width="121" height="20" viewBox="0 0 121 20" fill="none" xmlns="http://www.w3.org/2000/svg">
<path d="M27.5594 0.749771V6.13648H27.1226C25.958 2.6424 24.9388 1.25932 23.6286 1.25932H23.3374V16.5459C23.3374 17.6378 23.7014 18.3658 25.3028 18.3658V18.7297H18.6058V18.3658C20.1345 18.293 20.5713 17.6378 20.5713 16.5459V1.25932H20.2801C18.9698 1.25932 18.0235 2.6424 16.786 6.13648H16.3492V0.749771H27.5594ZM28.2437 18.4167C29.6995 18.3439 29.9907 17.6888 29.9907 16.5969V2.83894C29.9907 1.74704 29.6995 1.0919 28.2437 1.01911V0.749771H34.3583V1.04094C33.1936 1.11374 32.7568 1.69608 32.7568 2.86078V9.121H37.4884V2.83894C37.4884 1.67425 37.0516 1.0919 35.8869 1.01911V0.749771H42.0016V1.04094C40.5457 1.11374 40.2545 1.76888 40.2545 2.86078V16.6187C40.2545 17.7106 40.5457 18.3658 42.0016 18.4385V18.8025H35.8869V18.4385C37.0516 18.3658 37.4884 17.7834 37.4884 16.6187V9.70335H32.7568V16.6187C32.7568 17.7834 33.1936 18.3658 34.3583 18.4385V18.8025H28.2437V18.4167ZM59.108 12.666H59.5448C61.2918 17.0336 62.4565 18.4895 63.9851 18.4895C65.5138 18.4895 66.3873 16.9608 66.3873 15.3594C66.3873 12.666 64.6403 11.6469 62.8932 10.6278C61.1462 9.60872 59.3264 8.58961 59.3264 5.67788C59.3264 2.32939 61.5102 0.21838 64.0579 0.21838C65.0479 0.232939 66.0234 0.480436 66.8969 0.946313L67.4064 0H67.7704V5.89626H67.3336C65.805 1.67425 64.8587 0.65514 63.694 0.65514C62.5293 0.65514 61.4374 1.52866 61.4374 3.71246C61.4374 6.11464 63.0388 6.91537 64.7131 7.86168C66.3873 8.80799 68.3527 9.97268 68.3527 13.1028C68.3527 15.7962 66.8241 18.9263 63.6212 18.9263C62.4055 18.8753 61.219 18.4968 60.1999 17.8344L59.472 19.0718H59.108V12.666ZM80.2908 0.749771V6.13648H79.8541C78.6894 2.6424 77.6703 1.25932 76.36 1.25932H76.0688V16.5459C76.0688 17.6378 76.4328 18.3658 78.0342 18.3658V18.7297H71.41V18.3658C72.9387 18.293 73.3755 17.6378 73.3755 16.5459V1.25932H73.0843C71.774 1.25932 70.8277 2.6424 69.5902 6.13648H69.2263V0.749771H80.2908ZM102.638 14.4131C102.493 11.6469 101.765 9.97268 99.1443 9.7543V9.68151C101.91 9.09917 102.857 7.35213 102.857 5.09553C102.857 2.62056 101.619 0.727933 97.9796 0.727933H91.7922V1.01911C93.248 1.0919 93.5392 1.74704 93.5392 2.83894V16.5241C93.5392 17.616 93.0296 18.3439 92.0105 18.3439C90.9914 18.3439 90.4819 17.616 89.9723 15.6506L86.3327 0.509553H84.5856L81.3099 14.0491C80.4364 17.3976 79.9269 17.8344 78.7622 18.3439V18.7079H83.1298V18.3439C81.5283 17.98 81.0916 17.3976 81.9651 13.9035L82.329 12.3749H86.4055L87.279 16.1601C87.6429 17.7616 87.4246 18.2711 85.7503 18.3439V18.7079H97.9796V18.3439C96.8149 18.2711 96.3781 17.6888 96.3781 16.5241V9.97268H97.2517C99.2171 9.97268 99.581 10.4822 99.7994 13.1028L99.945 15.5778C100.091 17.9799 100.455 18.9263 102.784 18.9263C103.432 18.9044 104.065 18.7807 104.677 18.5623V18.2202C103.148 18.2711 102.711 17.1792 102.638 14.4131ZM82.329 11.8653L84.2217 3.78525H84.2945L86.1871 11.8653H82.329ZM97.3972 9.46313H96.3053V1.23749H97.1789C99.3627 1.23749 99.945 2.76615 99.945 5.16833C99.945 7.71609 99.5082 9.48497 97.3972 9.48497V9.46313ZM42.8023 18.4167C44.2582 18.3439 44.5493 17.6888 44.5493 16.5969V2.83894C44.5493 1.74704 44.2582 1.01911 42.8023 1.01911V0.749771H53.3573V6.13648H52.9206C51.8287 3.29754 51.3919 1.25932 48.7714 1.25932H47.2136V9.26659H47.7231C49.0334 9.26659 49.8341 8.61145 50.4165 5.77251H50.8532V13.1974H50.4165C49.8341 10.3585 49.0334 9.70335 47.7231 9.70335H47.2136V18.2202H48.815C51.4356 18.2202 52.3819 16.4003 53.401 12.6151H53.8378L53.765 18.7297H42.7732V18.4385L42.8023 18.4167Z" fill="black"/>
<path d="M12.5932 0.655518H0L4.07642 9.75468L0 18.7083H12.5932V0.655518ZM107.807 18.7083H120.4L116.324 9.75468L120.4 0.655518H107.807C107.807 0.655518 107.807 18.7083 107.807 18.7083Z" fill="black"/>
</svg>
