<svg xmlns="http://www.w3.org/2000/svg" viewBox="-1627 1283.564 36.125 28.199">
  <g transform="translate(-2287 224.623)">
    <rect fill="#2acc62" width="5.257" height="5.257" transform="translate(674.156 1082.44) rotate(-45)"/>
    <path fill="#3a3a6f" d="M4.9,8.574h.8V5.846h1.04V5.109H3.856v.745H4.9ZM8.316,7.365h.295l.84,1.216h.958L9.4,7.218a1.042,1.042,0,0,0,.582-1C9.982,5.573,9.643,5.1,8.7,5.1c-.1,0-.988.007-1.18.007V8.574h.8V7.365Zm0-1.511c.162-.007.229-.007.347-.007.383,0,.479.184.479.376,0,.295-.236.4-.538.4H8.316V5.854ZM11.8,7.844h1.371l.288.73H14.3L12.857,5.109H12.15L10.7,8.574h.8Zm.686-1.718.383.981h-.774ZM16.5,8.633a1.609,1.609,0,0,0,1.128-.4l-.3-.6a1.26,1.26,0,0,1-.752.251,1,1,0,0,1-1.047-1.047A.95.95,0,0,1,16.5,5.795a1.2,1.2,0,0,1,.708.214l.354-.6A1.537,1.537,0,0,0,16.5,5.05a1.688,1.688,0,0,0-1.814,1.791A1.7,1.7,0,0,0,16.5,8.633Zm2.765-1.71,1.187,1.651h1L20.045,6.709l1.3-1.6H20.4L19.264,6.62V5.109h-.8V8.574h.8V6.923Zm3.775-1.814h-.8V8.574h.8ZM25.022,6.5l1.644,2.079H27.3V5.109h-.745V7.2L24.911,5.109h-.634V8.574h.745ZM30.1,8.633a2,2,0,0,0,1.3-.494V6.591H29.917v.745h.737v.376a1.013,1.013,0,0,1-.546.177.973.973,0,0,1-1.025-1.047.947.947,0,0,1,1.01-1.047,1.072,1.072,0,0,1,.708.258l.332-.641a1.811,1.811,0,0,0-2.9,1.43A1.69,1.69,0,0,0,30.1,8.633ZM27.875,24.284H30.2V23.179h-2.33Zm-3.494,0h2.33V23.179H24.38Zm6.989,0h1.474V23.179H31.369Zm-28.966,0H3.878V23.179H2.4Zm6.628,0h2.58V23.179H9.031Zm-3.863,0h2.58V23.179H5.168ZM0,0V14.214H15.806l2.256,2.256,2.256-2.256H36.124V0ZM35.019,13.108H19.861l-1.8,1.791-1.8-1.8H1.106V1.106H35.019ZM18.062,19.264l-3.915,3.915H12.9v1.106h1.246L18.062,28.2l3.915-3.915h1.246V23.179H21.977Zm0,7.372-2.9-2.9,2.9-2.9,2.9,2.9Z" transform="translate(660 1058.941)"/>
  </g>
</svg>
