<svg xmlns="http://www.w3.org/2000/svg" viewBox="-1463.928 3022.572 19.928 23.428">
  <defs>
    <style>
      .cls-1 {
        fill: #fff;
      }
    </style>
  </defs>
  <g id="user-icon" transform="translate(-2107.342 2922)">
    <path id="Path_32" data-name="Path 32" class="cls-1" d="M105.96,12.624h.155a4.477,4.477,0,0,0,3.42-1.48c1.868-2.106,1.557-5.715,1.523-6.06a4.95,4.95,0,0,0-2.353-4.4A5.394,5.394,0,0,0,106.1,0h-.082a5.4,5.4,0,0,0-2.61.665,4.953,4.953,0,0,0-2.382,4.42c-.034.344-.344,3.954,1.523,6.06A4.459,4.459,0,0,0,105.96,12.624Zm-3.644-7.418c0-.015,0-.029,0-.039.16-3.479,2.63-3.852,3.687-3.852h.058c1.31.029,3.537.563,3.687,3.852a.1.1,0,0,0,0,.039c0,.034.344,3.333-1.2,5.07a3.18,3.18,0,0,1-2.5,1.038h-.049a3.169,3.169,0,0,1-2.494-1.038C101.982,8.548,102.312,5.235,102.317,5.206Z" transform="translate(547.332 100.572)"/>
    <path id="Path_33" data-name="Path 33" class="cls-1" d="M19.9,265.277v-.015c0-.039,0-.078,0-.121-.029-.961-.092-3.207-2.2-3.925l-.049-.015a14,14,0,0,1-4.027-1.834.655.655,0,1,0-.752,1.072,15.111,15.111,0,0,0,4.429,2.023c1.13.4,1.257,1.611,1.291,2.717a.974.974,0,0,0,0,.121,8.806,8.806,0,0,1-.1,1.5,17.854,17.854,0,0,1-8.553,1.989A17.957,17.957,0,0,1,1.381,266.8a8.337,8.337,0,0,1-.1-1.5c0-.039,0-.078,0-.121.034-1.106.16-2.314,1.291-2.717A15.252,15.252,0,0,0,7,260.435a.655.655,0,1,0-.752-1.072A13.846,13.846,0,0,1,2.225,261.2l-.049.015c-2.106.723-2.169,2.969-2.2,3.925a.975.975,0,0,1,0,.121v.015a7.44,7.44,0,0,0,.247,2.2.622.622,0,0,0,.252.306,18.35,18.35,0,0,0,9.47,2.319,18.406,18.406,0,0,0,9.47-2.319.649.649,0,0,0,.252-.306A7.806,7.806,0,0,0,19.9,265.277Z" transform="translate(643.441 -146.095)"/>
  </g>
</svg>
