<svg xmlns="http://www.w3.org/2000/svg" viewBox="1655.93 3581 17.518 5.669">
  <defs>
    <style>
      .cls-1 {
        fill: #00579f;
      }

      .cls-2 {
        fill: #faa61a;
      }
    </style>
  </defs>
  <g id="Visa_Inc._logo" transform="translate(1655.93 3581)">
    <path id="polygon9" class="cls-1" d="M434.926,116.215h-1.419l.888-5.488h1.419Z" transform="translate(-427.335 -110.628)"/>
    <path id="path11" class="cls-1" d="M569.435,105.281a3.5,3.5,0,0,0-1.273-.234c-1.4,0-2.388.747-2.394,1.816-.012.788.707,1.226,1.244,1.489s.736.444.736.683c-.006.368-.444.537-.852.537a2.824,2.824,0,0,1-1.331-.292l-.187-.088-.2,1.232a4.319,4.319,0,0,0,1.583.292c1.489,0,2.458-.736,2.47-1.874.006-.625-.374-1.1-1.191-1.495-.5-.251-.8-.42-.8-.677.006-.234.257-.473.817-.473a2.411,2.411,0,0,1,1.057.21l.128.058.193-1.185Z" transform="translate(-556.7 -105.048)"/>
    <path id="path13" class="cls-1" d="M792.717,114.271c.117-.315.567-1.536.567-1.536s.117-.321.187-.525l.1.473s.269,1.314.327,1.588Zm1.752-3.544h-1.1a.7.7,0,0,0-.742.455l-2.108,5.033h1.489l.3-.823h1.822c.041.193.169.823.169.823h1.314l-1.145-5.488Z" transform="translate(-778.096 -110.628)"/>
    <path id="path15" class="cls-1" d="M169.339,110.727l-1.39,3.742-.152-.759a4.2,4.2,0,0,0-1.962-2.3l1.273,4.8h1.5l2.23-5.482Z" transform="translate(-164.352 -110.628)"/>
    <path id="path17" class="cls-2" d="M83.472,110.727H81.189l-.023.111a4.748,4.748,0,0,1,3.445,2.873l-.5-2.522a.587.587,0,0,0-.642-.461Z" transform="translate(-81.166 -110.628)"/>
  </g>
</svg>
