<svg xmlns="http://www.w3.org/2000/svg" viewBox="0 0 273.458 91.305">
  <defs>
    <style>
      .cls-1, .cls-5 {
        fill: none;
      }

      .cls-1 {
        stroke: #fff;
        stroke-width: 6px;
      }

      .cls-2, .cls-3 {
        fill: #fff;
      }

      .cls-2 {
        font-size: 25px;
        font-family: CirceRounded-Bold, Circe Rounded;
        font-weight: 700;
        letter-spacing: -0.051em;
      }

      .cls-4 {
        stroke: none;
      }
    </style>
  </defs>
  <g id="Group_36" data-name="Group 36" transform="translate(-158.67 -905.778)">
    <g id="Rectangle_7" data-name="Rectangle 7" class="cls-1" transform="translate(158.67 905.778)">
      <rect class="cls-4" width="273.458" height="91.305" rx="45.653"/>
      <rect class="cls-5" x="3" y="3" width="267.458" height="85.305" rx="42.653"/>
    </g>
    <text id="WATCH_VIDEO" data-name="WATCH VIDEO" class="cls-2" transform="translate(237 961)"><tspan x="0" y="0">WATCH VIDEO</tspan></text>
    <path id="Path_14" data-name="Path 14" class="cls-3" d="M19.5,0a19.5,19.5,0,1,0,19.5,19.5A19.5,19.5,0,0,0,19.5,0Zm9.328,21.063-11.635,8a1.9,1.9,0,0,1-1.081.334,1.783,1.783,0,0,1-.88-.223,1.912,1.912,0,0,1-1.014-1.683V11.5A1.894,1.894,0,0,1,17.2,9.941l11.635,8a1.9,1.9,0,0,1,.825,1.56A1.861,1.861,0,0,1,28.831,21.063Z" transform="translate(184.379 932.512)"/>
  </g>
</svg>
