<svg width="105" height="30" viewBox="0 0 105 30" fill="none" xmlns="http://www.w3.org/2000/svg">
<path d="M0 7.07739H6.24694L9.88429 16.3673L13.5682 7.07739H19.6498L10.4913 29.0687H4.37125L6.87805 23.2414L0 7.07739Z" fill="#191919"/>
<path d="M25.9882 6.70715C21.2942 6.70715 18.3281 10.9089 18.3281 15.0929C18.3281 19.8012 21.5817 23.5348 25.8999 23.5348C29.1213 23.5348 30.3354 21.5759 30.3354 21.5759V23.102H35.7842V7.07747H30.3354V8.53468C30.3354 8.53468 28.98 6.70715 25.9882 6.70715ZM27.1461 11.8579C29.3125 11.8579 30.4285 13.5684 30.4285 15.1122C30.4285 16.7746 29.2306 18.4049 27.1461 18.4049C25.4182 18.4049 23.8556 16.9942 23.8556 15.1827C23.8556 13.344 25.113 11.8579 27.1461 11.8579Z" fill="#191919"/>
<path d="M37.6597 23.1022V0.00158691H43.3574V8.59097C43.3574 8.59097 44.7112 6.71054 47.5456 6.71054C51.0127 6.71054 53.0457 9.28992 53.0457 12.9754V23.1038H47.3882V14.3621C47.3882 13.1149 46.7924 11.9094 45.445 11.9094C44.0736 11.9094 43.3574 13.1325 43.3574 14.3621V23.1038H37.6597V23.1022Z" fill="#191919"/>
<path d="M62.7617 6.70862C57.3867 6.70862 54.1862 10.7885 54.1862 15.1601C54.1862 20.1345 58.0612 23.5347 62.7825 23.5347C67.3577 23.5347 71.3612 20.2884 71.3612 15.2435C71.3612 9.72244 67.1698 6.70862 62.7617 6.70862ZM62.813 11.9042C64.7112 11.9042 66.0248 13.4833 66.0248 15.1665C66.0248 16.6029 64.8011 18.3727 62.813 18.3727C60.992 18.3727 59.6237 16.9139 59.6237 15.1505C59.6237 13.4512 60.7607 11.9042 62.813 11.9042Z" fill="#191919"/>
<path d="M80.8553 6.70862C75.4803 6.70862 72.2798 10.7885 72.2798 15.1601C72.2798 20.1345 76.1548 23.5347 80.8761 23.5347C85.4513 23.5347 89.4548 20.2884 89.4548 15.2435C89.4548 9.72244 85.2634 6.70862 80.8553 6.70862ZM80.9067 11.9042C82.8048 11.9042 84.1184 13.4833 84.1184 15.1665C84.1184 16.6029 82.8948 18.3727 80.9067 18.3727C79.0856 18.3727 77.7173 16.9139 77.7173 15.1505C77.7173 13.4512 78.8543 11.9042 80.9067 11.9042Z" fill="#191919"/>
<path d="M93.9514 15.8885C96.0407 15.8885 97.7349 17.5798 97.7349 19.6654C97.7349 21.7511 96.0407 23.4423 93.9514 23.4423C91.8622 23.4423 90.168 21.7511 90.168 19.6654C90.168 17.5798 91.8622 15.8885 93.9514 15.8885Z" fill="#191919"/>
<path d="M98.9796 14.5H92.1674L98.2136 0H105L98.9796 14.5Z" fill="#191919"/>
</svg>
